<svg width="52" height="51" viewBox="0 0 52 51" fill="none" xmlns="http://www.w3.org/2000/svg">
<path d="M19.1581 5.33582L16.7491 8.06902L13.2941 8.36568C10.9077 8.57065 9.71447 8.67311 8.84283 9.2158C8.07614 9.69321 7.48026 10.401 7.1406 11.2379C6.75443 12.1893 6.85689 13.3825 7.06186 15.7689L7.31936 18.7674L5.22607 21.1424C3.64229 22.9393 2.8504 23.8377 2.59517 24.8323C2.37067 25.7071 2.42888 26.6305 2.76145 27.4702C3.13955 28.4248 4.03798 29.2167 5.83485 30.8005L8.55891 33.2015L8.86465 36.7618C9.06962 39.1482 9.17208 40.3414 9.71477 41.213C10.1922 41.9797 10.9 42.5756 11.7369 42.9153C12.6883 43.3014 13.8815 43.199 16.2679 42.994L19.3671 42.7279L21.6414 44.7325C23.4383 46.3163 24.3367 47.1081 25.3313 47.3634C26.2061 47.5879 27.1295 47.5297 27.9692 47.1971C28.9238 46.819 29.7157 45.9206 31.2995 44.1237L33.6077 41.5049L37.2607 41.1912C39.6472 40.9863 40.8404 40.8838 41.712 40.3411C42.4787 39.8637 43.0746 39.1559 43.4142 38.319C43.8004 37.3676 43.698 36.1744 43.493 33.788L43.2192 30.6002L45.2315 28.3171C46.8153 26.5203 47.6072 25.6218 47.8624 24.6273C48.0869 23.7525 48.0287 22.829 47.6961 21.9894C47.318 21.0347 46.4196 20.2429 44.6227 18.6591L41.9949 16.3428L41.6902 12.7951C41.4852 10.4087 41.3828 9.2155 40.8401 8.34385C40.3627 7.57717 39.6548 6.98129 38.818 6.64163C37.8666 6.25546 36.6734 6.35791 34.2869 6.56288L31.1998 6.82798L28.8162 4.72704C27.0193 3.14327 26.1209 2.35138 25.1263 2.09615C24.2515 1.87165 23.3281 1.92985 22.4884 2.26243C21.5338 2.64052 20.7418 3.53897 19.1581 5.33582Z" fill="url(#paint0_linear_3_1952)"/>
<path d="M20.1781 23.5702C19.9466 23.3575 19.5866 23.3726 19.3738 23.6041L18.1384 24.948C17.9257 25.1794 17.9409 25.5396 18.1723 25.7523L23.5721 30.7159L31.2101 22.4066C31.4229 22.1752 31.4077 21.8151 31.1763 21.6024L29.8323 20.3669C29.6008 20.1542 29.2408 20.1694 29.0281 20.4008L23.3958 26.528L20.1781 23.5702Z" fill="white"/>
<defs>
<linearGradient id="paint0_linear_3_1952" x1="2.46094" y1="24.7297" x2="49.4608" y2="24.7297" gradientUnits="userSpaceOnUse">
<stop stop-color="#60BF60"/>
<stop offset="1" stop-color="#60BFAE"/>
</linearGradient>
</defs>
</svg>
