<svg width="45" height="45" viewBox="0 0 45 45" fill="none" xmlns="http://www.w3.org/2000/svg">
<path fill-rule="evenodd" clip-rule="evenodd" d="M21.0888 0.061187C20.8962 0.0928961 20.4593 0.134538 20.1178 0.153704C19.7763 0.172869 19.497 0.214511 19.497 0.246284C19.497 0.277993 19.2964 0.303972 19.0513 0.303972C18.7966 0.303972 18.6056 0.331287 18.6056 0.367645C18.6056 0.402665 18.4603 0.431318 18.2827 0.431318C18.0805 0.431318 17.924 0.467038 17.8642 0.526827C17.8081 0.582986 17.6525 0.622336 17.4868 0.622336C17.3317 0.622336 17.2048 0.650989 17.2048 0.686009C17.2048 0.721029 17.0902 0.749682 16.9501 0.749682C16.81 0.749682 16.6954 0.778335 16.6954 0.813355C16.6954 0.848375 16.5808 0.877028 16.4407 0.877028C16.3006 0.877028 16.186 0.904407 16.186 0.937836C16.186 0.971264 16.0854 1.01749 15.9624 1.04054C15.8395 1.06359 15.7232 1.10791 15.704 1.13891C15.6848 1.16999 15.5849 1.19539 15.4818 1.19539C15.3788 1.19539 15.2946 1.22405 15.2946 1.25907C15.2946 1.29409 15.1943 1.32274 15.0717 1.32274C14.9492 1.32274 14.8489 1.35139 14.8489 1.38641C14.8489 1.42143 14.7895 1.45008 14.717 1.45008C14.6444 1.45008 14.5421 1.49306 14.4896 1.54559C14.437 1.59812 14.3405 1.6411 14.275 1.6411C14.2095 1.6411 14.1383 1.66976 14.1166 1.70478C14.095 1.7398 14.0074 1.76845 13.9219 1.76845C13.8363 1.76845 13.7664 1.7971 13.7664 1.83212C13.7664 1.86714 13.7214 1.89579 13.6664 1.89579C13.6113 1.89579 13.5233 1.93877 13.4708 1.9913C13.4183 2.04383 13.3217 2.08681 13.2563 2.08681C13.1908 2.08681 13.1195 2.11547 13.0979 2.15049C13.0762 2.18551 13.0029 2.21416 12.9349 2.21416C12.8669 2.21416 12.8113 2.24281 12.8113 2.27783C12.8113 2.31285 12.7397 2.3415 12.6522 2.3415C12.5646 2.3415 12.493 2.36366 12.493 2.39072C12.493 2.41779 12.3927 2.49387 12.2701 2.5599C12.1475 2.62593 12.0473 2.70406 12.0473 2.73354C12.0473 2.76308 11.9756 2.78722 11.8881 2.78722C11.8005 2.78722 11.7289 2.81587 11.7289 2.85089C11.7289 2.88591 11.6716 2.91456 11.6015 2.91456C11.5308 2.91456 11.4742 2.95703 11.4742 3.01007C11.4742 3.06311 11.4176 3.10558 11.3469 3.10558C11.2768 3.10558 11.2195 3.13423 11.2195 3.16925C11.2195 3.20427 11.1765 3.23293 11.124 3.23293C11.0715 3.23293 11.0285 3.26158 11.0285 3.2966C11.0285 3.33162 10.9712 3.36027 10.9011 3.36027C10.8311 3.36027 10.7738 3.38937 10.7738 3.42496C10.7738 3.46056 10.6735 3.53747 10.5509 3.59592C10.4284 3.65438 10.3281 3.72556 10.3281 3.75409C10.3281 3.78261 10.2851 3.80598 10.2326 3.80598C10.1801 3.80598 10.1371 3.83463 10.1371 3.86965C10.1371 3.90467 10.0798 3.93333 10.0097 3.93333C9.93898 3.93333 9.88238 3.9758 9.88238 4.02884C9.88238 4.08137 9.8457 4.12435 9.80094 4.12435C9.75612 4.12435 9.67818 4.18165 9.62769 4.25169C9.5772 4.32173 9.49544 4.37904 9.44603 4.37904C9.39662 4.37904 9.26163 4.47932 9.146 4.60189C9.03044 4.72446 8.9015 4.82475 8.85947 4.82475C8.81751 4.82475 8.68858 4.92503 8.57295 5.0476C8.45738 5.17017 8.34557 5.27046 8.32456 5.27046C8.30355 5.27046 8.18855 5.36361 8.06904 5.4774C7.78455 5.74839 7.6679 5.84351 7.62014 5.84351C7.56844 5.84351 7.39914 6.01422 7.39914 6.06637C7.39914 6.11947 7.22938 6.28922 7.17628 6.28922C7.12401 6.28922 6.95343 6.45853 6.95343 6.51042C6.95343 6.57633 6.64531 6.86228 6.57425 6.86228C6.53764 6.86228 6.50771 6.89221 6.50771 6.92882C6.50771 6.96543 6.44321 7.06546 6.36445 7.15097C6.00107 7.54568 5.93466 7.62438 5.93466 7.66048C5.93466 7.72473 5.75746 7.88105 5.68449 7.88105C5.64698 7.88105 5.61629 7.91097 5.61629 7.94759C5.61629 7.9842 5.54466 8.08582 5.45711 8.17337C5.36956 8.26092 5.29793 8.35567 5.29793 8.38387C5.29793 8.41214 5.21668 8.52026 5.11735 8.62417C5.01802 8.72815 4.89641 8.90427 4.84713 9.0157C4.79778 9.12706 4.7215 9.21818 4.6775 9.21818C4.6335 9.21818 4.59753 9.27548 4.59753 9.34552C4.59753 9.41556 4.56887 9.47287 4.53385 9.47287C4.49883 9.47287 4.47018 9.5028 4.47018 9.53941C4.47018 9.57602 4.39855 9.67764 4.311 9.76519C4.22345 9.85274 4.15182 9.95971 4.15182 10.0029C4.15182 10.0461 4.09451 10.1228 4.02447 10.1733C3.95443 10.2238 3.89713 10.2994 3.89713 10.3414C3.89713 10.4443 3.6863 10.8091 3.62652 10.8096C3.60028 10.8098 3.57876 10.853 3.57876 10.9055C3.57876 10.958 3.55011 11.001 3.51509 11.001C3.48007 11.001 3.45142 11.0583 3.45142 11.1284C3.45142 11.1984 3.42276 11.2557 3.38774 11.2557C3.35272 11.2557 3.32407 11.3095 3.32407 11.3753C3.32407 11.441 3.28109 11.5305 3.22856 11.5741C3.17603 11.6177 3.13305 11.6928 3.13305 11.741C3.13305 11.7893 3.1044 11.8288 3.06938 11.8288C3.03436 11.8288 3.0057 11.9004 3.0057 11.988C3.0057 12.0755 2.97705 12.1471 2.94203 12.1471C2.90701 12.1471 2.87836 12.2044 2.87836 12.2745C2.87836 12.3445 2.85028 12.4018 2.8159 12.4018C2.78158 12.4018 2.73548 12.4735 2.71351 12.561C2.69154 12.6486 2.64799 12.7202 2.61679 12.7202C2.58553 12.7202 2.55999 12.7918 2.55999 12.8794C2.55999 12.9669 2.53134 13.0386 2.49632 13.0386C2.4613 13.0386 2.43265 13.0959 2.43265 13.1659C2.43265 13.2359 2.404 13.2932 2.36898 13.2932C2.33396 13.2932 2.3053 13.3628 2.3053 13.4479C2.3053 13.5329 2.26232 13.6455 2.20979 13.698C2.15726 13.7505 2.11428 13.8529 2.11428 13.9255C2.11428 13.998 2.08563 14.0573 2.05061 14.0573C2.01559 14.0573 1.98694 14.1433 1.98694 14.2483C1.98694 14.3534 1.95829 14.4394 1.92327 14.4394C1.88824 14.4394 1.85959 14.5274 1.85959 14.6349C1.85959 14.7425 1.81661 14.8735 1.76408 14.926C1.71155 14.9785 1.66857 15.0911 1.66857 15.1761C1.66857 15.2612 1.63992 15.3308 1.6049 15.3308C1.56988 15.3308 1.54123 15.4311 1.54123 15.5536C1.54123 15.6762 1.51257 15.7765 1.47755 15.7765C1.44253 15.7765 1.41388 15.9031 1.41388 16.0577C1.41388 16.2124 1.39236 16.3485 1.36613 16.3602C1.27826 16.3992 1.09552 17.0321 1.09552 17.2973C1.09552 17.4414 1.06686 17.5593 1.03184 17.5593C0.996824 17.5593 0.968171 17.7169 0.968171 17.9095C0.968171 18.1021 0.939519 18.2597 0.904498 18.2597C0.869478 18.2597 0.840826 18.4159 0.840826 18.6068C0.840826 18.7977 0.797846 19.1189 0.745316 19.3206C0.690366 19.5316 0.649807 19.9655 0.649807 20.3425C0.649807 20.7368 0.624465 20.9977 0.586134 20.9977C0.546275 20.9977 0.522461 21.3903 0.522461 22.0483C0.522461 22.7062 0.546275 23.0989 0.586134 23.0989C0.624592 23.0989 0.650125 23.37 0.65057 23.7834C0.651016 24.1839 0.690303 24.6131 0.745316 24.818C0.797019 25.0107 0.83968 25.3187 0.840062 25.5025C0.840508 25.6863 0.869478 25.8368 0.904498 25.8368C0.939901 25.8368 0.968171 26.0066 0.968171 26.2188C0.968171 26.4311 0.996442 26.6009 1.03184 26.6009C1.06686 26.6009 1.09552 26.7298 1.09552 26.8874C1.09552 27.045 1.12239 27.1739 1.15531 27.1739C1.18816 27.1739 1.23439 27.3029 1.25801 27.4605C1.28163 27.6181 1.3264 27.747 1.35747 27.747C1.38848 27.747 1.41388 27.8759 1.41388 28.0335C1.41388 28.1911 1.44253 28.3201 1.47755 28.3201C1.51257 28.3201 1.54123 28.4203 1.54123 28.5429C1.54123 28.6655 1.56988 28.7658 1.6049 28.7658C1.63992 28.7658 1.66959 28.8302 1.6708 28.909C1.67208 28.9879 1.71404 29.1239 1.76408 29.2115C1.81413 29.299 1.85609 29.4351 1.85736 29.5139C1.85857 29.5927 1.88824 29.6572 1.92327 29.6572C1.95829 29.6572 1.98694 29.7431 1.98694 29.8482C1.98694 29.9533 2.01559 30.0392 2.05061 30.0392C2.08563 30.0392 2.11428 30.0986 2.11428 30.1711C2.11428 30.2437 2.15726 30.346 2.20979 30.3985C2.26232 30.4511 2.3053 30.5636 2.3053 30.6486C2.3053 30.7337 2.33396 30.8033 2.36898 30.8033C2.404 30.8033 2.43265 30.8749 2.43265 30.9625C2.43265 31.05 2.4613 31.1217 2.49632 31.1217C2.53134 31.1217 2.55999 31.179 2.55999 31.249C2.55999 31.319 2.58234 31.3764 2.60966 31.3764C2.63697 31.3764 2.71491 31.5196 2.78285 31.6947C2.85079 31.8698 2.92872 32.0131 2.95604 32.0131C2.98336 32.0131 3.0057 32.0704 3.0057 32.1404C3.0057 32.2105 3.03436 32.2678 3.06938 32.2678C3.1044 32.2678 3.13305 32.3085 3.13305 32.3581C3.13305 32.4717 3.33961 32.8399 3.40366 32.8404C3.42989 32.8406 3.45142 32.8838 3.45142 32.9363C3.45142 32.9889 3.48007 33.0318 3.51509 33.0318C3.55011 33.0318 3.57876 33.0892 3.57876 33.1592C3.57876 33.2292 3.60741 33.2865 3.64243 33.2865C3.67745 33.2865 3.70611 33.3282 3.70611 33.3792C3.70611 33.4301 3.77774 33.5434 3.86529 33.6309C3.95284 33.7185 4.02447 33.8365 4.02447 33.8931C4.02447 33.9497 4.06026 34.036 4.10406 34.0848C4.29304 34.2955 4.34284 34.3675 4.34284 34.43C4.34284 34.4665 4.37149 34.4963 4.40651 34.4963C4.44153 34.4963 4.47018 34.5412 4.47018 34.5961C4.47018 34.651 4.57047 34.7905 4.69304 34.9061C4.81561 35.0217 4.91589 35.163 4.91589 35.2202C4.91589 35.2773 4.94454 35.3241 4.97956 35.3241C5.01459 35.3241 5.04324 35.3622 5.04324 35.4088C5.04324 35.4554 5.11487 35.5319 5.20242 35.5788C5.28997 35.6256 5.3616 35.698 5.3616 35.7395C5.3616 35.781 5.49054 35.9476 5.64813 36.1098C5.80572 36.2719 5.93466 36.4206 5.93466 36.4403C5.93466 36.4599 5.9991 36.546 6.07792 36.6315C6.45512 37.0412 6.50771 37.1069 6.50771 37.1683C6.50771 37.2046 6.52924 37.2343 6.55547 37.2343C6.62016 37.2344 6.95343 37.5243 6.95343 37.5805C6.95343 37.6358 7.12069 37.8073 7.17463 37.8073C7.24053 37.8073 7.52648 38.1154 7.52648 38.1865C7.52648 38.2231 7.56997 38.253 7.62314 38.253C7.67624 38.253 7.81715 38.3533 7.93615 38.4759C8.05522 38.5985 8.1706 38.6987 8.19263 38.6987C8.2591 38.6987 8.54525 39.0064 8.54525 39.0779C8.54525 39.1145 8.60255 39.1444 8.67259 39.1444C8.74263 39.1444 8.79994 39.1731 8.79994 39.2081C8.79994 39.2431 8.8305 39.2718 8.86788 39.2718C8.90525 39.2718 9.03044 39.3721 9.146 39.4946C9.26163 39.6172 9.39242 39.7175 9.43667 39.7175C9.48092 39.7175 9.61171 39.8178 9.72734 39.9404C9.8429 40.0629 9.98241 40.1632 10.0373 40.1632C10.0922 40.1632 10.1371 40.1919 10.1371 40.2269C10.1371 40.2619 10.1678 40.2906 10.2053 40.2906C10.2428 40.2906 10.3134 40.3263 10.3623 40.3702C10.573 40.5591 10.645 40.6089 10.7075 40.6089C10.7439 40.6089 10.7738 40.6376 10.7738 40.6726C10.7738 40.7076 10.8311 40.7363 10.9011 40.7363C10.9712 40.7363 11.0285 40.7604 11.0285 40.7899C11.0285 40.8194 11.1288 40.8976 11.2513 40.9636C11.3739 41.0296 11.4742 41.1057 11.4742 41.1328C11.4742 41.1598 11.5434 41.182 11.6281 41.182C11.7127 41.182 11.7915 41.2049 11.8032 41.233C11.8335 41.3059 12.4284 41.6277 12.5328 41.6277C12.581 41.6277 12.6203 41.6563 12.6203 41.6914C12.6203 41.7264 12.6633 41.755 12.7158 41.755C12.7684 41.755 12.8113 41.7837 12.8113 41.8187C12.8113 41.8537 12.8615 41.8833 12.9228 41.8844C12.984 41.8855 13.0898 41.9285 13.1578 41.9799C13.2258 42.0313 13.3332 42.0734 13.3966 42.0734C13.4599 42.0734 13.5117 42.1021 13.5117 42.1371C13.5117 42.1721 13.5834 42.2007 13.6709 42.2007C13.7585 42.2007 13.8301 42.2294 13.8301 42.2644C13.8301 42.2994 13.8819 42.3281 13.9453 42.3281C14.0086 42.3281 14.1161 42.3702 14.1841 42.4216C14.252 42.473 14.3578 42.516 14.4191 42.5171C14.4803 42.5182 14.5305 42.5478 14.5305 42.5828C14.5305 42.6178 14.6021 42.6465 14.6897 42.6465C14.7772 42.6465 14.8489 42.6751 14.8489 42.7101C14.8489 42.7452 14.9492 42.7738 15.0717 42.7738C15.1943 42.7738 15.2946 42.7993 15.2946 42.8304C15.2946 42.8615 15.3949 42.9058 15.5174 42.9288C15.64 42.9518 15.7403 42.9979 15.7403 43.0314C15.7403 43.0648 15.8406 43.0922 15.9631 43.0922C16.0857 43.0922 16.186 43.1208 16.186 43.1558C16.186 43.1909 16.3006 43.2195 16.4407 43.2195C16.5808 43.2195 16.6954 43.2482 16.6954 43.2832C16.6954 43.3182 16.7885 43.3477 16.9023 43.3489C17.0162 43.35 17.1649 43.393 17.2328 43.4444C17.3008 43.4958 17.4799 43.5379 17.6308 43.5379C17.7817 43.5379 17.9052 43.5665 17.9052 43.6016C17.9052 43.637 18.075 43.6652 18.2872 43.6652C18.4973 43.6652 18.6692 43.6913 18.6692 43.7232C18.6692 43.7551 18.834 43.7975 19.0354 43.8173C19.2368 43.837 19.7524 43.8873 20.1815 43.929C20.6105 43.9707 20.9615 44.0287 20.9615 44.0579C20.9615 44.1328 23.947 44.1242 24.3171 44.0482C24.6181 43.9864 25.5149 43.8807 26.2941 43.8152C26.513 43.7968 26.692 43.7555 26.692 43.7235C26.692 43.6915 26.8496 43.6652 27.0422 43.6652C27.2348 43.6652 27.3924 43.6366 27.3924 43.6016C27.3924 43.5665 27.5035 43.5379 27.6394 43.5379C27.7752 43.5379 27.9891 43.4949 28.1149 43.4424C28.2406 43.3898 28.416 43.3469 28.5047 43.3469C28.5934 43.3469 28.6659 43.3182 28.6659 43.2832C28.6659 43.2482 28.7662 43.2195 28.8887 43.2195C29.0113 43.2195 29.1116 43.1909 29.1116 43.1558C29.1116 43.1208 29.2047 43.0913 29.3185 43.0901C29.4324 43.089 29.5811 43.0461 29.6491 42.9946C29.7171 42.9432 29.8245 42.9011 29.8878 42.9011C29.9512 42.9011 30.003 42.8725 30.003 42.8375C30.003 42.8025 30.1033 42.7738 30.2259 42.7738C30.3484 42.7738 30.4487 42.7452 30.4487 42.7101C30.4487 42.6751 30.5204 42.6465 30.6079 42.6465C30.6955 42.6465 30.7671 42.6178 30.7671 42.5828C30.7671 42.5478 30.8128 42.5191 30.8687 42.5191C30.9246 42.5191 31.0607 42.4721 31.1712 42.4145C31.5525 42.2159 31.5938 42.2007 31.7531 42.2007C31.8412 42.2007 31.9132 42.1721 31.9132 42.1371C31.9132 42.1021 31.9527 42.0734 32.0009 42.0734C32.0491 42.0734 32.1243 42.0304 32.1679 41.9779C32.2115 41.9254 32.301 41.8824 32.3667 41.8824C32.4325 41.8824 32.4863 41.8537 32.4863 41.8187C32.4863 41.7837 32.5579 41.755 32.6454 41.755C32.733 41.755 32.8046 41.7264 32.8046 41.6914C32.8046 41.6563 32.8619 41.6277 32.932 41.6277C33.002 41.6277 33.0593 41.6009 33.0593 41.5683C33.0593 41.5356 33.1238 41.4886 33.2026 41.4637C33.2813 41.4388 33.3922 41.3652 33.4488 41.3002C33.5055 41.2352 33.6129 41.182 33.6876 41.182C33.7623 41.182 33.8234 41.1598 33.8234 41.1328C33.8234 41.1057 33.9237 41.0296 34.0463 40.9636C34.1688 40.8976 34.2691 40.8194 34.2691 40.7899C34.2691 40.7604 34.3264 40.7363 34.3965 40.7363C34.4665 40.7363 34.5238 40.7076 34.5238 40.6726C34.5238 40.6376 34.5545 40.6089 34.592 40.6089C34.6296 40.6089 34.7002 40.5731 34.749 40.5293C34.9597 40.3404 35.0317 40.2906 35.0942 40.2906C35.1307 40.2906 35.1605 40.2619 35.1605 40.2269C35.1605 40.1919 35.211 40.1632 35.2728 40.1632C35.3345 40.1632 35.4388 40.0916 35.5046 40.004C35.5703 39.9165 35.6642 39.8448 35.7131 39.8448C35.7622 39.8448 35.9162 39.732 36.0554 39.5941C36.1948 39.4562 36.3655 39.3253 36.435 39.3033C36.5045 39.2813 36.5613 39.2365 36.5613 39.2039C36.5613 39.1712 36.6043 39.1444 36.6568 39.1444C36.7094 39.1444 36.7523 39.1145 36.7523 39.0779C36.7523 39.0079 37.0379 38.6987 37.1026 38.6987C37.1232 38.6987 37.2063 38.6342 37.2871 38.5555C37.5514 38.2978 37.7709 38.1257 37.8353 38.1257C37.87 38.1257 37.8985 38.0958 37.8985 38.0591C37.8985 37.9727 38.1912 37.68 38.2776 37.68C38.3142 37.68 38.3442 37.65 38.3442 37.6134C38.3442 37.5424 38.6301 37.2343 38.696 37.2343C38.7469 37.2343 38.9172 37.0641 38.9172 37.0133C38.9172 36.97 39.0038 36.8601 39.2197 36.6292C39.2984 36.5449 39.3629 36.46 39.3629 36.4404C39.3629 36.4208 39.5062 36.2624 39.6813 36.0881C39.8564 35.9139 39.9997 35.7494 39.9997 35.7225C39.9997 35.6956 40.1143 35.5519 40.2544 35.4032C40.3944 35.2545 40.5091 35.092 40.5091 35.0421C40.5091 34.9921 40.5807 34.8949 40.6682 34.8261C40.7558 34.7572 40.8274 34.6548 40.8274 34.5986C40.8274 34.5424 40.8561 34.4963 40.8911 34.4963C40.9261 34.4963 40.9548 34.4656 40.9548 34.4281C40.9548 34.3906 40.9906 34.32 41.0344 34.2711C41.2233 34.0604 41.2731 33.9884 41.2731 33.9259C41.2731 33.8895 41.3018 33.8596 41.3368 33.8596C41.3718 33.8596 41.4005 33.8023 41.4005 33.7323C41.4005 33.6622 41.4291 33.6049 41.4641 33.6049C41.4992 33.6049 41.5278 33.5742 41.5278 33.5367C41.5278 33.4991 41.5637 33.4285 41.6074 33.3797C41.8107 33.1531 41.8462 33.0922 41.8462 32.9708C41.8462 32.8993 41.8687 32.8408 41.8962 32.8408C41.9237 32.8408 42.0311 32.6761 42.1349 32.4747C42.2388 32.2733 42.3452 32.099 42.3715 32.0874C42.3978 32.0757 42.4192 32.0112 42.4192 31.9441C42.4192 31.8769 42.4443 31.8221 42.475 31.8221C42.5056 31.8221 42.5466 31.7433 42.5661 31.647C42.5856 31.5506 42.6608 31.4086 42.7332 31.3313C42.8068 31.2528 42.8649 31.105 42.8649 30.997C42.8649 30.8905 42.8936 30.8033 42.9286 30.8033C42.9636 30.8033 42.9923 30.7477 42.9923 30.6797C42.9923 30.6117 43.0209 30.5384 43.056 30.5168C43.091 30.4951 43.1196 30.4239 43.1196 30.3583C43.1196 30.2929 43.1626 30.1964 43.2152 30.1438C43.2677 30.0913 43.3107 29.989 43.3107 29.9164C43.3107 29.8439 43.3393 29.7845 43.3743 29.7845C43.4094 29.7845 43.438 29.6842 43.438 29.5617C43.438 29.4391 43.4667 29.3388 43.5017 29.3388C43.5367 29.3388 43.5654 29.252 43.5654 29.1458C43.5654 29.033 43.605 28.9376 43.6609 28.9162C43.7231 28.8922 43.7564 28.7932 43.7564 28.6316C43.7564 28.4953 43.785 28.3837 43.82 28.3837C43.8551 28.3837 43.8837 28.2691 43.8837 28.129C43.8837 27.989 43.9124 27.8743 43.9474 27.8743C43.9824 27.8743 44.0121 27.7813 44.0133 27.6674C44.0146 27.5536 44.0565 27.3888 44.1066 27.3013C44.1566 27.2137 44.1986 27.049 44.1999 26.9352C44.2011 26.8213 44.2307 26.7282 44.2658 26.7282C44.3017 26.7282 44.3294 26.5478 44.3294 26.3144C44.3294 26.0809 44.3572 25.9005 44.3931 25.9005C44.429 25.9005 44.4568 25.7198 44.4568 25.4857C44.4568 25.2576 44.4839 25.0212 44.517 24.9604C44.621 24.7695 44.7346 23.3049 44.7378 22.1119C44.7409 20.9283 44.6223 19.3303 44.5168 19.1361C44.4838 19.0753 44.4568 18.8246 44.4568 18.579C44.4568 18.3237 44.4295 18.1324 44.3931 18.1324C44.3581 18.1324 44.3294 17.9748 44.3294 17.7822C44.3294 17.5896 44.3008 17.432 44.2658 17.432C44.2307 17.432 44.2011 17.3246 44.1999 17.1932C44.1986 17.0619 44.1566 16.8828 44.1066 16.7953C44.0565 16.7077 44.0146 16.543 44.0133 16.4291C44.0121 16.3153 43.9824 16.2222 43.9474 16.2222C43.9124 16.2222 43.8837 16.1219 43.8837 15.9993C43.8837 15.8768 43.8551 15.7765 43.82 15.7765C43.785 15.7765 43.7564 15.6506 43.7564 15.4968C43.7564 15.3069 43.7257 15.2053 43.6609 15.1804C43.605 15.159 43.5654 15.0635 43.5654 14.9507C43.5654 14.8446 43.5367 14.7577 43.5017 14.7577C43.4667 14.7577 43.438 14.6574 43.438 14.5349C43.438 14.4123 43.4094 14.312 43.3743 14.312C43.3393 14.312 43.3107 14.2527 43.3107 14.1801C43.3107 14.1076 43.2677 14.0052 43.2152 13.9527C43.1626 13.9002 43.1196 13.8019 43.1196 13.7344C43.1196 13.6669 43.091 13.6116 43.056 13.6116C43.0209 13.6116 42.9923 13.54 42.9923 13.4524C42.9923 13.3649 42.9636 13.2932 42.9286 13.2932C42.8936 13.2932 42.8649 13.2216 42.8649 13.1341C42.8649 13.0465 42.8363 12.9749 42.8013 12.9749C42.7663 12.9749 42.7376 12.9231 42.7376 12.8597C42.7376 12.7963 42.6955 12.6889 42.6441 12.6209C42.5927 12.553 42.5497 12.4472 42.5486 12.3859C42.5475 12.3246 42.5179 12.2745 42.4829 12.2745C42.4479 12.2745 42.4192 12.2172 42.4192 12.1471C42.4192 12.0771 42.3906 12.0198 42.3556 12.0198C42.3205 12.0198 42.2919 11.9768 42.2919 11.9243C42.2919 11.8717 42.2676 11.8288 42.2378 11.8288C42.2081 11.8288 42.1305 11.6998 42.0656 11.5422C42.0006 11.3846 41.9246 11.2557 41.8968 11.2557C41.869 11.2557 41.8462 11.1984 41.8462 11.1284C41.8462 11.0583 41.8206 11.001 41.7894 11.001C41.7582 11.001 41.7146 10.9294 41.6927 10.8418C41.6707 10.7543 41.6246 10.6827 41.5903 10.6827C41.5559 10.6827 41.5278 10.6397 41.5278 10.5871C41.5278 10.5346 41.4992 10.4916 41.4641 10.4916C41.4291 10.4916 41.4005 10.4474 41.4005 10.3933C41.4005 10.3393 41.3288 10.2178 41.2413 10.1234C41.1537 10.029 41.0821 9.91559 41.0821 9.87146C41.0821 9.82734 41.0535 9.79123 41.0184 9.79123C40.9834 9.79123 40.9548 9.74826 40.9548 9.69573C40.9548 9.6432 40.9261 9.60022 40.8911 9.60022C40.8561 9.60022 40.8274 9.54291 40.8274 9.47287C40.8274 9.40283 40.7967 9.34552 40.7592 9.34552C40.6577 9.34552 40.5091 9.17787 40.5091 9.06352C40.5091 9.0085 40.4804 8.96349 40.4454 8.96349C40.4104 8.96349 40.3817 8.93292 40.3817 8.89555C40.3817 8.85817 40.2814 8.73299 40.1589 8.61743C40.0363 8.5018 39.936 8.37375 39.936 8.33281C39.936 8.29187 39.8071 8.133 39.6495 7.97987C39.4919 7.82667 39.3629 7.68328 39.3629 7.66118C39.3629 7.61235 39.2693 7.49723 38.9968 7.21115C38.883 7.09163 38.7899 6.96429 38.7899 6.92806C38.7899 6.89189 38.76 6.86228 38.7233 6.86228C38.6369 6.86228 38.3442 6.56958 38.3442 6.48311C38.3442 6.4465 38.3142 6.41657 38.2776 6.41657C38.2066 6.41657 37.8985 6.13062 37.8985 6.06471C37.8985 6.01295 37.7279 5.84351 37.6758 5.84351C37.6534 5.84351 37.5115 5.71458 37.3606 5.55699C37.2095 5.3994 37.0528 5.27046 37.0123 5.27046C36.9718 5.27046 36.8133 5.14152 36.6602 4.98393C36.507 4.82634 36.3564 4.6974 36.3256 4.6974C36.2947 4.6974 36.1632 4.59712 36.0332 4.47455C35.9033 4.35198 35.754 4.25169 35.7016 4.25169C35.6492 4.25169 35.6062 4.22304 35.6062 4.18802C35.6062 4.153 35.5755 4.12435 35.538 4.12435C35.5005 4.12435 35.4299 4.08856 35.381 4.04476C35.1703 3.85577 35.0983 3.80598 35.0359 3.80598C34.9994 3.80598 34.9695 3.78382 34.9695 3.75676C34.9695 3.7297 34.8692 3.65361 34.7467 3.58758C34.6241 3.52155 34.5238 3.44343 34.5238 3.41395C34.5238 3.3844 34.4665 3.36027 34.3965 3.36027C34.3264 3.36027 34.2691 3.33697 34.2691 3.3085C34.2691 3.27998 34.1688 3.21733 34.0463 3.16925C33.9237 3.12118 33.8234 3.0442 33.8234 2.99816C33.8234 2.95143 33.7532 2.91456 33.6642 2.91456C33.5767 2.91456 33.5049 2.89304 33.5048 2.86681C33.5047 2.84057 33.3471 2.73411 33.1546 2.63026C32.9621 2.52641 32.8046 2.41899 32.8046 2.39149C32.8046 2.36398 32.733 2.3415 32.6454 2.3415C32.5579 2.3415 32.4863 2.31285 32.4863 2.27783C32.4863 2.24281 32.4146 2.21416 32.3271 2.21416C32.2395 2.21416 32.1679 2.19079 32.1679 2.16227C32.1679 2.09102 31.7464 1.89579 31.5927 1.89579C31.5238 1.89579 31.4675 1.86714 31.4675 1.83212C31.4675 1.7971 31.4241 1.76845 31.3711 1.76845C31.274 1.76845 31.228 1.75005 30.8415 1.55635C30.7249 1.4979 30.5887 1.45008 30.5391 1.45008C30.4894 1.45008 30.4487 1.42143 30.4487 1.38641C30.4487 1.35139 30.3484 1.32274 30.2259 1.32274C30.1033 1.32274 30.003 1.29409 30.003 1.25907C30.003 1.22405 29.9188 1.19539 29.8158 1.19539C29.7127 1.19539 29.6128 1.16999 29.5936 1.13891C29.5744 1.10791 29.4581 1.06359 29.3352 1.04054C29.2122 1.01749 29.1116 0.971264 29.1116 0.937836C29.1116 0.904407 28.997 0.877028 28.8569 0.877028C28.7168 0.877028 28.6022 0.848375 28.6022 0.813355C28.6022 0.778335 28.4893 0.749682 28.3513 0.749682C28.2132 0.749682 28.085 0.72485 28.0662 0.694478C28.0474 0.664106 27.8963 0.623928 27.7303 0.605208C27.5643 0.586488 27.418 0.539689 27.4051 0.50123C27.392 0.461944 27.2308 0.431318 27.0369 0.431318C26.8473 0.431318 26.692 0.402665 26.692 0.367645C26.692 0.332243 26.5222 0.303972 26.31 0.303972C26.0999 0.303972 25.928 0.278503 25.928 0.247367C25.928 0.216167 25.62 0.175034 25.2435 0.155869C24.867 0.136639 24.4157 0.0921957 24.2406 0.057112C23.8507 -0.0211421 21.5711 -0.0182132 21.0888 0.061187ZM24.5908 1.38641C24.5908 1.42353 24.8018 1.45008 25.0964 1.45008C25.3746 1.45008 25.6198 1.47874 25.6414 1.51376C25.6631 1.54878 25.8152 1.57775 25.9795 1.57813C26.1437 1.57851 26.4188 1.62149 26.5907 1.67364C26.7626 1.72579 26.9847 1.76845 27.0842 1.76845C27.1837 1.76845 27.2651 1.7971 27.2651 1.83212C27.2651 1.86714 27.394 1.89579 27.5516 1.89579C27.7092 1.89579 27.8381 1.92445 27.8381 1.95947C27.8381 1.99449 27.9671 2.02314 28.1247 2.02314C28.2823 2.02314 28.4112 2.04861 28.4112 2.07975C28.4112 2.11082 28.5115 2.15513 28.6341 2.17812C28.7566 2.20111 28.8569 2.24727 28.8569 2.2807C28.8569 2.31413 28.9858 2.3415 29.1434 2.3415C29.301 2.3415 29.43 2.37016 29.43 2.40518C29.43 2.4402 29.5016 2.46885 29.5891 2.46885C29.6767 2.46885 29.7483 2.4975 29.7483 2.53252C29.7483 2.56754 29.8002 2.5962 29.8635 2.5962C29.9269 2.5962 30.0343 2.63828 30.1023 2.68967C30.1702 2.74112 30.3046 2.7841 30.401 2.78518C30.4973 2.78632 30.5761 2.81587 30.5761 2.85089C30.5761 2.88591 30.6477 2.91456 30.7353 2.91456C30.8228 2.91456 30.8946 2.93608 30.8947 2.96232C30.8948 2.98855 31.0238 3.06305 31.1812 3.1278C31.3387 3.19256 31.4675 3.27138 31.4675 3.3029C31.4675 3.33448 31.5391 3.36027 31.6267 3.36027C31.7142 3.36027 31.7859 3.38892 31.7859 3.42394C31.7859 3.45896 31.8265 3.48762 31.8762 3.48762C31.9898 3.48762 32.358 3.69417 32.3585 3.75823C32.3587 3.78446 32.4306 3.80598 32.5181 3.80598C32.6057 3.80598 32.6773 3.83463 32.6773 3.86965C32.6773 3.90467 32.7346 3.93333 32.8046 3.93333C32.8747 3.93333 32.932 3.95746 32.932 3.987C32.932 4.01648 33.0323 4.09461 33.1548 4.16064C33.2774 4.22667 33.3777 4.30276 33.3777 4.32982C33.3777 4.35688 33.4363 4.37904 33.5079 4.37904C33.5795 4.37904 33.7098 4.45067 33.7974 4.53822C33.8849 4.62577 33.9919 4.6974 34.0351 4.6974C34.0783 4.6974 34.1549 4.75471 34.2054 4.82475C34.2559 4.89479 34.3377 4.95209 34.3873 4.95209C34.4368 4.95209 34.5437 5.02373 34.6249 5.11128C34.706 5.19883 34.8168 5.27046 34.8709 5.27046C34.9252 5.27046 34.9695 5.29911 34.9695 5.33413C34.9695 5.36915 34.9994 5.3978 35.036 5.3978C35.0727 5.3978 35.1716 5.4623 35.2558 5.54107C35.4882 5.75826 35.5967 5.84351 35.6411 5.84351C35.6632 5.84351 35.8066 5.97245 35.9597 6.13004C36.1129 6.28763 36.2679 6.41657 36.304 6.41657C36.3868 6.41657 38.1532 8.17719 38.1532 8.25971C38.1532 8.29314 38.3251 8.49294 38.5352 8.7037C38.7453 8.91446 38.9172 9.11516 38.9172 9.14967C38.9172 9.18418 38.9889 9.28402 39.0764 9.37157C39.164 9.45912 39.2356 9.55017 39.2356 9.57392C39.2356 9.59767 39.2877 9.66344 39.3515 9.72011C39.4153 9.77672 39.5218 9.91622 39.5881 10.03C39.6545 10.1438 39.7312 10.2369 39.7587 10.2369C39.7862 10.2369 39.8086 10.2943 39.8086 10.3643C39.8086 10.4343 39.8373 10.4916 39.8723 10.4916C39.9073 10.4916 39.936 10.5215 39.936 10.558C39.936 10.6204 39.9858 10.6925 40.1748 10.9032C40.2186 10.952 40.2544 11.0226 40.2544 11.0602C40.2544 11.0977 40.283 11.1284 40.318 11.1284C40.3531 11.1284 40.3817 11.1857 40.3817 11.2557C40.3817 11.3258 40.4039 11.3831 40.4309 11.3831C40.458 11.3831 40.5341 11.4833 40.6001 11.6059C40.6661 11.7285 40.7443 11.8288 40.7737 11.8288C40.8033 11.8288 40.8274 11.9004 40.8274 11.988C40.8274 12.0755 40.8532 12.1471 40.8848 12.1471C40.9163 12.1471 40.9951 12.2759 41.0599 12.4334C41.1246 12.5909 41.1991 12.7198 41.2254 12.7199C41.2517 12.7201 41.2731 12.7775 41.2731 12.8475C41.2731 12.9176 41.3018 12.9749 41.3368 12.9749C41.3718 12.9749 41.4005 13.0465 41.4005 13.1341C41.4005 13.2216 41.4236 13.2932 41.4519 13.2932C41.5162 13.2932 41.7188 13.7446 41.7188 13.8877C41.7188 13.946 41.7475 13.9936 41.7825 13.9936C41.8175 13.9936 41.8462 14.0653 41.8462 14.1528C41.8462 14.2404 41.8748 14.312 41.9099 14.312C41.9449 14.312 41.9744 14.3622 41.9756 14.4234C41.9766 14.4847 42.0196 14.5905 42.0711 14.6585C42.1225 14.7265 42.1645 14.8482 42.1645 14.9291C42.1645 15.0099 42.1932 15.0761 42.2282 15.0761C42.2632 15.0761 42.2919 15.162 42.2919 15.2671C42.2919 15.3722 42.3205 15.4581 42.3556 15.4581C42.3906 15.4581 42.4192 15.5529 42.4192 15.6688C42.4192 15.7847 42.4613 15.9351 42.5127 16.0031C42.5642 16.071 42.6071 16.2055 42.6082 16.3018C42.6094 16.3981 42.6389 16.4769 42.6739 16.4769C42.709 16.4769 42.7376 16.5915 42.7376 16.7316C42.7376 16.8717 42.7663 16.9863 42.8013 16.9863C42.8363 16.9863 42.8649 17.1135 42.8649 17.269C42.8649 17.4246 42.8923 17.5687 42.9257 17.5893C42.9591 17.61 43.0057 17.7979 43.0294 18.007C43.053 18.2161 43.0974 18.3871 43.1279 18.3871C43.1584 18.3871 43.1833 18.559 43.1833 18.7691C43.1833 18.9813 43.2116 19.1512 43.247 19.1512C43.286 19.1512 43.3107 19.4589 43.3107 19.9471C43.3107 20.4352 43.3353 20.743 43.3743 20.743C43.415 20.743 43.438 21.2736 43.438 22.2075C43.438 23.1413 43.415 23.6719 43.3743 23.6719C43.3361 23.6719 43.3107 23.9266 43.3107 24.3087C43.3107 24.6907 43.2852 24.9454 43.247 24.9454C43.2116 24.9454 43.1833 25.1152 43.1833 25.3274C43.1833 25.5375 43.158 25.7095 43.127 25.7095C43.0961 25.7095 43.0509 25.8954 43.0266 26.1226C43.0022 26.3499 42.9559 26.5522 42.9237 26.5721C42.8914 26.5921 42.8649 26.7356 42.8649 26.8912C42.8649 27.0467 42.8363 27.1739 42.8013 27.1739C42.7663 27.1739 42.7376 27.2742 42.7376 27.3968C42.7376 27.5194 42.709 27.6196 42.6739 27.6196C42.6389 27.6196 42.6092 27.7127 42.608 27.8266C42.6068 27.9404 42.5648 28.1052 42.5147 28.1927C42.4647 28.2803 42.4227 28.4163 42.4215 28.4952C42.4203 28.574 42.3906 28.6384 42.3556 28.6384C42.3205 28.6384 42.2919 28.7104 42.2919 28.7985C42.2919 28.9584 42.2793 28.9937 42.0798 29.3917C42.0213 29.5084 41.9735 29.6445 41.9735 29.6942C41.9735 29.7438 41.9449 29.7845 41.9099 29.7845C41.8748 29.7845 41.8462 29.8562 41.8462 29.9437C41.8462 30.0313 41.8175 30.1029 41.7825 30.1029C41.7475 30.1029 41.7188 30.1751 41.7188 30.2633C41.7188 30.3516 41.6472 30.5373 41.5597 30.6759C41.4721 30.8146 41.4005 30.9716 41.4005 31.0249C41.4005 31.0781 41.3718 31.1217 41.3368 31.1217C41.3018 31.1217 41.2731 31.1772 41.2731 31.2452C41.2731 31.3132 41.2445 31.3865 41.2095 31.4082C41.1744 31.4298 41.1458 31.5031 41.1458 31.5711C41.1458 31.6391 41.1028 31.6947 41.0503 31.6947C40.9909 31.6947 40.9548 31.7548 40.9548 31.8539C40.9548 31.9414 40.9261 32.0131 40.8911 32.0131C40.8561 32.0131 40.8274 32.0704 40.8274 32.1404C40.8274 32.2105 40.8033 32.2678 40.7737 32.2678C40.7443 32.2678 40.6661 32.3681 40.6001 32.4906C40.5341 32.6132 40.458 32.7135 40.4309 32.7135C40.4039 32.7135 40.3817 32.7708 40.3817 32.8408C40.3817 32.9109 40.3531 32.9682 40.318 32.9682C40.283 32.9682 40.2544 33.0112 40.2544 33.0637C40.2544 33.1162 40.2257 33.1592 40.1907 33.1592C40.1557 33.1592 40.127 33.1953 40.127 33.2394C40.127 33.2835 40.0554 33.3969 39.9678 33.4914C39.8803 33.5857 39.8086 33.7072 39.8086 33.7613C39.8086 33.8153 39.7862 33.8596 39.7587 33.8596C39.7312 33.8596 39.6545 33.9527 39.5881 34.0665C39.5218 34.1804 39.4153 34.3198 39.3515 34.3764C39.2877 34.4331 39.2356 34.4987 39.2356 34.5224C39.2356 34.5634 39.1729 34.6478 38.9968 34.8442C38.9531 34.893 38.9172 34.9509 38.9172 34.973C38.9172 34.9951 38.7883 35.1402 38.6307 35.2955C38.4731 35.4509 38.3442 35.6054 38.3442 35.6389C38.3442 35.7209 36.5191 37.5526 36.4374 37.5526C36.402 37.5526 36.2179 37.7102 36.0283 37.9028C35.8388 38.0954 35.6651 38.253 35.6423 38.253C35.5968 38.253 35.4897 38.3369 35.2558 38.5555C35.1716 38.6342 35.0849 38.6987 35.0634 38.6987C35.0418 38.6987 34.9842 38.7346 34.9353 38.7783C34.7246 38.9673 34.6526 39.0171 34.5901 39.0171C34.5537 39.0171 34.5238 39.0458 34.5238 39.0808C34.5238 39.1158 34.4733 39.1444 34.4115 39.1444C34.3498 39.1444 34.2455 39.2161 34.1798 39.3036C34.1141 39.3912 34.0133 39.4628 33.9559 39.4628C33.8985 39.4628 33.8102 39.5201 33.7597 39.5902C33.7092 39.6602 33.6158 39.7175 33.552 39.7175C33.4437 39.7175 33.3816 39.755 33.1572 39.9563C33.1083 40.0001 33.0377 40.0359 33.0002 40.0359C32.9627 40.0359 32.932 40.0645 32.932 40.0995C32.932 40.1346 32.8747 40.1632 32.8046 40.1632C32.7346 40.1632 32.6773 40.1887 32.6773 40.22C32.6773 40.2512 32.6057 40.2948 32.5181 40.3167C32.4306 40.3387 32.3589 40.3848 32.3589 40.4191C32.3589 40.4535 32.3016 40.4816 32.2316 40.4816C32.1615 40.4816 32.1042 40.5102 32.1042 40.5453C32.1042 40.5803 32.0326 40.6089 31.945 40.6089C31.8575 40.6089 31.7859 40.6376 31.7859 40.6726C31.7859 40.7076 31.7142 40.7363 31.6267 40.7363C31.5276 40.7363 31.4675 40.7724 31.4675 40.8318C31.4675 40.8843 31.4119 40.9273 31.3439 40.9273C31.2759 40.9273 31.2026 40.9559 31.181 40.991C31.1593 41.026 31.086 41.0546 31.018 41.0546C30.95 41.0546 30.8944 41.0833 30.8944 41.1183C30.8944 41.1533 30.7942 41.182 30.6716 41.182C30.549 41.182 30.4487 41.2051 30.4487 41.2334C30.4487 41.2977 29.9974 41.5003 29.8543 41.5003C29.796 41.5003 29.7483 41.529 29.7483 41.564C29.7483 41.599 29.648 41.6277 29.5255 41.6277C29.4029 41.6277 29.3026 41.6563 29.3026 41.6914C29.3026 41.7264 29.2463 41.755 29.1774 41.755C29.1086 41.755 28.9581 41.7946 28.8432 41.8429C28.4971 41.9883 28.1892 42.0734 28.0087 42.0734C27.9149 42.0734 27.8381 42.1021 27.8381 42.1371C27.8381 42.1721 27.7116 42.2007 27.5569 42.2007C27.4022 42.2007 27.265 42.233 27.2518 42.2725C27.2386 42.312 27.0781 42.3587 26.895 42.3762C26.7118 42.3938 26.5466 42.4332 26.5278 42.4637C26.5089 42.4942 26.309 42.5191 26.0834 42.5191C25.8524 42.5191 25.6733 42.5469 25.6733 42.5828C25.6733 42.6207 25.4292 42.6465 25.0684 42.6465C24.7075 42.6465 24.4635 42.6722 24.4635 42.7101C24.4635 42.7511 23.8161 42.7738 22.6488 42.7738C21.4815 42.7738 20.8341 42.7511 20.8341 42.7101C20.8341 42.6722 20.5901 42.6465 20.2292 42.6465C19.8965 42.6465 19.6243 42.6204 19.6243 42.5885C19.6243 42.5566 19.4596 42.5163 19.2582 42.4991C18.7838 42.4585 18.2657 42.3551 18.1046 42.2689C18.0345 42.2314 17.8607 42.2007 17.7184 42.2007C17.576 42.2007 17.4595 42.1721 17.4595 42.1371C17.4595 42.1021 17.3592 42.0734 17.2366 42.0734C17.114 42.0734 17.0137 42.0447 17.0137 42.0097C17.0137 41.9747 16.9207 41.945 16.8068 41.9438C16.693 41.9426 16.5282 41.9006 16.4407 41.8505C16.3531 41.8005 16.2171 41.7585 16.1382 41.7573C16.0594 41.7561 15.995 41.7264 15.995 41.6914C15.995 41.6563 15.9107 41.6277 15.8077 41.6277C15.7047 41.6277 15.6028 41.599 15.5811 41.564C15.5595 41.529 15.4958 41.5003 15.4396 41.5003C15.2994 41.5003 14.8489 41.2968 14.8489 41.2334C14.8489 41.2051 14.7772 41.182 14.6897 41.182C14.6021 41.182 14.5305 41.1533 14.5305 41.1183C14.5305 41.0833 14.4583 41.0546 14.37 41.0546C14.2818 41.0546 14.0961 40.983 13.9574 40.8955C13.8188 40.8079 13.6617 40.7363 13.6085 40.7363C13.5553 40.7363 13.5117 40.7076 13.5117 40.6726C13.5117 40.6376 13.4561 40.6089 13.3881 40.6089C13.3201 40.6089 13.2469 40.5803 13.2252 40.5453C13.2036 40.5102 13.1303 40.4816 13.0623 40.4816C12.9943 40.4816 12.9387 40.4386 12.9387 40.3861C12.9387 40.333 12.8821 40.2906 12.8113 40.2906C12.7413 40.2906 12.684 40.2619 12.684 40.2269C12.684 40.1919 12.641 40.1632 12.5885 40.1632C12.5359 40.1632 12.493 40.1346 12.493 40.0995C12.493 40.0645 12.4345 40.0359 12.3629 40.0359C12.2416 40.0359 12.1807 40.0003 11.9541 39.7971C11.9053 39.7533 11.8347 39.7175 11.7971 39.7175C11.7596 39.7175 11.7289 39.6889 11.7289 39.6538C11.7289 39.6188 11.6716 39.5902 11.6015 39.5902C11.5315 39.5902 11.4742 39.5615 11.4742 39.5265C11.4742 39.4915 11.4381 39.4628 11.394 39.4628C11.3498 39.4628 11.2364 39.3912 11.142 39.3036C11.0477 39.2161 10.9262 39.1444 10.8721 39.1444C10.8181 39.1444 10.7738 39.1158 10.7738 39.0808C10.7738 39.0458 10.7439 39.0171 10.7075 39.0171C10.645 39.0171 10.573 38.9673 10.3623 38.7783C10.3134 38.7346 10.2547 38.6987 10.2318 38.6987C10.2089 38.6987 10.0928 38.5985 9.97369 38.4759C9.85468 38.3533 9.72689 38.253 9.68971 38.253C9.65252 38.253 9.46825 38.0954 9.28022 37.9028C9.0922 37.7102 8.92028 37.5526 8.89825 37.5526C8.77969 37.5526 7.08077 35.8506 7.08077 35.7318C7.08077 35.7114 6.95183 35.5695 6.79424 35.4163C6.63665 35.2631 6.50771 35.1043 6.50771 35.0633C6.50771 35.0224 6.40743 34.8943 6.28486 34.7787C6.16229 34.6631 6.062 34.538 6.062 34.5006C6.062 34.4632 6.03335 34.4327 5.99833 34.4327C5.96331 34.4327 5.93466 34.3753 5.93466 34.3053C5.93466 34.2353 5.89652 34.178 5.84991 34.178C5.8033 34.178 5.72683 34.1063 5.67997 34.0188C5.6331 33.9312 5.57096 33.8596 5.54186 33.8596C5.51276 33.8596 5.48895 33.8153 5.48895 33.7613C5.48895 33.7072 5.41732 33.5857 5.32977 33.4914C5.24222 33.3969 5.17058 33.2835 5.17058 33.2394C5.17058 33.1953 5.14193 33.1592 5.10691 33.1592C5.07189 33.1592 5.04324 33.1019 5.04324 33.0318C5.04324 32.9618 5.01459 32.9045 4.97956 32.9045C4.94454 32.9045 4.91589 32.8615 4.91589 32.809C4.91589 32.7565 4.88781 32.7135 4.85343 32.7135C4.81911 32.7135 4.77301 32.6418 4.75104 32.5543C4.72908 32.4667 4.68552 32.3951 4.65432 32.3951C4.62306 32.3951 4.59753 32.3378 4.59753 32.2678C4.59753 32.1977 4.57473 32.1404 4.54691 32.1404C4.51908 32.1404 4.44312 32.0115 4.37811 31.8539C4.31316 31.6963 4.23561 31.5674 4.20588 31.5674C4.17614 31.5674 4.15182 31.5101 4.15182 31.44C4.15182 31.37 4.12316 31.3127 4.08814 31.3127C4.05312 31.3127 4.02447 31.2554 4.02447 31.1853C4.02447 31.1153 3.99582 31.058 3.9608 31.058C3.92578 31.058 3.89713 31.0027 3.89713 30.9352C3.89713 30.8677 3.85415 30.7694 3.80162 30.7169C3.74909 30.6644 3.70611 30.578 3.70611 30.525C3.70611 30.4721 3.67745 30.4111 3.64243 30.3894C3.60741 30.3678 3.57876 30.2945 3.57876 30.2265C3.57876 30.1585 3.55011 30.1029 3.51509 30.1029C3.48007 30.1029 3.45142 30.0435 3.45142 29.971C3.45142 29.8984 3.40844 29.7961 3.35591 29.7436C3.30338 29.6911 3.2604 29.5785 3.2604 29.4935C3.2604 29.4084 3.23174 29.3388 3.19672 29.3388C3.1617 29.3388 3.13305 29.2529 3.13305 29.1478C3.13305 29.0427 3.1044 28.9568 3.06938 28.9568C3.03436 28.9568 3.0057 28.8565 3.0057 28.7339C3.0057 28.6114 2.97833 28.5111 2.9449 28.5111C2.91147 28.5111 2.86524 28.4105 2.84219 28.2875C2.81914 28.1646 2.77483 28.0482 2.74382 28.0291C2.71275 28.0099 2.68734 27.9116 2.68734 27.8107C2.68734 27.7097 2.65869 27.6095 2.62367 27.5878C2.58865 27.5662 2.55999 27.4356 2.55999 27.2975C2.55999 27.1595 2.53134 27.0466 2.49632 27.0466C2.4613 27.0466 2.43265 26.9597 2.43265 26.8535C2.43265 26.7473 2.38967 26.5576 2.33714 26.4319C2.28461 26.3061 2.24163 26.0922 2.24163 25.9564C2.24163 25.8206 2.21298 25.7095 2.17796 25.7095C2.14084 25.7095 2.11428 25.4972 2.11428 25.2001C2.11428 24.9199 2.08862 24.6907 2.0573 24.6907C1.98318 24.6907 1.91059 23.4092 1.90945 22.0801C1.90824 20.7348 1.98541 19.2785 2.058 19.2785C2.08894 19.2785 2.11428 19.1083 2.11428 18.9002C2.11428 18.6921 2.14294 18.5042 2.17796 18.4826C2.21298 18.4609 2.24163 18.3195 2.24163 18.1682C2.24163 18.017 2.28461 17.7904 2.33714 17.6646C2.38967 17.539 2.43265 17.3635 2.43265 17.2748C2.43265 17.1861 2.4613 17.1136 2.49632 17.1136C2.53134 17.1136 2.55999 16.9847 2.55999 16.8271C2.55999 16.6695 2.58865 16.5406 2.62367 16.5406C2.65869 16.5406 2.68734 16.442 2.68734 16.3215C2.68734 16.2009 2.71275 16.0866 2.74382 16.0675C2.77483 16.0483 2.81914 15.932 2.84219 15.809C2.86524 15.6861 2.91147 15.5855 2.9449 15.5855C2.97833 15.5855 3.0057 15.4852 3.0057 15.3626C3.0057 15.24 3.03436 15.1398 3.06938 15.1398C3.1044 15.1398 3.13305 15.0538 3.13305 14.9487C3.13305 14.8437 3.1617 14.7577 3.19672 14.7577C3.23174 14.7577 3.2604 14.6881 3.2604 14.6031C3.2604 14.5181 3.30338 14.4055 3.35591 14.353C3.40844 14.3004 3.45142 14.1981 3.45142 14.1255C3.45142 14.053 3.48007 13.9936 3.51509 13.9936C3.55011 13.9936 3.57876 13.9363 3.57876 13.8663C3.57876 13.7963 3.60741 13.739 3.64243 13.739C3.67745 13.739 3.70611 13.6796 3.70611 13.6071C3.70611 13.5345 3.74909 13.4322 3.80162 13.3796C3.85415 13.3271 3.89713 13.2289 3.89713 13.1614C3.89713 13.0938 3.92578 13.0386 3.9608 13.0386C3.99582 13.0386 4.02447 12.9669 4.02447 12.8794C4.02447 12.7918 4.04638 12.7202 4.07312 12.7202C4.09986 12.7202 4.17869 12.6013 4.24822 12.4561C4.44974 12.0352 4.49731 11.9561 4.54895 11.9561C4.57569 11.9561 4.59753 11.8988 4.59753 11.8288C4.59753 11.7587 4.62306 11.7014 4.65432 11.7014C4.68552 11.7014 4.72908 11.6298 4.75104 11.5422C4.77301 11.4547 4.81911 11.3831 4.85343 11.3831C4.88781 11.3831 4.91589 11.3401 4.91589 11.2875C4.91589 11.235 4.94454 11.192 4.97956 11.192C5.01459 11.192 5.04324 11.1452 5.04324 11.0881C5.04324 11.0309 5.09647 10.9378 5.16148 10.8811C5.22649 10.8245 5.30009 10.7137 5.32493 10.6349C5.34982 10.5561 5.39688 10.4916 5.42954 10.4916C5.46221 10.4916 5.48895 10.4343 5.48895 10.3643C5.48895 10.2943 5.51276 10.2369 5.54186 10.2369C5.57096 10.2369 5.6331 10.1653 5.67997 10.0778C5.72683 9.99021 5.8033 9.91858 5.84991 9.91858C5.89652 9.91858 5.93466 9.86128 5.93466 9.79123C5.93466 9.72119 5.96331 9.66389 5.99833 9.66389C6.03335 9.66389 6.062 9.6332 6.062 9.5957C6.062 9.50751 6.22399 9.34552 6.31218 9.34552C6.34968 9.34552 6.38037 9.30255 6.38037 9.25002C6.38037 9.19749 6.40902 9.15451 6.44404 9.15451C6.47906 9.15451 6.50771 9.11013 6.50771 9.05588C6.50771 9.00163 6.67963 8.78584 6.88975 8.57636C7.09987 8.36687 7.27179 8.16917 7.27179 8.13695C7.27179 8.06258 8.58676 6.73494 8.66043 6.73494C8.69061 6.73494 8.8943 6.56302 9.11308 6.3529C9.33186 6.14278 9.53715 5.97086 9.5693 5.97086C9.60139 5.97086 9.62769 5.94221 9.62769 5.90719C9.62769 5.87217 9.67067 5.84351 9.7232 5.84351C9.77573 5.84351 9.81871 5.81486 9.81871 5.77984C9.81871 5.74482 9.86169 5.71617 9.91422 5.71617C9.96675 5.71617 10.0097 5.67319 10.0097 5.62066C10.0097 5.56813 10.0527 5.52515 10.1052 5.52515C10.1578 5.52515 10.2007 5.4965 10.2007 5.46148C10.2007 5.42646 10.2437 5.3978 10.2963 5.3978C10.3488 5.3978 10.3918 5.36915 10.3918 5.33413C10.3918 5.29911 10.4347 5.27046 10.4873 5.27046C10.5398 5.27046 10.5828 5.23283 10.5828 5.18686C10.5828 5.14082 10.6831 5.06384 10.8056 5.01577C10.9282 4.96769 11.0285 4.90504 11.0285 4.87651C11.0285 4.84805 11.0584 4.82475 11.0948 4.82475C11.1313 4.82475 11.204 4.78896 11.2562 4.74516C11.3085 4.70141 11.3861 4.63691 11.4287 4.60189C11.4712 4.56687 11.592 4.4953 11.6971 4.44284C11.8021 4.39031 11.9024 4.33237 11.9199 4.31396C12.0085 4.221 12.3094 4.06067 12.3952 4.06067C12.449 4.06067 12.493 4.03202 12.493 3.997C12.493 3.96198 12.5359 3.93333 12.5885 3.93333C12.641 3.93333 12.684 3.90467 12.684 3.86965C12.684 3.83463 12.7413 3.80598 12.8113 3.80598C12.8814 3.80598 12.9389 3.78446 12.9391 3.75823C12.9396 3.69417 13.3078 3.48762 13.4214 3.48762C13.471 3.48762 13.5117 3.45896 13.5117 3.42394C13.5117 3.38892 13.5834 3.36027 13.6709 3.36027C13.7585 3.36027 13.8301 3.33162 13.8301 3.2966C13.8301 3.26158 13.8857 3.23293 13.9537 3.23293C14.0217 3.23293 14.0952 3.20383 14.1172 3.1683C14.1697 3.08342 14.577 2.91456 14.7293 2.91456C14.7951 2.91456 14.8489 2.88591 14.8489 2.85089C14.8489 2.81587 14.8896 2.78722 14.9392 2.78722C14.9889 2.78722 15.125 2.7394 15.2417 2.68095C15.6397 2.48146 15.675 2.46885 15.8349 2.46885C15.923 2.46885 15.995 2.4402 15.995 2.40518C15.995 2.37016 16.0953 2.3415 16.2178 2.3415C16.3404 2.3415 16.4407 2.31877 16.4407 2.29095C16.4407 2.22651 17.0955 2.02314 17.3028 2.02314C17.389 2.02314 17.4595 1.99449 17.4595 1.95947C17.4595 1.92445 17.5884 1.89579 17.746 1.89579C17.9036 1.89579 18.0325 1.86714 18.0325 1.83212C18.0325 1.7971 18.1139 1.76845 18.2134 1.76845C18.3129 1.76845 18.535 1.72579 18.7069 1.67364C18.8788 1.62149 19.1252 1.57851 19.2545 1.57813C19.3837 1.57775 19.5072 1.54878 19.5288 1.51376C19.5505 1.47874 19.8243 1.45008 20.1375 1.45008C20.4746 1.45008 20.7068 1.42411 20.7068 1.38641C20.7068 1.34534 21.3965 1.32274 22.6488 1.32274C23.9011 1.32274 24.5908 1.34534 24.5908 1.38641ZM12.9387 7.56555C12.9387 7.63718 12.867 7.76746 12.7795 7.85501C12.6919 7.94256 12.6203 8.05583 12.6203 8.10677C12.6203 8.15771 12.5917 8.19941 12.5566 8.19941C12.5216 8.19941 12.493 8.25672 12.493 8.32676C12.493 8.3968 12.4643 8.4541 12.4293 8.4541C12.3943 8.4541 12.3656 8.48397 12.3656 8.52045C12.3656 8.58291 12.3158 8.65493 12.1268 8.86562C12.0831 8.91446 12.0473 8.98507 12.0473 9.02264C12.0473 9.06014 12.0186 9.09083 11.9836 9.09083C11.9486 9.09083 11.9199 9.19112 11.9199 9.31369C11.9199 9.43626 11.9486 9.53654 11.9836 9.53654C12.0186 9.53654 12.0473 9.69413 12.0473 9.88674C12.0473 10.0794 12.072 10.2369 12.1021 10.2369C12.1693 10.2369 12.3023 10.8907 12.3451 11.4308C12.3623 11.6497 12.4027 11.8288 12.4347 11.8288C12.4667 11.8288 12.493 12.0007 12.493 12.2108C12.493 12.4209 12.5172 12.5928 12.5469 12.5928C12.6097 12.5928 12.7503 13.395 12.7925 13.9936C12.8085 14.2213 12.8479 14.4348 12.8802 14.468C12.9123 14.5013 12.9387 14.7377 12.9387 14.9933C12.9387 15.2607 12.9657 15.4581 13.0024 15.4581C13.0382 15.4581 13.066 15.6372 13.066 15.8679C13.066 16.0932 13.0984 16.3583 13.138 16.4568C13.2654 16.774 13.3333 17.9202 13.3607 20.2177C13.3787 21.7252 13.3661 22.4621 13.3223 22.4621C13.2864 22.4621 13.257 22.5365 13.257 22.6274C13.257 22.7897 13.0803 23.1739 12.9864 23.2156C12.9601 23.2273 12.9387 23.2644 12.9387 23.2981C12.9387 23.3805 12.6431 23.6719 12.5595 23.6719C12.5229 23.6719 12.493 23.6961 12.493 23.7256C12.493 23.7551 12.3927 23.8332 12.2701 23.8992C12.1475 23.9653 12.0473 24.0414 12.0473 24.0684C12.0473 24.0955 11.9756 24.1176 11.8881 24.1176C11.8005 24.1176 11.7289 24.1463 11.7289 24.1813C11.7289 24.2163 11.6716 24.245 11.6015 24.245C11.5315 24.245 11.4742 24.2699 11.4742 24.3003C11.4742 24.3307 11.353 24.3718 11.205 24.3917C11.0569 24.4116 10.9255 24.4583 10.9131 24.4955C10.9007 24.5329 10.7926 24.5633 10.673 24.5633C10.5534 24.5633 10.4554 24.592 10.4554 24.627C10.4554 24.6634 10.2644 24.6907 10.0097 24.6907C9.75503 24.6907 9.56401 24.718 9.56401 24.7544C9.56401 24.7931 9.27749 24.818 8.83178 24.818C8.38607 24.818 8.09954 24.7931 8.09954 24.7544C8.09954 24.718 7.90852 24.6907 7.65383 24.6907C7.39914 24.6907 7.20812 24.6634 7.20812 24.627C7.20812 24.592 7.1007 24.5625 6.96934 24.5613C6.83805 24.5602 6.67492 24.5172 6.60698 24.4658C6.53898 24.4144 6.43156 24.3723 6.36821 24.3723C6.30485 24.3723 6.25302 24.3437 6.25302 24.3087C6.25302 24.2736 6.18139 24.245 6.09384 24.245C6.00629 24.245 5.93466 24.2163 5.93466 24.1813C5.93466 24.1463 5.88136 24.1176 5.81623 24.1176C5.75109 24.1176 5.64399 24.046 5.57828 23.9585C5.51251 23.8709 5.43483 23.7993 5.4056 23.7993C5.3297 23.7993 5.17058 23.6299 5.17058 23.5491C5.17058 23.5116 5.14193 23.4809 5.10691 23.4809C5.07189 23.4809 5.04324 23.4236 5.04324 23.3536C5.04324 23.2835 5.01777 23.2262 4.98663 23.2262C4.95556 23.2262 4.91124 23.1259 4.88826 23.0034C4.86527 22.8808 4.81911 22.7805 4.78568 22.7805C4.68444 22.7805 4.71246 21.4946 4.82038 21.1887C4.87291 21.0398 4.91589 20.8356 4.91589 20.735C4.91589 20.6343 4.94454 20.552 4.97956 20.552C5.01459 20.552 5.04324 20.423 5.04324 20.2654C5.04324 20.1078 5.07189 19.9789 5.10691 19.9789C5.14193 19.9789 5.17058 19.9369 5.17058 19.8856C5.17058 19.7704 5.37574 19.3182 5.44119 19.2891C5.51123 19.258 5.49945 19.0378 5.42528 18.992C5.39026 18.9703 5.3616 18.985 5.3616 19.0246C5.3616 19.0642 5.32575 19.1365 5.28201 19.1853C5.09303 19.396 5.04324 19.4681 5.04324 19.5305C5.04324 19.567 5.01459 19.5969 4.97956 19.5969C4.94454 19.5969 4.91589 19.6542 4.91589 19.7242C4.91589 19.7942 4.89176 19.8516 4.86222 19.8516C4.83274 19.8516 4.75461 19.9518 4.68858 20.0744C4.62255 20.197 4.54646 20.2973 4.5194 20.2973C4.49234 20.2973 4.47018 20.3689 4.47018 20.4564C4.47018 20.544 4.44153 20.6156 4.40651 20.6156C4.37149 20.6156 4.34284 20.6675 4.34284 20.7308C4.34284 20.7942 4.30075 20.9016 4.24936 20.9696C4.19792 21.0375 4.15494 21.1434 4.15385 21.2046C4.15271 21.2659 4.12316 21.316 4.08814 21.316C4.05312 21.316 4.02447 21.4163 4.02447 21.5389C4.02447 21.6615 3.99582 21.7617 3.9608 21.7617C3.92578 21.7617 3.89713 21.8907 3.89713 22.0483C3.89713 22.2059 3.86847 22.3348 3.83345 22.3348C3.79468 22.3348 3.76978 22.6213 3.76978 23.067C3.76978 23.5127 3.79468 23.7993 3.83345 23.7993C3.86847 23.7993 3.89713 23.9282 3.89713 24.0858C3.89713 24.2434 3.92578 24.3723 3.9608 24.3723C3.99582 24.3723 4.02447 24.4596 4.02447 24.5662C4.02447 24.6846 4.0863 24.8266 4.18365 24.9316C4.2712 25.026 4.34284 25.133 4.34284 25.1695C4.34284 25.2059 4.40014 25.2769 4.47018 25.3274C4.54022 25.3779 4.59753 25.4499 4.59753 25.4874C4.59753 25.6037 5.17377 26.1552 5.29525 26.1552C5.33174 26.1552 5.3616 26.1838 5.3616 26.2188C5.3616 26.2539 5.41891 26.2825 5.48895 26.2825C5.55899 26.2825 5.61629 26.3112 5.61629 26.3462C5.61629 26.3812 5.64616 26.4099 5.68264 26.4099C5.7451 26.4099 5.81712 26.4597 6.02781 26.6486C6.07665 26.6924 6.20457 26.7282 6.31218 26.7282C6.41972 26.7282 6.50771 26.7569 6.50771 26.7919C6.50771 26.8269 6.608 26.8556 6.73057 26.8556C6.85314 26.8556 6.95343 26.8796 6.95343 26.9089C6.95343 26.9723 7.75972 27.1077 8.38607 27.1495C8.7071 27.1709 8.9921 27.141 9.40483 27.0426C9.72001 26.9674 10.0854 26.8916 10.2167 26.8741C10.348 26.8565 10.4554 26.8165 10.4554 26.7852C10.4554 26.7539 10.5127 26.7282 10.5828 26.7282C10.6528 26.7282 10.7101 26.7027 10.7101 26.6714C10.7101 26.6402 10.7818 26.5967 10.8693 26.5747C10.9569 26.5527 11.0285 26.5066 11.0285 26.4723C11.0285 26.4379 11.0858 26.4099 11.1558 26.4099C11.2259 26.4099 11.2832 26.3812 11.2832 26.3462C11.2832 26.3112 11.3262 26.2825 11.3787 26.2825C11.4312 26.2825 11.4742 26.2539 11.4742 26.2188C11.4742 26.1838 11.516 26.1552 11.5672 26.1552C11.6182 26.1552 11.7705 26.0477 11.9055 25.9164C12.0405 25.7851 12.2322 25.6203 12.3314 25.5503C12.5933 25.3654 12.9387 24.9958 12.9387 24.9003C12.9387 24.855 12.9748 24.818 13.0191 24.818C13.0633 24.818 13.1564 24.7422 13.226 24.6495C13.2956 24.5568 13.4456 24.3793 13.5595 24.255C13.6733 24.1308 13.7664 23.9908 13.7664 23.944C13.7664 23.8972 13.8094 23.8424 13.8619 23.8223C13.9145 23.8021 13.9574 23.7314 13.9574 23.6651C13.9574 23.5988 13.9861 23.5446 14.0211 23.5446C14.0561 23.5446 14.0848 23.5016 14.0848 23.4491C14.0848 23.3965 14.1134 23.3536 14.1485 23.3536C14.1835 23.3536 14.2121 23.2954 14.2121 23.2242C14.2121 23.1531 14.2551 23.0784 14.3076 23.0582C14.3666 23.0356 14.4032 22.9389 14.4032 22.8055C14.4032 22.6867 14.4318 22.5895 14.4668 22.5895C14.5079 22.5895 14.5305 21.8997 14.5305 20.6475C14.5305 19.3952 14.5079 18.7054 14.4668 18.7054C14.4275 18.7054 14.4032 18.3807 14.4032 17.8586C14.4032 17.335 14.3768 16.9854 14.3341 16.9427C14.2266 16.8352 14.1346 15.3527 14.1066 13.2773C14.0895 12.0051 14.1026 11.3831 14.1466 11.3831C14.1827 11.3831 14.2121 11.2848 14.2121 11.1647C14.2121 11.0447 14.2551 10.9035 14.3076 10.8509C14.3602 10.7984 14.4032 10.6818 14.4032 10.5917C14.4032 10.5016 14.4318 10.428 14.4668 10.428C14.5018 10.428 14.5305 10.3724 14.5305 10.3044C14.5305 10.2364 14.5592 10.1631 14.5942 10.1414C14.6962 10.0784 14.668 9.9941 14.5305 9.95042C14.4605 9.9282 14.4032 9.85465 14.4032 9.78697C14.4032 9.71928 14.365 9.66389 14.3184 9.66389C14.2718 9.66389 14.1953 9.59226 14.1485 9.50471C14.1016 9.41716 14.0395 9.34552 14.0104 9.34552C13.9813 9.34552 13.9574 9.28822 13.9574 9.21818C13.9574 9.14814 13.9288 9.09083 13.8938 9.09083C13.8588 9.09083 13.8301 9.06014 13.8301 9.02264C13.8301 8.98507 13.7871 8.9114 13.7346 8.85887C13.6821 8.80634 13.6391 8.7081 13.6391 8.6406C13.6391 8.57304 13.6104 8.51778 13.5754 8.51778C13.5404 8.51778 13.5117 8.44614 13.5117 8.35859C13.5117 8.27104 13.4831 8.19941 13.4481 8.19941C13.413 8.19941 13.3844 8.12982 13.3844 8.04475C13.3844 7.95975 13.3414 7.84717 13.2889 7.79464C13.2364 7.74211 13.1934 7.63979 13.1934 7.5672C13.1934 7.47781 13.1524 7.43534 13.066 7.43534C12.9802 7.43534 12.9387 7.47781 12.9387 7.56555ZM24.7818 10.2332C24.7818 10.3012 24.7532 10.3745 24.7182 10.3961C24.6831 10.4178 24.6543 10.5126 24.6541 10.6068C24.6539 10.7011 24.6109 10.8602 24.5586 10.9605C24.5063 11.0609 24.4635 11.2542 24.4635 11.3903C24.4635 11.5264 24.4377 11.6377 24.4062 11.6377C24.3747 11.6377 24.3338 11.7595 24.3153 11.9084C24.2589 12.3625 24.1724 12.7449 24.0932 12.8911C24.0517 12.9676 24.0178 13.118 24.0178 13.2254C24.0178 13.3327 23.9891 13.4206 23.9541 13.4206C23.9187 13.4206 23.8904 13.5904 23.8904 13.8026C23.8904 14.0127 23.8645 14.1847 23.8329 14.1847C23.8013 14.1847 23.761 14.3207 23.7433 14.4871C23.6967 14.9278 23.5638 15.4581 23.4999 15.4581C23.4695 15.4581 23.4447 15.6014 23.4447 15.7765C23.4447 15.9516 23.4188 16.0949 23.3872 16.0949C23.3556 16.0949 23.3148 16.2309 23.2967 16.3973C23.2472 16.8526 23.1587 17.2564 23.0744 17.4119C23.0329 17.4884 22.999 17.6101 22.999 17.6825C22.999 17.7548 22.9703 17.814 22.9353 17.814C22.9003 17.814 22.8717 17.9143 22.8717 18.0369C22.8717 18.1594 22.843 18.2597 22.808 18.2597C22.773 18.2597 22.7434 18.3099 22.7423 18.3712C22.7412 18.4324 22.6982 18.5382 22.6468 18.6062C22.5954 18.6742 22.5533 18.7816 22.5533 18.8449C22.5533 18.9083 22.5246 18.9601 22.4896 18.9601C22.4546 18.9601 22.4259 19.0318 22.4259 19.1193C22.4259 19.2069 22.3973 19.2785 22.3623 19.2785C22.3273 19.2785 22.2985 19.3287 22.2985 19.3899C22.2985 19.4512 22.2268 19.5846 22.1394 19.6864C22.0518 19.7881 21.9802 19.9099 21.9802 19.957C21.9802 20.0041 21.9516 20.0426 21.9166 20.0426C21.8815 20.0426 21.8529 20.0999 21.8529 20.1699C21.8529 20.24 21.8261 20.2973 21.7935 20.2973C21.7608 20.2973 21.718 20.3474 21.6983 20.4087C21.6786 20.4699 21.5765 20.6204 21.4713 20.743C21.3662 20.8655 21.2801 20.986 21.28 21.0107C21.2799 21.0354 21.2082 21.1272 21.1206 21.2147C21.0331 21.3023 20.9615 21.3908 20.9615 21.4114C20.9615 21.4574 20.864 21.5765 20.5953 21.8586C20.4815 21.9781 20.3884 22.0932 20.3884 22.1144C20.3884 22.1785 20.2111 22.3348 20.1382 22.3348C20.1007 22.3348 20.07 22.3647 20.07 22.4013C20.07 22.4714 19.7845 22.7805 19.7198 22.7805C19.6992 22.7805 19.6133 22.845 19.529 22.9238C19.2981 23.1396 19.1882 23.2262 19.1449 23.2262C19.0932 23.2262 18.9239 23.3969 18.9239 23.4491C18.9239 23.5152 18.748 23.6719 18.6738 23.6719C18.6363 23.6719 18.6056 23.7006 18.6056 23.7356C18.6056 23.7706 18.5595 23.7993 18.5033 23.7993C18.4471 23.7993 18.3447 23.8709 18.2758 23.9585C18.207 24.046 18.1017 24.1176 18.0419 24.1176C17.9822 24.1176 17.892 24.1749 17.8415 24.245C17.791 24.315 17.7143 24.3723 17.6712 24.3723C17.6279 24.3723 17.521 24.444 17.4334 24.5315C17.3459 24.6191 17.2286 24.6907 17.1729 24.6907C17.1172 24.6907 17 24.7623 16.9124 24.8499C16.8249 24.9374 16.7116 25.0091 16.6607 25.0091C16.6097 25.0091 16.568 25.0377 16.568 25.0727C16.568 25.1078 16.5107 25.1364 16.4407 25.1364C16.3706 25.1364 16.3133 25.1651 16.3133 25.2001C16.3133 25.2351 16.2417 25.2638 16.1542 25.2638C16.0666 25.2638 15.9948 25.2852 15.9946 25.3115C15.994 25.3756 15.6259 25.5821 15.5123 25.5821C15.4626 25.5821 15.4219 25.6108 15.4219 25.6458C15.4219 25.6808 15.3503 25.7095 15.2627 25.7095C15.1752 25.7095 15.1036 25.7381 15.1036 25.7731C15.1036 25.8082 15.0517 25.8368 14.9884 25.8368C14.925 25.8368 14.8176 25.8789 14.7496 25.9303C14.6817 25.9817 14.5758 26.0247 14.5146 26.0258C14.4533 26.0269 14.4032 26.0565 14.4032 26.0915C14.4032 26.1265 14.3029 26.1552 14.1803 26.1552C14.0577 26.1552 13.9574 26.1838 13.9574 26.2188C13.9574 26.2539 13.8858 26.2825 13.7983 26.2825C13.7107 26.2825 13.6391 26.3112 13.6391 26.3462C13.6391 26.3812 13.5889 26.4101 13.5277 26.4102C13.4664 26.4105 13.3342 26.4535 13.2339 26.5058C13.1335 26.5581 12.9719 26.6009 12.8746 26.6009C12.7258 26.6009 12.6203 26.6955 12.6203 26.829C12.6203 26.8436 13.308 26.8556 14.1485 26.8556C15.1248 26.8556 15.6766 26.8326 15.6766 26.7919C15.6766 26.7565 15.8464 26.7282 16.0587 26.7282C16.2709 26.7282 16.4407 26.7 16.4407 26.6646C16.4407 26.6295 16.5338 26.5999 16.6476 26.5987C16.7615 26.5974 16.9262 26.5554 17.0137 26.5054C17.1013 26.4553 17.266 26.4134 17.3799 26.4121C17.4937 26.4109 17.5868 26.3812 17.5868 26.3462C17.5868 26.3112 17.6584 26.2825 17.746 26.2825C17.8335 26.2825 17.9052 26.2539 17.9052 26.2188C17.9052 26.1838 17.992 26.1552 18.0982 26.1552C18.211 26.1552 18.3064 26.1155 18.3278 26.0597C18.348 26.0071 18.413 25.9642 18.4724 25.9642C18.6092 25.9642 18.9228 25.8203 18.9234 25.7572C18.9237 25.7309 18.9833 25.7095 19.0558 25.7095C19.1284 25.7095 19.2277 25.6737 19.2765 25.6299C19.5009 25.4286 19.563 25.3911 19.6713 25.3911C19.7351 25.3911 19.8285 25.3338 19.879 25.2638C19.9295 25.1937 20.0015 25.1364 20.039 25.1364C20.0765 25.1364 20.2135 25.0361 20.3435 24.9136C20.4734 24.791 20.6051 24.6907 20.6361 24.6907C20.711 24.6907 21.7255 23.6945 21.7255 23.6209C21.7255 23.5893 21.8115 23.4735 21.9166 23.3636C22.0216 23.2537 22.1076 23.1371 22.1076 23.1046C22.1076 23.0146 22.3239 22.6541 22.3782 22.6535C22.4045 22.6534 22.4259 22.6102 22.4259 22.5577C22.4259 22.5051 22.4546 22.4621 22.4896 22.4621C22.5246 22.4621 22.5533 22.4071 22.5533 22.34C22.5533 22.2091 22.7448 21.8075 22.8239 21.7724C22.8502 21.7607 22.8717 21.6819 22.8717 21.5973C22.8717 21.5126 22.9003 21.4434 22.9353 21.4434C22.9703 21.4434 22.999 21.3591 22.999 21.2561C22.999 21.1531 23.0208 21.0554 23.0475 21.0389C23.0741 21.0224 23.1529 20.8202 23.2226 20.5895C23.2922 20.3587 23.3707 20.1699 23.397 20.1699C23.4233 20.1699 23.4447 20.0696 23.4447 19.9471C23.4447 19.8245 23.4734 19.7242 23.5084 19.7242C23.5434 19.7242 23.5721 19.6239 23.5721 19.5014C23.5721 19.3788 23.597 19.2785 23.6273 19.2785C23.6578 19.2785 23.6989 19.1573 23.7188 19.0093C23.7386 18.8612 23.7854 18.7298 23.8226 18.7174C23.8599 18.705 23.8904 18.5683 23.8904 18.4136C23.8904 18.259 23.9191 18.1324 23.9541 18.1324C23.9891 18.1324 24.0178 18.0052 24.0178 17.8496C24.0178 17.6941 24.0464 17.5491 24.0814 17.5275C24.1165 17.5058 24.1451 17.3886 24.1451 17.267C24.1451 17.1454 24.1881 16.943 24.2406 16.8173C24.2932 16.6915 24.3361 16.5062 24.3361 16.4054C24.3361 16.3047 24.3648 16.2222 24.3998 16.2222C24.4348 16.2222 24.4635 16.0646 24.4635 15.872C24.4635 15.6794 24.4921 15.5218 24.5271 15.5218C24.5622 15.5218 24.5908 15.4788 24.5908 15.4263C24.5908 15.3738 24.6338 15.3308 24.6863 15.3308C24.7686 15.3308 24.7818 15.543 24.7818 16.8589C24.7818 17.8352 24.8048 18.3871 24.8455 18.3871C24.8851 18.3871 24.9092 18.7479 24.9092 19.3422C24.9092 19.9364 24.9333 20.2973 24.9729 20.2973C25.0086 20.2973 25.0365 20.4743 25.0365 20.701C25.0365 20.9231 25.0792 21.2454 25.1313 21.4173C25.1835 21.5893 25.2265 21.8213 25.2269 21.9331C25.2272 22.0448 25.2562 22.154 25.2912 22.1756C25.3262 22.1973 25.3549 22.3135 25.3549 22.4341C25.3549 22.5546 25.3836 22.6532 25.4186 22.6532C25.4536 22.6532 25.4822 22.7254 25.4822 22.8136C25.4822 22.9019 25.5539 23.0875 25.6414 23.2262C25.729 23.3649 25.8006 23.5219 25.8006 23.5751C25.8006 23.6284 25.8293 23.6719 25.8643 23.6719C25.8993 23.6719 25.928 23.7135 25.928 23.7643C25.928 23.8707 26.8308 24.818 26.9323 24.818C26.9694 24.818 27.0093 24.8395 27.021 24.8658C27.0545 24.9411 27.4331 25.1364 27.5455 25.1364C27.6014 25.1364 27.6471 25.1651 27.6471 25.2001C27.6471 25.2355 27.8169 25.2638 28.0292 25.2638C28.2414 25.2638 28.4112 25.292 28.4112 25.3274C28.4112 25.3665 28.7189 25.3911 29.2071 25.3911C29.6953 25.3911 30.003 25.3665 30.003 25.3274C30.003 25.2903 30.2152 25.2638 30.5124 25.2638C30.8096 25.2638 31.0218 25.2372 31.0218 25.2001C31.0218 25.1651 31.1444 25.1364 31.2941 25.1364C31.4439 25.1364 31.623 25.0972 31.6921 25.0492C31.8091 24.968 31.9562 24.9329 32.5659 24.8408C32.6972 24.8209 32.8046 24.779 32.8046 24.7477C32.8046 24.7164 32.8977 24.6897 33.0116 24.6885C33.1254 24.6872 33.2901 24.6452 33.3777 24.5952C33.4652 24.5451 33.6014 24.5032 33.6801 24.5019C33.7589 24.5007 33.8234 24.471 33.8234 24.436C33.8234 24.401 33.9237 24.3723 34.0463 24.3723C34.1688 24.3723 34.2691 24.3437 34.2691 24.3087C34.2691 24.2736 34.3694 24.245 34.492 24.245C34.6145 24.245 34.7148 24.2163 34.7148 24.1813C34.7148 24.1463 34.7973 24.1176 34.8981 24.1176C34.9988 24.1176 35.1169 24.0747 35.1605 24.0221C35.2041 23.9696 35.3079 23.9266 35.3912 23.9266C35.4744 23.9266 35.5426 23.898 35.5426 23.8629C35.5426 23.8279 35.6428 23.7993 35.7654 23.7993C35.888 23.7993 35.9883 23.7706 35.9883 23.7356C35.9883 23.7006 36.0862 23.6719 36.2058 23.6719C36.3255 23.6719 36.4334 23.6417 36.4457 23.6049C36.4767 23.5119 36.8989 23.4056 37.3732 23.3715C37.5921 23.3556 37.7711 23.3165 37.7711 23.2845C37.7711 23.1895 39.6633 23.2104 39.7079 23.3058C39.7375 23.3695 39.7524 23.3695 39.7821 23.3058C39.8025 23.2621 39.8696 23.2262 39.9313 23.2262C39.994 23.2262 40.0961 23.1281 40.1633 23.0034C40.2293 22.8808 40.2985 22.7805 40.3169 22.7805C40.3355 22.7805 40.3916 22.6874 40.4418 22.5736C40.492 22.4597 40.5635 22.3318 40.6007 22.2893C40.7872 22.0757 40.8274 22.0164 40.8274 21.9554C40.8274 21.9189 40.8508 21.8891 40.8793 21.8891C40.9078 21.8891 40.979 21.7888 41.0375 21.6662C41.0959 21.5437 41.1728 21.4434 41.2084 21.4434C41.244 21.4434 41.2731 21.3861 41.2731 21.316C41.2731 21.246 41.3018 21.1887 41.3368 21.1887C41.3718 21.1887 41.4005 21.1457 41.4005 21.0932C41.4005 21.0406 41.4363 20.9972 41.4801 20.9967C41.5369 20.996 41.5341 20.9796 41.4706 20.9393C41.4217 20.9083 40.9346 20.8797 40.3882 20.8757C39.8001 20.8713 39.3861 20.8428 39.3736 20.8056C39.3619 20.7712 39.1828 20.743 38.9756 20.743C38.7669 20.743 38.5989 20.7146 38.5989 20.6793C38.5989 20.6443 38.4982 20.6156 38.3751 20.6156C38.2521 20.6156 38.1016 20.5918 38.0408 20.5627C37.98 20.5336 37.8349 20.462 37.7182 20.4035C37.6016 20.3451 37.4654 20.2973 37.4158 20.2973C37.3661 20.2973 37.3254 20.2686 37.3254 20.2336C37.3254 20.1986 37.2819 20.1699 37.2286 20.1699C37.1754 20.1699 37.0184 20.0983 36.8797 20.0107C36.741 19.9232 36.584 19.8516 36.5308 19.8516C36.4775 19.8516 36.434 19.8229 36.434 19.7879C36.434 19.7529 36.391 19.7242 36.3385 19.7242C36.2859 19.7242 36.243 19.6956 36.243 19.6605C36.243 19.6255 36.198 19.5969 36.1429 19.5969C36.0879 19.5969 36.0029 19.5611 35.9541 19.5173C35.7275 19.314 35.6666 19.2785 35.5452 19.2785C35.4737 19.2785 35.4152 19.2498 35.4152 19.2148C35.4152 19.1798 35.3579 19.1512 35.2879 19.1512C35.2178 19.1512 35.1605 19.1231 35.1605 19.0887C35.1605 19.0544 35.0889 19.0083 35.0013 18.9863C34.9138 18.9643 34.8422 18.9208 34.8422 18.8896C34.8422 18.8583 34.7849 18.8328 34.7148 18.8328C34.6448 18.8328 34.5875 18.8041 34.5875 18.7691C34.5875 18.7341 34.5158 18.7054 34.4283 18.7054C34.3407 18.7054 34.2691 18.6768 34.2691 18.6418C34.2691 18.6067 34.2189 18.5772 34.1577 18.5761C34.0964 18.575 33.9906 18.532 33.9227 18.4805C33.8547 18.4292 33.7329 18.3871 33.6521 18.3871C33.5712 18.3871 33.505 18.3584 33.505 18.3234C33.505 18.2884 33.3761 18.2597 33.2185 18.2597C33.0609 18.2597 32.932 18.2311 32.932 18.1961C32.932 18.1568 32.603 18.1324 32.0724 18.1324C31.5418 18.1324 31.2128 18.1568 31.2128 18.1961C31.2128 18.2311 31.1125 18.2597 30.99 18.2597C30.8674 18.2597 30.7671 18.2822 30.7671 18.3097C30.7671 18.3372 30.674 18.4139 30.5602 18.4802C30.4463 18.5466 30.3069 18.653 30.2503 18.7168C30.1936 18.7806 30.1271 18.8328 30.1024 18.8328C30.0489 18.8328 29.8757 18.9994 29.8757 19.0509C29.8757 19.0709 29.7754 19.1935 29.6528 19.3235C29.5302 19.4534 29.43 19.5967 29.43 19.6419C29.43 19.6872 29.4058 19.7242 29.3763 19.7242C29.3468 19.7242 29.2687 19.8245 29.2027 19.9471C29.1366 20.0696 29.0605 20.1699 29.0335 20.1699C29.0064 20.1699 28.9843 20.2272 28.9843 20.2973C28.9843 20.3673 28.9556 20.4246 28.9206 20.4246C28.8856 20.4246 28.8569 20.4676 28.8569 20.5201C28.8569 20.5727 28.8283 20.6156 28.7932 20.6156C28.7582 20.6156 28.7296 20.6563 28.7296 20.706C28.7296 20.8196 28.523 21.1877 28.459 21.1883C28.4327 21.1885 28.4112 21.289 28.4112 21.4115C28.4112 21.5341 28.3825 21.6344 28.3475 21.6344C28.3125 21.6344 28.2839 21.6917 28.2839 21.7617C28.2839 21.9424 28.3219 21.9249 28.6307 21.6026C28.7818 21.445 28.9517 21.316 29.0085 21.316C29.0652 21.316 29.1116 21.2874 29.1116 21.2524C29.1116 21.2173 29.1546 21.1887 29.2071 21.1887C29.2596 21.1887 29.3026 21.1457 29.3026 21.0932C29.3026 21.0401 29.3592 20.9977 29.43 20.9977C29.5 20.9977 29.5573 20.969 29.5573 20.934C29.5573 20.899 29.6289 20.8703 29.7165 20.8703C29.804 20.8703 29.8757 20.8417 29.8757 20.8066C29.8757 20.7716 29.9306 20.743 29.9977 20.743C30.0648 20.743 30.1293 20.7152 30.141 20.6811C30.1527 20.6471 30.3905 20.5756 30.6697 20.5223C31.0549 20.4487 31.2619 20.4405 31.5293 20.4883C31.7229 20.5229 31.9889 20.567 32.1201 20.5863C32.2515 20.6056 32.3589 20.6487 32.3589 20.6822C32.3589 20.7156 32.4879 20.743 32.6454 20.743C32.803 20.743 32.932 20.7716 32.932 20.8066C32.932 20.8417 32.9821 20.8708 33.0434 20.8713C33.1723 20.8724 33.5377 20.9982 33.7396 21.111C33.8161 21.1537 33.9379 21.1887 34.0102 21.1887C34.0825 21.1887 34.1418 21.2173 34.1418 21.2524C34.1418 21.2874 34.1991 21.316 34.2691 21.316C34.3391 21.316 34.3965 21.3447 34.3965 21.3797C34.3965 21.4147 34.466 21.4434 34.5511 21.4434C34.6361 21.4434 34.7487 21.4864 34.8012 21.5389C34.8538 21.5914 34.9387 21.6344 34.99 21.6344C35.0413 21.6344 35.1 21.678 35.1204 21.7314C35.1632 21.8428 34.9523 22.0801 34.8103 22.0801C34.7578 22.0801 34.7148 22.1088 34.7148 22.1438C34.7148 22.1788 34.6718 22.2075 34.6193 22.2075C34.5668 22.2075 34.5238 22.2361 34.5238 22.2711C34.5238 22.3061 34.4788 22.3348 34.4238 22.3348C34.3687 22.3348 34.2807 22.3778 34.2282 22.4303C34.1756 22.4828 34.0631 22.5258 33.9781 22.5258C33.893 22.5258 33.8234 22.5545 33.8234 22.5895C33.8234 22.6245 33.7518 22.6532 33.6642 22.6532C33.5767 22.6532 33.505 22.6818 33.505 22.7168C33.505 22.7519 33.4248 22.7805 33.3267 22.7805C33.2287 22.7805 33.1213 22.8077 33.088 22.8409C33.0052 22.9235 32.3605 23.0428 31.8018 23.079C31.5479 23.0955 31.3402 23.1353 31.3402 23.1676C31.3402 23.2013 30.8128 23.2262 30.0985 23.2262C29.3133 23.2262 28.8569 23.2028 28.8569 23.1625C28.8569 23.1266 28.6772 23.0989 28.4452 23.0989C28.1873 23.0989 27.9435 23.0572 27.7926 22.9874C27.4988 22.8516 26.9467 22.3273 26.9467 22.1841C26.9467 22.1269 26.9221 22.0801 26.8921 22.0801C26.7999 22.0801 26.501 21.443 26.501 21.2465C26.501 21.1446 26.4724 21.0613 26.4373 21.0613C26.4023 21.0613 26.3737 20.9668 26.3737 20.8512C26.3737 20.7357 26.3465 20.6138 26.3133 20.5806C26.2248 20.4919 26.1084 19.8325 26.075 19.2307C26.0591 18.9418 26.0194 18.7054 25.987 18.7054C25.953 18.7054 25.928 18.2327 25.928 17.5912C25.928 16.8908 25.9043 16.4769 25.8643 16.4769C25.8235 16.4769 25.7987 15.8631 25.7953 14.7736C25.7923 13.8369 25.7637 12.8985 25.7316 12.6884C25.6996 12.4782 25.6553 12.0986 25.6331 11.8447C25.611 11.5908 25.5679 11.3831 25.5375 11.3831C25.5071 11.3831 25.4822 11.2541 25.4822 11.0965C25.4822 10.9389 25.4536 10.81 25.4186 10.81C25.3836 10.81 25.3549 10.7507 25.3549 10.6781C25.3549 10.6055 25.3191 10.5088 25.2753 10.463C25.2316 10.4173 25.1536 10.3191 25.1021 10.2448C24.9831 10.0731 24.7818 10.0658 24.7818 10.2332ZM14.9762 13.0067C14.9762 13.8345 14.9995 14.312 15.0399 14.312C15.0749 14.312 15.1036 14.3816 15.1036 14.4667C15.1036 14.5517 15.1465 14.6642 15.1991 14.7168C15.2516 14.7693 15.2946 14.8573 15.2946 14.9124C15.2946 14.9674 15.3232 15.0124 15.3583 15.0124C15.3933 15.0124 15.4219 15.0431 15.4219 15.0806C15.4219 15.1688 15.5839 15.3308 15.6721 15.3308C15.7096 15.3308 15.7403 15.3594 15.7403 15.3945C15.7403 15.4295 15.7976 15.4581 15.8676 15.4581C15.9377 15.4581 15.995 15.4837 15.995 15.5149C15.995 15.5461 16.0666 15.5897 16.1542 15.6116C16.2417 15.6336 16.3133 15.6797 16.3133 15.714C16.3133 15.7484 16.4136 15.7765 16.5362 15.7765C16.6588 15.7765 16.7591 15.8051 16.7591 15.8402C16.7591 15.8752 16.8067 15.9038 16.865 15.9038C17.0081 15.9038 17.4595 16.1065 17.4595 16.1707C17.4595 16.1991 17.5534 16.2222 17.6682 16.2222C17.804 16.2222 17.9092 16.2668 17.9688 16.3495C18.0193 16.4196 18.1076 16.4769 18.165 16.4769C18.2224 16.4769 18.3232 16.5485 18.3889 16.6361C18.4547 16.7236 18.5315 16.7953 18.5597 16.7953C18.7058 16.7953 19.3694 17.515 19.3696 17.6736C19.3696 17.719 19.4413 17.8278 19.5288 17.9153C19.6164 18.0029 19.688 18.1162 19.688 18.1671C19.688 18.218 19.7167 18.2597 19.7517 18.2597C19.7867 18.2597 19.8154 18.317 19.8154 18.3871C19.8154 18.4571 19.844 18.5144 19.879 18.5144C19.914 18.5144 19.9427 18.5861 19.9427 18.6736C19.9427 18.7612 19.9714 18.8328 20.0064 18.8328C20.0414 18.8328 20.07 18.8735 20.07 18.9231C20.07 18.9728 20.1179 19.1089 20.1763 19.2256C20.3735 19.6191 20.3884 19.6585 20.3884 19.787C20.3884 19.8575 20.4171 19.9152 20.4521 19.9152C20.4871 19.9152 20.5158 20.0298 20.5158 20.1699C20.5158 20.3862 20.5359 20.4246 20.6495 20.4246C20.7804 20.4246 20.7824 20.4074 20.7446 19.6128C20.6875 18.4138 20.6392 17.9414 20.574 17.9414C20.542 17.9414 20.5158 17.8124 20.5158 17.6548C20.5158 17.4972 20.4871 17.3683 20.4521 17.3683C20.4171 17.3683 20.3884 17.2833 20.3884 17.1795C20.3884 16.9902 20.2074 16.5273 20.1178 16.4875C20.0915 16.4758 20.07 16.4114 20.07 16.3443C20.07 16.2771 20.0414 16.2222 20.0064 16.2222C19.9714 16.2222 19.9427 16.1506 19.9427 16.063C19.9427 15.9755 19.914 15.9038 19.879 15.9038C19.844 15.9038 19.8154 15.8496 19.8154 15.7833C19.8154 15.717 19.7724 15.6463 19.7198 15.6261C19.6673 15.606 19.6243 15.5313 19.6243 15.4601C19.6243 15.389 19.5957 15.3308 19.5607 15.3308C19.5256 15.3308 19.497 15.2878 19.497 15.2353C19.497 15.1827 19.4683 15.1398 19.4333 15.1398C19.3983 15.1398 19.3696 15.0825 19.3696 15.0124C19.3696 14.9424 19.339 14.8851 19.3014 14.8851C19.2 14.8851 19.0513 14.7174 19.0513 14.6031C19.0513 14.548 19.0226 14.503 18.9876 14.503C18.9526 14.503 18.9239 14.4601 18.9239 14.4075C18.9239 14.355 18.894 14.312 18.8574 14.312C18.7863 14.312 18.4782 14.0261 18.4782 13.9602C18.4782 13.9083 18.3076 13.739 18.2554 13.739C18.2023 13.739 18.0325 13.5692 18.0325 13.5161C18.0325 13.45 17.8566 13.2932 17.7823 13.2932C17.7448 13.2932 17.7141 13.2646 17.7141 13.2296C17.7141 13.1946 17.6568 13.1659 17.5868 13.1659C17.5168 13.1659 17.4595 13.1253 17.4595 13.0757C17.4595 13.0261 17.3735 12.9475 17.2684 12.901C17.1634 12.8545 17.0774 12.7948 17.0774 12.7683C17.0774 12.7418 17.0344 12.7202 16.9819 12.7202C16.9294 12.7202 16.8864 12.6915 16.8864 12.6565C16.8864 12.6215 16.8503 12.5928 16.8062 12.5928C16.762 12.5928 16.6486 12.5212 16.5542 12.4337C16.4599 12.3461 16.324 12.2745 16.2525 12.2745C16.1809 12.2745 16.1223 12.2458 16.1223 12.2108C16.1223 12.1758 16.0816 12.1471 16.032 12.1471C15.9184 12.1471 15.5502 11.9406 15.5497 11.8765C15.5495 11.8503 15.449 11.8288 15.3264 11.8288C15.2038 11.8288 15.1036 11.8001 15.1036 11.7651C15.1036 11.7301 15.0749 11.7014 15.0399 11.7014C14.9995 11.7014 14.9762 12.179 14.9762 13.0067ZM19.0855 29.9278C19.0591 30.0241 19.0119 30.1029 18.9807 30.1029C18.9495 30.1029 18.9239 30.1889 18.9239 30.2939C18.9239 30.399 18.8953 30.4849 18.8603 30.4849C18.8252 30.4849 18.7966 30.5548 18.7966 30.6404C18.7966 30.7259 18.7679 30.8135 18.7329 30.8351C18.6979 30.8568 18.6692 30.928 18.6692 30.9935C18.6692 31.059 18.6263 31.1555 18.5737 31.2081C18.5212 31.2606 18.4782 31.3629 18.4782 31.4355C18.4782 31.508 18.4496 31.5674 18.4146 31.5674C18.3795 31.5674 18.3509 31.6533 18.3509 31.7584C18.3509 31.8634 18.3222 31.9494 18.2872 31.9494C18.2522 31.9494 18.2235 32.019 18.2235 32.1041C18.2235 32.1891 18.1806 32.3016 18.128 32.3542C18.0755 32.4067 18.0325 32.509 18.0325 32.5816C18.0325 32.6541 18.0039 32.7135 17.9688 32.7135C17.9338 32.7135 17.9052 32.7834 17.9052 32.8689C17.9052 32.9544 17.8765 33.042 17.8415 33.0637C17.8065 33.0853 17.7778 33.1694 17.7778 33.2507C17.7778 33.3319 17.7348 33.4339 17.6823 33.4776C17.6298 33.5212 17.5868 33.625 17.5868 33.7082C17.5868 33.7915 17.5581 33.8596 17.5231 33.8596C17.4881 33.8596 17.4595 33.9312 17.4595 34.0188C17.4595 34.1063 17.4308 34.178 17.3958 34.178C17.3608 34.178 17.3321 34.2473 17.3321 34.332C17.3321 34.4167 17.2842 34.5695 17.2256 34.6715C17.1671 34.7734 17.1376 34.9047 17.16 34.9632C17.2108 35.0956 17.4595 35.1045 17.4595 34.9739C17.4595 34.9213 17.4881 34.8784 17.5231 34.8784C17.5581 34.8784 17.5868 34.7948 17.5868 34.6926C17.5868 34.5905 17.6083 34.4974 17.6346 34.4857C17.7089 34.4526 17.9052 33.997 17.9052 33.8574C17.9052 33.7386 17.9531 33.7323 18.8603 33.7323H19.8154V33.8914C19.8154 33.979 19.844 34.0506 19.879 34.0506C19.914 34.0506 19.9427 34.1366 19.9427 34.2416C19.9427 34.3467 19.9714 34.4327 20.0064 34.4327C20.0414 34.4327 20.07 34.5043 20.07 34.5918C20.07 34.6909 20.1061 34.751 20.1656 34.751C20.225 34.751 20.2611 34.8111 20.2611 34.9102C20.2611 35.0658 20.2717 35.0694 20.7386 35.0694C21.2055 35.0694 21.2162 35.0658 21.2162 34.9102C21.2162 34.8226 21.1875 34.751 21.1525 34.751C21.1175 34.751 21.0888 34.6794 21.0888 34.5918C21.0888 34.5043 21.0602 34.4327 21.0251 34.4327C20.9901 34.4327 20.9615 34.3753 20.9615 34.3053C20.9615 34.2353 20.9328 34.178 20.8978 34.178C20.8628 34.178 20.8341 34.1216 20.8341 34.0528C20.8341 33.9132 20.6379 33.4576 20.5635 33.4245C20.5372 33.4128 20.5158 33.3197 20.5158 33.2176C20.5158 33.1155 20.4871 33.0318 20.4521 33.0318C20.4171 33.0318 20.3884 32.9602 20.3884 32.8727C20.3884 32.7851 20.361 32.7135 20.3276 32.7135C20.2942 32.7135 20.248 32.6132 20.225 32.4906C20.202 32.3681 20.1577 32.2678 20.1267 32.2678C20.0955 32.2678 20.07 32.2105 20.07 32.1404C20.07 32.0704 20.0414 32.0131 20.0064 32.0131C19.9714 32.0131 19.9427 31.9128 19.9427 31.7902C19.9427 31.6677 19.9172 31.5674 19.8859 31.5674C19.8547 31.5674 19.8112 31.4957 19.7892 31.4082C19.7672 31.3206 19.7211 31.249 19.6868 31.249C19.6524 31.249 19.6243 31.1774 19.6243 31.0898C19.6243 31.0023 19.5957 30.9306 19.5607 30.9306C19.5256 30.9306 19.497 30.8447 19.497 30.7396C19.497 30.6346 19.4683 30.5486 19.4333 30.5486C19.3983 30.5486 19.3696 30.4794 19.3696 30.3947C19.3696 30.3101 19.3387 30.2306 19.3008 30.2179C19.263 30.2053 19.2099 30.0954 19.1828 29.9738L19.1335 29.7527L19.0855 29.9278ZM26.9467 30.0711C26.9467 30.1586 26.9181 30.2302 26.883 30.2302C26.848 30.2302 26.8194 30.3305 26.8194 30.4531C26.8194 30.5757 26.7907 30.6759 26.7557 30.6759C26.7207 30.6759 26.692 30.7278 26.692 30.7911C26.692 30.8545 26.6499 30.9619 26.5986 31.0299C26.5471 31.0978 26.5041 31.2037 26.503 31.2649C26.5019 31.3262 26.4724 31.3764 26.4373 31.3764C26.4023 31.3764 26.3737 31.448 26.3737 31.5355C26.3737 31.6231 26.345 31.6947 26.31 31.6947C26.275 31.6947 26.2463 31.795 26.2463 31.9176C26.2463 32.0401 26.2177 32.1404 26.1826 32.1404C26.1476 32.1404 26.119 32.1957 26.119 32.2633C26.119 32.3307 26.076 32.429 26.0235 32.4815C25.9709 32.5341 25.928 32.6364 25.928 32.709C25.928 32.7815 25.8993 32.8408 25.8643 32.8408C25.8293 32.8408 25.8002 32.891 25.7997 32.9523C25.7981 33.1301 25.6296 33.5664 25.5526 33.592C25.5139 33.605 25.4822 33.6991 25.4822 33.8012C25.4822 33.9034 25.4536 33.9869 25.4186 33.9869C25.3836 33.9869 25.3549 34.0569 25.3549 34.1424C25.3549 34.2279 25.3262 34.3155 25.2912 34.3371C25.2562 34.3588 25.2276 34.43 25.2276 34.4956C25.2276 34.561 25.1846 34.6575 25.132 34.7101C24.9962 34.8459 25.0139 34.9849 25.1722 35.0263C25.3088 35.0621 25.4822 34.9462 25.4822 34.8192C25.4822 34.7817 25.5077 34.751 25.5387 34.751C25.5697 34.751 25.6106 34.6723 25.6295 34.5759C25.6842 34.2966 25.8274 33.9233 25.8799 33.9233C25.9063 33.9233 25.928 33.8803 25.928 33.8278C25.928 33.7475 26.068 33.7323 26.8066 33.7323C27.7377 33.7323 27.8381 33.7614 27.8381 34.0315C27.8381 34.1121 27.8668 34.178 27.9018 34.178C27.9368 34.178 27.9655 34.2461 27.9655 34.3294C27.9655 34.4126 28.0085 34.5164 28.061 34.56C28.1135 34.6036 28.1574 34.6859 28.1585 34.7429C28.1633 34.9857 28.3145 35.0694 28.7487 35.0694C29.1419 35.0694 29.3238 35.002 29.1763 34.9108C29.1407 34.8889 29.1116 34.8153 29.1116 34.7473C29.1116 34.6793 29.0829 34.6237 29.0479 34.6237C29.0129 34.6237 28.9843 34.552 28.9843 34.4645C28.9843 34.3769 28.9556 34.3053 28.9206 34.3053C28.8856 34.3053 28.8569 34.2218 28.8569 34.1196C28.8569 34.0174 28.8355 33.9244 28.8092 33.9126C28.7212 33.8735 28.5385 33.469 28.5385 33.3132C28.5385 33.2285 28.5099 33.1592 28.4749 33.1592C28.4399 33.1592 28.4112 33.0876 28.4112 33C28.4112 32.9125 28.3825 32.8408 28.3475 32.8408C28.3125 32.8408 28.2839 32.7856 28.2839 32.718C28.2839 32.6505 28.2409 32.5523 28.1883 32.4997C28.1358 32.4472 28.0928 32.3449 28.0928 32.2723C28.0928 32.1998 28.0642 32.1404 28.0292 32.1404C27.9941 32.1404 27.9655 32.0688 27.9655 31.9812C27.9655 31.8937 27.9368 31.8221 27.9018 31.8221C27.8668 31.8221 27.8381 31.7539 27.8381 31.6706C27.8381 31.5874 27.7952 31.4836 27.7426 31.44C27.6901 31.3964 27.6471 31.3069 27.6471 31.2412C27.6471 31.1755 27.6185 31.1217 27.5834 31.1217C27.5484 31.1217 27.5198 31.05 27.5198 30.9625C27.5198 30.8749 27.4911 30.8033 27.4561 30.8033C27.4211 30.8033 27.3924 30.7173 27.3924 30.6123C27.3924 30.5072 27.3669 30.4213 27.3356 30.4213C27.3044 30.4213 27.2592 30.3426 27.235 30.2465C27.1517 29.9147 26.9467 29.7899 26.9467 30.0711ZM12.493 32.5254V35.0752L12.9228 35.0564L13.3526 35.0375L13.3652 33.8914C13.3722 33.2611 13.3794 32.7095 13.3811 32.6657C13.3836 32.6056 13.6269 32.5861 14.3758 32.5861C15.2171 32.5861 15.3835 32.6022 15.4737 32.6925C15.551 32.7698 15.5584 32.8059 15.5009 32.8251C15.4422 32.8446 15.4219 33.1262 15.4219 33.9217C15.4219 34.839 15.4363 34.9976 15.5227 35.0307C15.6513 35.0801 16.111 35.0792 16.2974 35.0293L16.4407 34.9909V32.5742C16.4407 30.5646 16.4253 30.1421 16.3497 30.0665C16.2945 30.0113 16.1302 29.9755 15.9313 29.9755C15.4282 29.9755 15.4219 29.9908 15.4219 31.2126V32.2678H14.4032H13.3844V31.1981C13.3844 30.451 13.3613 30.1053 13.308 30.052C13.266 30.0099 13.0654 29.9755 12.8623 29.9755H12.493V32.5254ZM21.9802 32.5194V35.0633L23.3014 35.0398C24.0281 35.027 24.6872 35.014 24.7659 35.0111C24.8815 35.0067 24.9092 34.9687 24.9092 34.8147V34.6237H23.8904H22.8717V32.3383C22.8717 29.7576 22.9221 29.9755 22.3252 29.9755H21.9802V32.5194ZM29.9553 30.0177C29.8935 30.0427 29.8757 30.6082 29.8756 32.5437V35.0375L31.3242 35.0211L32.7728 35.0047L32.7927 34.8142L32.8127 34.6237H31.7899C31.1505 34.6237 30.7671 34.5998 30.7671 34.56C30.7671 34.525 30.7957 34.4963 30.8308 34.4963C30.8706 34.4963 30.8944 34.1037 30.8944 33.4457C30.8944 32.7878 30.8706 32.3951 30.8308 32.3951C30.7905 32.3951 30.7671 31.9494 30.7671 31.1853V29.9755L30.401 29.9806C30.1996 29.9833 29.9991 30.0001 29.9553 30.0177ZM18.9603 31.7857C19.0103 31.8357 19.0513 31.9237 19.0513 31.9812C19.0513 32.0388 19.0943 32.1288 19.1468 32.1814C19.1993 32.2339 19.2423 32.3304 19.2423 32.3959C19.2423 32.4614 19.271 32.5327 19.306 32.5543C19.341 32.5759 19.3696 32.6492 19.3696 32.7172C19.3696 32.7852 19.3983 32.8408 19.4333 32.8408C19.4683 32.8408 19.497 32.91 19.497 32.9947C19.497 33.0793 19.5328 33.1607 19.5766 33.1754C19.6394 33.1965 19.6386 33.2235 19.5726 33.3033C19.5031 33.3877 19.3861 33.399 18.8722 33.3714C18.533 33.3531 18.2296 33.3137 18.1981 33.2838C18.1647 33.252 18.1845 33.1629 18.2459 33.0692C18.3036 32.9811 18.3509 32.865 18.3509 32.8112C18.3509 32.7575 18.3795 32.7135 18.4146 32.7135C18.4496 32.7135 18.4782 32.6132 18.4782 32.4906C18.4782 32.3681 18.5069 32.2678 18.5419 32.2678C18.5769 32.2678 18.6056 32.2122 18.6056 32.1442C18.6056 32.0762 18.6342 32.0029 18.6692 31.9812C18.7043 31.9596 18.7329 31.8863 18.7329 31.8183C18.7329 31.6725 18.8328 31.6582 18.9603 31.7857ZM26.9467 31.8266C26.9467 31.8992 26.9897 32.0015 27.0422 32.054C27.0948 32.1066 27.1377 32.2031 27.1377 32.2685C27.1377 32.3341 27.1664 32.4053 27.2014 32.427C27.2364 32.4486 27.2651 32.5219 27.2651 32.5899C27.2651 32.6579 27.2937 32.7135 27.3288 32.7135C27.3638 32.7135 27.3924 32.7851 27.3924 32.8727C27.3924 32.9602 27.4211 33.0318 27.4561 33.0318C27.4911 33.0318 27.5197 33.1106 27.5197 33.2069L27.5196 33.382L26.8841 33.38C26.5346 33.3789 26.2197 33.3491 26.1844 33.3137C26.1146 33.2439 26.2336 32.8408 26.3239 32.8408C26.3513 32.8408 26.3737 32.7692 26.3737 32.6816C26.3737 32.5941 26.4023 32.5225 26.4373 32.5225C26.4724 32.5225 26.501 32.4365 26.501 32.3314C26.501 32.2264 26.5297 32.1404 26.5647 32.1404C26.5997 32.1404 26.6284 32.0855 26.6284 32.0183C26.6284 31.8119 26.7 31.6947 26.8262 31.6947C26.9057 31.6947 26.9467 31.7397 26.9467 31.8266Z" fill="#007C00"/>
</svg>
