<svg xmlns="http://www.w3.org/2000/svg" viewBox="0 0 543.61 482.46"><defs><style>.cls-1{fill:#fff;}.cls-2{fill:#ffdd2d;}.cls-2,.cls-3{fill-rule:evenodd;}</style></defs><title>Ресурс 2</title><g id="Слой_2" data-name="Слой 2"><g id="Слой_1-2" data-name="Слой 1"><path class="cls-1" d="M536.86,176.2a26.9,26.9,0,0,1-3.58-4.8c-.63-1-1.32-2-2.09-3.14a32.77,32.77,0,0,0,5.26-8.39l5.4-12.33-13.31-1.91c-2.24-.33-5.86-1.28-10.1-2.4-8.16-2.14-18.64-4.9-30.07-6.1a20.33,20.33,0,0,0,9.54-9l2.19-4s-.58-5.53-2.72-7.27a25.25,25.25,0,0,0,1.88-5.66l1.81-8.83-8.52-2.91a23.35,23.35,0,0,0-3.95-1,27.91,27.91,0,0,0-2.17-5.12l-5.05-9.27-9.1,5.34A24.1,24.1,0,0,0,466.54,94a23.82,23.82,0,0,0-4.33-.38,26.6,26.6,0,0,0-10.95,1.51l-7.34-7.63-8.7-9.29c-8.13-8.7-19.15-11.28-30.37-7-4.29-4.29-11-7.84-21.35-7.84a63.78,63.78,0,0,0-8.42.67s-14.28,2.6-22.31,10.23L343,69.66c-6.53,10.29-17.7,13.55-17.7,13.55a24.68,24.68,0,0,0-3.93-8.39l.64-3.63a69.88,69.88,0,0,1,8.87-22.78l11.63-18.12-16.47,1.86a45.72,45.72,0,0,0-.26-5.87L324.33,12.2,311.43,18c-1.43.64-2.63,1.28-3.75,1.86l-2.55-5.43-5.92,3.06a48.36,48.36,0,0,0-2.4-5L290,0l-9.66,10.44a36,36,0,0,0-2.55,3L271.92,7.6,266,13.47c-.75-.94-1.56-1.94-2.56-3L253.69,0l-6.84,12.55a48.45,48.45,0,0,0-2.37,5l-5.89-3.07L236,19.93c-1.12-.59-2.32-1.23-3.75-1.89l-13-5.82L217.9,26.36a44.5,44.5,0,0,0-.25,5.82l-16.5-1.86L212.8,48.43a68.62,68.62,0,0,1,8.85,22.76l.62,3.63a24.26,24.26,0,0,0-3.93,8.42s-10.56-4.52-17.62-13.58l-9.95,4.75c-11.35-7.66-18.39-10.64-30.63-11-10.38-.28-17.06,3.55-21.35,7.84-11.25-4.27-22.24-1.69-30.35,7,0,0-5.33,5.79-8.69,9.29A44.85,44.85,0,0,1,91.41,94a36.6,36.6,0,0,0-14.34.08,24.43,24.43,0,0,0-5.79-4.59l-9.13-5.34-5,9.32A25.11,25.11,0,0,0,55,98.52a23.59,23.59,0,0,0-3.95,1l-8.47,3,1.76,8.78A23.35,23.35,0,0,0,46.24,117,22.22,22.22,0,0,0,45,120l-1.42,4.26,2.16,4a20.21,20.21,0,0,0,9.52,9c-11.46,1.2-21.91,4-30.1,6.1-4.21,1.09-7.83,2.06-10.07,2.39L1.68,147.6l3,6.89L7.14,160a35.3,35.3,0,0,0,5.28,8.35c-.79,1.12-4.16,6.4-5.66,7.91L0,183.09l6.48,7.15a28.27,28.27,0,0,0,19.84,8.52,28.22,28.22,0,0,0,9.56-1.69C39,202,42.74,207,46.14,209.4c-6.25,7.35-13.37,13.73-23.49,18.55l-8.47,4,3.65,9.67c2.37,5.85,7,12.25,15.91,14.7a103.45,103.45,0,0,0-3.65,15.95c-1.91,11.46-2.72,16.2-12.8,19.75l-9,3.17,2.6,9.23c2.09,7.53,5.23,12.51,8.62,15.8l-6,6.63s14.28,10.72,28.28,12c.21,0,12.14.79,17.5-6,2.14,7.75,5.53,14.9,8.62,21.38,6.32,13.32,9.69,21.2,5.46,28.4l-9.57,16.23,18.8-.79c8.21-.33,15.84-.84,22.44-2.48,0,.36,0,.69,0,1l-1.53,13.94,16.48-3.48a25.17,25.17,0,0,0,4.84-2c10.2,11.94,27.55,21.25,50.91,21.25H177l-26.85,11,19.56,10.18a237.69,237.69,0,0,0,43.51,17.09l-2.27,7.84,9.82,2.88a187.55,187.55,0,0,0,102.16,0l9.8-2.88-2.27-7.81A237.34,237.34,0,0,0,374,447.58l19.56-10.18-26.88-11H368c23.36,0,40.67-9.32,50.88-21.26a25.57,25.57,0,0,0,4.84,2l16.48,3.47-1.51-13.91c0-.33-.05-.68-.05-1,6.58,1.63,14.23,2.12,22.42,2.47l18.79.79-9.51-16.2c-4.26-7.2-.87-15.08,5.43-28.4,3.09-6.48,6.48-13.63,8.62-21.38a29.43,29.43,0,0,0,11.4,5.28,26.71,26.71,0,0,0,5.9,1c8.31.25,12.47-2.12,18.18-5.72l10.38-6.53-6.07-6.64c3.39-3.26,6.53-8.24,8.62-15.74l2.63-9.26-9.08-3.17c-10.1-3.55-10.89-8.29-12.8-19.75a99.33,99.33,0,0,0-3.65-16c8.92-2.47,13.51-8.88,15.89-14.7l3.62-9.69-8.47-4c-10.12-4.83-17.24-11.21-23.51-18.56,3.41-2.44,7.14-7.42,10.3-12.32a28.78,28.78,0,0,0,9.56,1.68,28.14,28.14,0,0,0,19.85-8.49l6.47-7.15Z"/><path class="cls-2" d="M188.93,302V224.12c0-7.24-2.09-14.49-4.59-21.15h60.37c5.53,7.6,15.58,12.71,27.11,12.71s21.52-5.11,27.08-12.71h60.37c-2.55,6.68-4.62,13.91-4.62,21.15V302Zm82.86,106.36c-8.44-8.39-14.46-9.31-37.21-9.31-27.19,0-45.65-15.95-45.65-41.44v-51h165.7v51c0,25.49-18.44,41.44-45.68,41.44C286.23,399,280.21,399.92,271.79,408.31Z"/><path class="cls-1" d="M198.55,417.93v15.54l-13.49,5.44A221.38,221.38,0,0,0,227.24,453l7.65-24.93C218.57,424.77,207.2,421.27,198.55,417.93Z"/><path class="cls-1" d="M345,417.93c-8.67,3.34-20,6.81-36.34,10.21l7.68,24.93a220.5,220.5,0,0,0,42.15-14.14l-13.46-5.43V417.93Z"/><path class="cls-1" d="M170.29,167.22C191.41,155.81,243,130.7,208,103.63c-4.77-3.68-10-7-14.43-11.1-5.46,4.21,2,14.67,3.93,18.5,0,0-11.66,1.17-14.44,1.17-18-.07-36.88-10.74-27.31-31.18-7.17,1.48-8,8.37-10.23,14.26-4.59-3.11-12.57-9.8-18.72-8.85,5,16,26,30.42,42.36,33.68-16.5,9-47.1,15.67-63.2-3.67-11.3,21.87,4.44,31,19.87,42.46-58.74,26.82-50.06,56.9-88.6,80.58,5,2.35,27.29-2.37,29.28-2.65-8.37,10.85-12.27,15.44-14.72,20.72-2.34,4.95-3.39,10.54-5.71,22.58-1.81,9.52-5.13,19-16.71,25.32,4.54,8.21,14.62,1.78,18.83.69-.56.86-2,10.76-5.77,15.54,19.79-1.28,10.64-43,30.43-33,5.58,2.81,7.27,9.39,4.69,14.77-13,26.85,16.55,50.5,15,74,7.27-.05,14.79-.26,19.53-10.08,2.48,4.9,6.3,11.79,8.44,18.43l5.92-10.09c3.65,16.69,19.21,32.11,40.22,33.48-10-15.87,2-37.53-22.37-60.58,3-2.44,10-7.17,12.55-10.38-29.89,3.52-61.08-20.13-46.93-31.36,9.26-7.33,13.32,7.88,27.6,5.33l-5.59-4.82c2-1.94,4.21-4.47,6.53-6.38-6.07-.74-12.7-4.62-12.7-4.62l3.62-6c-35-.05-35.91-26.84-21.67-27.91,6.68-.49,15.32,11.84,36.87,9.26-2.75-3.32-3.85-8.34-5.15-12,5.21-.49,11.33-.44,16.25-2.84-10.53-1.35-13.19-4.9-22-11.53l10.18-3.73c-14.77-7.37-13.88-20.21-14.34-33.58,7.73,4.44,16.81,11.33,26.5,8.14,2.3-.76,3.78-1.84,3.83-4.23C146,206.44,137.16,185.13,170.29,167.22Zm-25.23,2.09c-18.49,19.78-10.48,31.62-6.75,35.27-6.89-1.48-17.17-10.26-14.82-18.76-2.19,2.63-4.44,5.49-6.73,8.42q-6.9,9.19-12.35,17.94c-5.61,16.69,4.67,33.91,22.16,41.54-19.43-2.85-28.15-20.16-28.1-31.18-9.28,17.56-13.72,33.58-13.31,47a123.14,123.14,0,0,0,1.27,14.08c4.46,8.48,11.63,11.59,24.41,13.15-11.61.74-17.75.2-22.8-5.11,7.9,34,44.88,63.47,59.93,88.68-15.07-19.6-46.26-48.79-57.18-69.89-.84,7.63,1.2,27.17,10.69,39.19-14-13.75-15.07-34.58-14.16-46.77a84.66,84.66,0,0,1-6.09-29.73,123.36,123.36,0,0,1,2-27.15c-8.83,12.55-21.58,17.4-27.85,36.51,1.22-24.65,19.61-25,33.38-55,5.33-13.09,13.08-24.4,21.65-37.21-10.89,3.57-19.05,6.13-31.65,19.93,9-21.18,60.68-45,84.37-68-7.11,1.51-36.16,2.25-48.23-5.82,21.86,5.92,70.5-.84,88.86-13.39-12.68,18.24-40.27,19.29-73.86,55.57A82.49,82.49,0,0,1,145.06,169.31Z"/><path class="cls-1" d="M497.45,280.13c-2.32-12-3.34-17.63-5.68-22.58-2.43-5.28-6.35-9.87-14.74-20.72,2,.28,24.33,5,29.3,2.65-38.54-23.68-29.87-53.76-88.63-80.58,15.43-11.46,31.17-20.59,19.87-42.49-16.09,19.37-46.7,12.68-63.2,3.68,16.35-3.27,37.37-17.66,42.36-33.69-6.17-.94-14.15,5.74-18.74,8.83-2.19-5.89-3-12.78-10.2-14.29,9.56,20.47-9.34,31.13-27.37,31.21C357.67,112.15,346,111,346,111c1.86-3.82,9.36-14.28,3.87-18.49-4.41,4.13-9.61,7.42-14.41,11.1-35,27.07,16.66,52.21,37.78,63.59,33.07,17.91,24.28,39.22,10.43,44.68.05,2.4,1.53,3.47,3.85,4.23,9.64,3.22,18.77-3.67,26.45-8.14-.44,13.38.48,26.24-14.29,33.58l10.15,3.73c-8.77,6.64-11.4,10.18-21.93,11.54,4.9,2.39,11.07,2.34,16.25,2.83-1.33,3.7-2.48,8.73-5.18,12,21.58,2.55,30.25-9.75,36.88-9.26,14.18,1.07,13.34,27.86-21.71,27.92l3.63,6s-6.64,3.88-12.73,4.62c2.32,1.89,4.59,4.44,6.55,6.38l-5.58,4.82c14.26,2.55,18.34-12.65,27.59-5.33,14.16,11.23-17,34.88-46.92,31.36,2.52,3.22,9.53,8,12.57,10.41-24.38,23-12.4,44.71-22.37,60.61,21-1.41,36.52-16.82,40.22-33.51l5.92,10.08c2.12-6.63,6-13.52,8.42-18.42,4.71,9.82,12.29,10,19.58,10.08-1.66-23.53,27.88-47.18,14.92-74-2.6-5.36-.92-11.94,4.67-14.77,19.84-10.06,10.63,31.69,30.45,33-3.8-4.77-5.2-14.67-5.74-15.53,4.19,1.09,14.23,7.52,18.77-.72C502.63,299.14,499.32,289.65,497.45,280.13ZM460.4,246a119.94,119.94,0,0,1,2,27.15,85.1,85.1,0,0,1-6.1,29.73c.89,12.2-.18,33-14.15,46.77,9.46-12,11.52-31.56,10.68-39.19-11,21.1-42.13,50.29-57.23,69.89,15.07-25.21,52.05-54.68,60-88.67-5.1,5.28-11.2,5.84-22.83,5.1,12.75-1.56,19.92-4.67,24.38-13.14a122.62,122.62,0,0,0,1.28-14.09c.43-13.44-4-29.47-13.32-47,.08,11-8.64,28.33-28.1,31.19,17.44-7.66,27.75-24.88,22.16-41.55-3.62-5.81-7.7-11.84-12.34-17.94-2.3-2.93-4.54-5.79-6.76-8.42,2.35,8.5-7.93,17.28-14.82,18.76,3.75-3.65,11.73-15.49-6.73-35.27a85.54,85.54,0,0,1,15.2,9.27c-33.59-36.29-61.16-37.31-73.89-55.58,18.39,12.55,67,19.34,88.86,13.4-12,8.06-41.11,7.32-48.23,5.81,23.7,23,75.47,46.86,84.39,68-12.59-13.8-20.78-16.35-31.62-19.92,8.59,12.83,16.3,24.11,21.63,37.2,13.79,29.93,32.21,30.29,33.41,55C482,263.39,469.25,258.55,460.4,246Z"/><path class="cls-1" d="M298.88,202.94c-5.54,7.6-15.61,12.71-27.06,12.71a41.52,41.52,0,0,1-7.7-.77,16.07,16.07,0,0,0,5.63,9.16c-1.35,9.11,2.58,17.64,12.35,19.86a12.83,12.83,0,0,0,8.74,9.8L284,261.56a10,10,0,0,1-8.79,3.62l-30.4-3.45c1.32-3.36-2.2-7.27-11.84-5.61l11.94-33.43-7.27-15.49L223.87,219l-1,35.06-5.94-2.88c-7.65-3.32-9.92,10.64-2.63,10.69l2.93,0c-.2,1.43.26,3,1.41,3.52a2.35,2.35,0,0,0-.08,4.06,2.91,2.91,0,0,0-.59,4.64c-1.5,2.58-1.78,8.17,3.55,9.57,4.39,1.15,7.14-3.55,8-6.28l47.31,14.65c6.66,1.91,11.45.84,17-4l12.35-10.8c-1.56,7.07,1,13.43,6.35,15.55,0,0-.84,6.48-.51,9.15l16.55,0h26.06V224.12c0-7.25,2.07-14.49,4.62-21.18H298.88Z"/><path class="cls-1" d="M228,333.9l.92,1.15c1.28,1.58,2,1.2,3.49.36l2.15-1.15c1.35-1,10.15,2.35,10.63-5,1,5.46-5.53,17-1.6,23.4l5.27,8.65-17.24.26a3.64,3.64,0,0,0-3.39,2.17l-4.51,9.36c-1.18,2.48-1.1,5,.38,6.74l3.06,3.44a11.77,11.77,0,0,0,3.32-4.9l-1.36-1.4a2.61,2.61,0,0,1-.51-3.42l2.78-5.76c1.08-2.28,2.17-2.76,4.62-2.18l14,3c1,.25,2.68.74,3.67-1,1.71-3,4.72-3.24,7.78-2.76,7.65,1.15,25.33,3,31.63-4.39,7.39,9.83,21.85,9.83,20.91,15l-3.06,16.89h4.59l2.81-17.27c.3-2,1.55-4.77-.62-6.33-.89-.69-1.3-1.05-3.31-4.52-2.63-4.59-2.5-11.48-5-17.43,2.4-2.83,5-3.8,7.27-3.26,5.1,1.25,6.48,10,13.72,17.22-.81-3.19-1.17-6.68-2.88-9.72,0,0,5,3.91,6.33,8.47.81,2.86,1.65,4.95,4.23,6.28,1.71.61,3.75-.21,5.79-2.65,0,0-4.77-6.79-8.26-11.23-4.8-6.1-11.2-12.23-19.92-11.51a18.9,18.9,0,0,0-7.93,3c-9.92-5.57-17.63.33-20.69.33l-18.56-1.1c-3.65-.23-6.53-4.47-6.53-4.47-.46-15.72-13.09-22-17.45-22,0,0,.41-2.83-.74-3.82l-3.87,4.87-10.77-3.93,8.45,6.91-9.16,10.65A2.46,2.46,0,0,0,228,333.9Z"/><path class="cls-1" d="M215.86,356c-2.6,2-2.47,4.82-.92,8l1.56,2.91,4.05-3.09-.91-2c-.67-1.41-.64-2.83.51-3.73l5.81-4.39c1.63-1.2,2.14-1.32,3.88-1.07l12.27,2.58a18.29,18.29,0,0,1-2.48-5.46l-11.55-1.53c-1.63-.21-2.63.48-4.06,1.58Z"/><path class="cls-1" d="M294.31,392.41H299l7.44-18.34a14.11,14.11,0,0,1,.9-1.46,53.79,53.79,0,0,1-8.09-3.85c1.86,2.5,3.32,3.57,2.55,5.89Z"/><path class="cls-1" d="M298.27,144.25l8.59-49.43L274.29,105.9v51ZM279.8,110.9l21.6-8s-4.21,3.42-9.23,6.86c-4.46,3.09-12.37,6.38-12.37,6.38Zm0,12,19.77-7.07a50.76,50.76,0,0,1-7.38,5.94c-4.46,3.07-12.36,6.36-12.36,6.36v-5.23Zm0,12.7,17.39-6.68s0,2.12-5,5.54c-4.46,3.08-12.37,6.38-12.37,6.38Z"/><path class="cls-1" d="M240.32,188l.72,1.15h6.7l.08,1.18a14.54,14.54,0,0,0,.71,3.44A20.17,20.17,0,0,0,255,203c3.85,3.11,9.41,5.36,16.81,5.36,16,0,23.28-10.39,24-18l.05-1.18h6.74l.71-1.15c6.33-9.9,14.05-20.9,23-22.48l-24.48-14.21-30,16.33-30-16.33-24.45,14.21C226.24,167,234,178.06,240.32,188Z"/><path class="cls-1" d="M269.25,156.86v-51L236.73,94.82l8.54,49.43Zm-5.49-16s-7.9-3.32-12.37-6.38c-5-3.42-5-5.57-5-5.57l17.42,6.69v5.26Zm0-30v5.28s-7.9-3.29-12.37-6.38c-5-3.44-9.28-6.86-9.28-6.86Zm0,12v5.25s-7.9-3.29-12.37-6.35a48.15,48.15,0,0,1-7.39-6Z"/><path class="cls-1" d="M271.79,73c-18.59,0-32.54,6.1-35.58,13.25l35.58,14.06,35.53-14.06C304.31,79.13,290.38,73,271.79,73Z"/><path class="cls-1" d="M271.8,52.62c13.69,0,27.41,4.16,36.64,9.54a63.27,63.27,0,0,1,5.31-12.58l-8.42,1.3-6.81-14.54L285.8,43.1l-14-13.86-14,13.86-12.7-6.76-6.86,14.54-8.42-1.3a66.37,66.37,0,0,1,5.33,12.58C244.38,56.78,258.05,52.62,271.8,52.62Z"/><path class="cls-1" d="M503.88,164.64c4.59-.59,8.29-2.12,12.8-5.49-9.72-2.57-30.07-10-47.44-6.63-5.74.76-8.92,3.09-6.88,4.41,9.33,6.2,20.86,20.57,29.25,37.34,7.37-9.17,4.28-21.18,2.73-24.63,14.69,8.86,18.54,13.17,25.35,11.48C516,175.54,510.92,170.51,503.88,164.64Z"/><path class="cls-1" d="M52,194.24c8.39-16.76,19.91-31.13,29.27-37.33,2.1-1.33-1.14-3.65-6.83-4.42-17.4-3.29-37.8,4.06-47.51,6.64,4.56,3.37,8.18,4.9,12.82,5.48-7.06,5.9-12.19,10.9-15.83,16.49,6.86,1.68,10.68-2.63,25.35-11.48C47.74,173.09,44.63,185.08,52,194.24Z"/><path class="cls-3" d="M153.81,349.85c6.76-5.36,12.37-8,12.09-21-10.15,5.21-38.94,4.93-51-11.66-3.39-4.72.23-7.09,3.52-3.37,8.23,9.34,23.49,5.11,29.05,2.43a22.19,22.19,0,0,0-5.44-9.19c2.1-2,8-5.1,9.18-10.36-3.13-1.71-15.35-2.94-15.35-2.94,2-1.88,4.41-4.51,2.94-11.53-12.48,3.83-27.91-1.38-31.4-6s.08-8.8,3-5.79c6.23,6.54,36.88,14,48.28,2.66-4.23-1.18-8.9-5-9.74-7.3,10.56-1.07,19-7.3,19.66-15.06-5.84,0-16.86-.43-20.63-3.24,5.05-1.86,8.26-3.7,9.87-9.36-19.31-1.18-20.84-15.52-20.94-17.89,12.58,7.25,34.71,4,29-13.83-10.45-.56-21-17.48,7.76-33,26.14-14.16,55.85-29.42,53.22-54.56-1.71-16.08-28.15-27-31.52-35.19-11,5.26-13.26,11.36-8.29,21.59,0,0-24.61,2.45-26.55-12.71-.84-6.79,3.7-13.14,8.57-18-2.75,0-21.29-5-26.88,10.13-10.38-7.1-19.28-6.84-26.27.66,11.17,6.63,18.08,29.4,36.55,36.11-13.14,7.12-34.38,4.13-46.78-17.76-11.73,17.68-18.49,35.19,6.69,53.89-45.78,20.85-45.45,60.71-85.29,79.69,4,10.85,12.55,10.85,23.42,9.16-17.22,22.38-2.56,45.81-29.82,55.38,2.55,9.13,7.68,16.43,17.73,13.75-2.86,4.47-4.75,4.37-9.19,9.27,14.9,9.39,32.57,2.6,36.58-27.54.71-5.38,8.11-2,5.56,3.27-17,35.14,26,61.57,10.76,87.35,13.39-.57,23.62-1.61,29.18-6.13,2.72,5.41,4.38,10.77,3.77,16,7.4-1.5,10.1-5.87,10.61-10.92,4.85,14.16,22.19,29.29,49.94,29.29C160.9,395.12,174.6,373.81,153.81,349.85Zm-27.39,25.9-5.92,10.08c-2.11-6.63-6-13.53-8.44-18.42-4.77,9.82-12.29,10-19.53,10.07,1.6-23.52-28-47.18-15-74a11,11,0,0,0-4.69-14.78c-19.82-10.05-10.64,31.7-30.43,33,3.78-4.77,5.2-14.67,5.76-15.54-4.2,1.1-14.28,7.53-18.82-.69,11.58-6.3,14.9-15.79,16.71-25.31,2.29-12.05,3.36-17.63,5.69-22.58,2.44-5.29,6.35-9.88,14.71-20.73-2,.29-24.25,5-29.28,2.66,38.54-23.68,29.87-53.77,88.6-80.59-15.4-11.45-31.14-20.59-19.86-42.46,16.09,19.35,46.67,12.66,63.19,3.68-16.32-3.27-37.36-17.66-42.33-33.69,6.14-.94,14.13,5.74,18.69,8.86,2.22-5.92,3.09-12.79,10.25-14.27-9.56,20.44,9.31,31.11,27.32,31.19,2.8,0,14.43-1.18,14.43-1.18-1.86-3.83-9.38-14.29-3.92-18.5,4.41,4.14,9.66,7.43,14.43,11.1,35,27.1-16.63,52.21-37.74,63.62-33.13,17.91-24.26,39.24-10.43,44.68-.06,2.4-1.53,3.47-3.83,4.24-9.69,3.21-18.77-3.7-26.5-8.14.46,13.37-.46,26.23,14.33,33.58l-10.17,3.7c8.75,6.66,11.42,10.18,22,11.56-4.93,2.39-11,2.34-16.25,2.83,1.33,3.7,2.4,8.73,5.15,12-21.55,2.56-30.19-9.74-36.88-9.26-14.23,1.07-13.33,27.87,21.68,27.92l-3.62,6s6.63,3.88,12.73,4.62c-2.32,1.89-4.57,4.44-6.53,6.38l5.58,4.82c-14.3,2.56-18.33-12.65-27.62-5.33-14.15,11.23,17,34.88,46.93,31.36-2.5,3.22-9.54,8-12.55,10.41,24.36,23,12.35,44.71,22.37,60.61C145.62,407.85,130.07,392.41,126.42,375.75Z"/><path class="cls-3" d="M88,291.7c5.07,5.28,11.2,5.84,22.8,5.1-12.78-1.56-19.94-4.67-24.41-13.14a130.22,130.22,0,0,1-1.25-14.09c-.41-13.45,4-29.47,13.32-47-.06,11,8.64,28.3,28.1,31.18-17.49-7.65-27.77-24.88-22.16-41.54,3.65-5.82,7.75-11.84,12.34-17.94,2.3-2.93,4.54-5.79,6.73-8.42-2.34,8.5,7.94,17.28,14.82,18.76-3.72-3.65-11.73-15.47,6.76-35.24a87.7,87.7,0,0,0-15.2,9.26C163.4,142.31,191,141.29,203.7,123c-18.36,12.56-67,19.35-88.86,13.4,12.07,8.06,41.12,7.32,48.23,5.82-23.67,23-75.39,46.85-84.36,68,12.59-13.83,20.76-16.36,31.67-19.91-8.59,12.84-16.32,24.12-21.65,37.21C75,257.48,56.54,257.86,55.34,282.51c6.28-19.11,19-24,27.85-36.52a124.13,124.13,0,0,0-2,27.15,84.83,84.83,0,0,0,6.09,29.73c-.89,12.2.18,33,14.16,46.78-9.49-12-11.53-31.57-10.69-39.2,10.94,21.1,42.14,50.3,57.21,69.89C132.88,355.16,95.92,325.71,88,291.7Z"/><path class="cls-3" d="M433.23,190.36c10.84,3.57,19,6.1,31.63,19.93-8.93-21.18-60.73-45-84.39-68,7.11,1.48,36.19,2.25,48.23-5.82-21.84,5.95-70.47-.84-88.86-13.39,12.7,18.27,40.3,19.29,73.88,55.57a86.09,86.09,0,0,0-15.2-9.26C417,189.14,409,201,405.26,204.63c6.88-1.48,17.16-10.26,14.81-18.76,2.22,2.63,4.47,5.49,6.76,8.42,4.62,6.13,8.7,12.12,12.35,17.94,5.61,16.69-4.7,33.91-22.14,41.54,19.46-2.85,28.18-20.18,28.08-31.18,9.31,17.56,13.75,33.58,13.34,47a123.46,123.46,0,0,1-1.28,14.09c-4.49,8.47-11.65,11.58-24.41,13.14,11.64.71,17.73.18,22.83-5.11-7.93,34-44.89,63.47-60,88.68,15.09-19.6,46.23-48.79,57.23-69.89.84,7.63-1.2,27.17-10.69,39.19,14-13.75,15-34.58,14.15-46.77a86.48,86.48,0,0,0,6.1-29.73,122.15,122.15,0,0,0-2-27.15c8.85,12.55,21.58,17.4,27.88,36.51-1.2-24.67-19.62-25.05-33.41-55C449.53,214.45,441.83,203.17,433.23,190.36Z"/><path class="cls-3" d="M493.12,246.32C504,248,512.48,248,516.53,237.19c-39.84-19-39.5-58.82-85.28-79.7,25.17-18.67,18.38-36.21,6.68-53.89-12.37,21.9-33.69,24.88-46.78,17.76,18.42-6.71,25.38-29.47,36.55-36.11-7-7.5-15.91-7.75-26.29-.66-5.61-15.11-24.13-10.13-26.91-10.13,4.85,4.85,9.44,11.2,8.57,18-1.91,15.16-26.52,12.71-26.52,12.71,5-10.23,2.75-16.33-8.29-21.59-3.37,8.14-29.79,19.12-31.53,35.19-2.65,25.14,27.11,40.4,53.23,54.56,28.74,15.54,18.21,32.48,7.78,33-5.79,17.86,16.35,21.08,28.95,13.83-.06,2.38-1.66,16.72-21,17.89,1.63,5.66,4.82,7.5,9.87,9.37-3.77,2.83-14.79,3.24-20.61,3.24.69,7.75,9.13,14,19.69,15.05-.84,2.35-5.53,6.12-9.74,7.3,11.4,11.35,42.06,3.88,48.28-2.65,2.86-3,6.35,1.25,2.93,5.79s-18.92,9.85-31.42,6c-1.43,7,1,9.65,2.93,11.54,0,0-12.21,1.22-15.37,2.93,1.19,5.26,7.11,8.3,9.18,10.36a22,22,0,0,0-5.46,9.19c5.61,2.7,20.86,6.92,29.05-2.42,3.31-3.7,6.94-1.36,3.54,3.36-12,16.59-40.83,16.85-51,11.67-.29,13,5.33,15.66,12.08,21-20.81,24-7.06,45.27-21.78,66.25,27.73,0,45.07-15.14,49.92-29.3.56,5,3.21,9.42,10.58,10.92-.56-5.28,1.07-10.64,3.77-16.05,5.61,4.52,15.84,5.57,29.23,6.13-15.17-25.78,27.77-52.21,10.74-87.35-2.53-5.28,4.87-8.65,5.58-3.27,4,30.14,21.68,36.93,36.6,27.54-4.49-4.9-6.35-4.8-9.21-9.27,10,2.68,15.15-4.62,17.73-13.75C495.69,292.13,510.36,268.7,493.12,246.32Zm2.29,59.82c.54.86,1.94,10.76,5.74,15.54-19.81-1.28-10.63-43-30.45-33-5.59,2.8-7.24,9.39-4.67,14.77,13,26.85-16.57,50.5-14.92,74-7.29-.05-14.87-.26-19.58-10.08-2.43,4.9-6.33,11.79-8.45,18.42l-5.91-10.08c-3.68,16.69-19.23,32.11-40.2,33.51,10-15.87-2-37.56,22.37-60.61-3.06-2.45-10.07-7.19-12.6-10.41,29.92,3.52,61.08-20.13,46.93-31.36-9.26-7.32-13.34,7.89-27.6,5.33l5.59-4.82c-2-1.94-4.23-4.46-6.56-6.38,6.1-.74,12.73-4.62,12.73-4.62l-3.62-6c35-.06,35.86-26.85,21.7-27.92-6.65-.48-15.32,11.84-36.88,9.26,2.73-3.31,3.86-8.34,5.18-12-5.2-.49-11.35-.43-16.24-2.83,10.53-1.36,13.18-4.9,21.93-11.54l-10.15-3.72c14.76-7.38,13.82-20.21,14.28-33.59-7.7,4.45-16.83,11.34-26.45,8.15-2.29-.77-3.8-1.84-3.85-4.24,13.85-5.46,22.67-26.77-10.43-44.68-21.09-11.41-72.76-36.52-37.77-63.59,4.79-3.68,10-7,14.38-11.1,5.49,4.21-2,14.67-3.87,18.5,0,0,11.63,1.17,14.38,1.17,18-.08,36.93-10.74,27.37-31.21,7.16,1.48,8,8.4,10.2,14.29,4.59-3.11,12.55-9.77,18.74-8.83-5,16-26,30.42-42.36,33.69,16.5,9,47.11,15.66,63.2-3.68,11.27,21.87-4.44,31-19.87,42.46,58.76,26.8,50.07,56.91,88.63,80.59-5,2.35-27.32-2.37-29.3-2.65,8.41,10.84,12.34,15.43,14.74,20.72,2.34,4.95,3.36,10.51,5.68,22.58,1.84,9.52,5.18,19,16.71,25.31C509.64,313.66,499.6,307.23,495.41,306.14Z"/><path class="cls-3" d="M215.61,372l8.39-7.12-1.28-2.55c-.92-1.84-.43-1.94.54-2.66l4.44-3.29A3.45,3.45,0,0,1,231,356l13.28,3.11h-14c-3.24.21-4.18,1.46-5.36,3.86l-1,2-3.59,7.4c-1.23,2.55-1.86,6,1.35,9.77l2.55,3-5.15,10.44h4.33l3.57-7.25c.28-.26,5.56-5.08,6.69-10-1.53-1.25-2.61-2.12-1.76-3.86l1.6-3.47c.54-1.15.72-1.6,2.25-1.32l13.92,3c1.74.48,4.29,1.25,6.15-1.56s2.17-2.6,6.6-2.17l7.12.77c9.72.92,19.43-1.51,23.21-4.52,1.32,3,3.95,5.33,5.18,7.68.45.87-.31,2.09-.9,3.62l-8,19.09h12.32l7-17.4a10.24,10.24,0,0,1,2.3-3.65l-4,21.08h12l3.17-20.85c.68-4.64.28-6.13-1.94-8-5-4.21-4.87-13-6.48-18.4a4.65,4.65,0,0,1,3-.58c2.6.23,4.56,6.89,7.62,11.17,6.13,8.6,14.46,18.09,24,4.72a27.46,27.46,0,0,0-3.09-4.23l-2.67-3.14c-1.56-1.74-9-10.21-12-13.25-7-7.06-17.78-6-22.06-2.55-9.72-5.1-20,.26-22.4.05l-16.73-1a3.27,3.27,0,0,1-2.72-1.61l3.11-1c-2.91-12.13-10.23-22.26-23-24,0,0-.74-3.83-2.7-4.57l-3.83,4.5a13.39,13.39,0,0,0-3.21.89l-16.32-6.07,12.24,12.37s-6.35,9-8.16,10.85c-1.2,1.68-1.1,3,.25,4.59l2.37,3.11c1.23,1.61,2.58,1.56,4.54.57l2.68-1.41c1.18-1,5.1.95,6.79-.59a49.47,49.47,0,0,0-1.87,9.6l-11-1.33c-2.4-.33-3.49,0-4.95,1.15l-9.38,7.22c-3.06,2.35-4,6.41-2.12,10.36Zm90.79,2.07L299,392.44h-4.64l7.45-17.79c.77-2.29-.69-3.36-2.55-5.86a53.7,53.7,0,0,0,8.08,3.85A11,11,0,0,0,306.4,374.07Zm-71.82-39.79-2.11,1.13c-1.48.84-2.22,1.22-3.5-.36l-.92-1.17a2.46,2.46,0,0,1,.34-3l9.13-10.64-8.42-6.92,10.71,4,3.93-4.9c1.15,1,.74,3.8.74,3.8,4.33,0,17,6.28,17.44,22,0,0,2.86,4.21,6.51,4.44L287,343.75c3.08,0,10.79-5.87,20.68-.33a19.88,19.88,0,0,1,7.93-3c8.73-.64,15.15,5.43,19.92,11.56,3.5,4.44,8.29,11.23,8.29,11.23-2.06,2.45-4.08,3.26-5.79,2.65-2.57-1.33-3.42-3.39-4.23-6.28-1.3-4.57-6.33-8.47-6.33-8.47,1.71,3.06,2.07,6.53,2.89,9.72-7.27-7.19-8.65-16-13.73-17.2-2.24-.56-4.87.41-7.29,3.22,2.55,6,2.42,12.83,5.05,17.45,2,3.45,2.42,3.75,3.32,4.52,2.14,1.53.94,4.31.61,6.33l-2.76,17.27h-4.64L314,375.52c.94-5.15-13.52-5.15-20.91-15-6.3,7.38-24,5.54-31.63,4.39-3.08-.46-6.09-.25-7.78,2.78-1,1.71-2.65,1.2-3.67,1l-13.95-3c-2.45-.57-3.52-.08-4.59,2.16l-2.78,5.77a2.65,2.65,0,0,0,.54,3.45l1.32,1.4a11.53,11.53,0,0,1-3.31,4.87l-3-3.42c-1.48-1.73-1.55-4.23-.38-6.68l4.51-9.44a3.64,3.64,0,0,1,3.4-2.17l17.24-.26-5.28-8.6c-3.93-6.45,2.6-18,1.6-23.4C244.76,336.61,236,333.29,234.58,334.28ZM215.86,356l8.16-6.23c1.46-1.1,2.43-1.81,4.09-1.61l11.52,1.53a19,19,0,0,0,2.48,5.46l-12.27-2.58A4.24,4.24,0,0,0,226,353.6L220.15,358c-1.15.89-1.2,2.32-.54,3.73l.95,2-4.06,3.06-1.56-2.91C213.36,360.8,213.26,358,215.86,356Z"/><path class="cls-3" d="M251.42,134.46c4.46,3.08,12.37,6.37,12.37,6.37v-5.25l-17.42-6.66S246.37,131.06,251.42,134.46Z"/><path class="cls-3" d="M263.76,128.12v-5.25L244,115.8a48.66,48.66,0,0,0,7.4,6C255.85,124.81,263.76,128.12,263.76,128.12Z"/><path class="cls-3" d="M263.76,116.18V110.9l-21.65-8s4.23,3.42,9.28,6.86C255.86,112.89,263.76,116.18,263.76,116.18Z"/><path class="cls-3" d="M324.59,188h22.13c-.91-3.21-4.36-6.45-10.81-6.45A12.43,12.43,0,0,0,324.59,188Z"/><path class="cls-3" d="M301.43,102.94l-21.6,8v5.28s7.9-3.29,12.37-6.38C297.22,106.36,301.43,102.94,301.43,102.94Z"/><path class="cls-3" d="M297.22,128.92l-17.39,6.68v5.26s7.9-3.32,12.37-6.38C297.22,131.06,297.22,128.92,297.22,128.92Z"/><path class="cls-3" d="M299.57,115.8l-19.77,7.07v5.25s7.93-3.29,12.37-6.35A49.35,49.35,0,0,0,299.57,115.8Z"/><path class="cls-3" d="M207.63,181.51c-6.45,0-9.9,3.24-10.82,6.45H219A12.52,12.52,0,0,0,207.63,181.51Z"/><path class="cls-3" d="M315.76,88.75c0-12.45-20.91-23.6-44-23.6s-44,11.15-44,23.6l.48,3.06,9.18,52.9-43.61,25.44c-4.64,2.73-10.46,10.24-11.2,17.79h8c1.33-7.55,7.27-15.92,18.42-15.41,10.07.53,16,6.65,22,15.41l1.53,2.3,2.2,3.44H170.54c4.72,9.47,9.19,19.52,9.19,30.42V357.53c0,34.32,26.34,50.68,54.88,50.68,22,0,25-1,37.19,11.18,12.11-12.18,15.09-11.18,37.18-11.18,28.51,0,54.88-16.36,54.88-50.68V224.12c0-10.89,4.47-21,9.19-30.41h-64.2l2.22-3.45,1.53-2.3c5.89-8.75,11.89-14.87,22-15.41C345.65,172,351.65,180.41,353,188h7.93c-.71-7.55-6.55-15.08-11.17-17.78L306.1,144.74l9.21-52.9ZM236.7,94.82l32.55,11.08v51l-24-12.61Zm8,108.12c4.28,5.87,11.22,10.21,19.43,11.89a16.73,16.73,0,0,0,5.64,9.22c-1.35,9.11,2.55,17.6,12.34,19.85a12.81,12.81,0,0,0,8.73,9.8L284,261.56a10,10,0,0,1-8.8,3.62l-30.4-3.44c1.32-3.37-2.2-7.28-11.81-5.62l12-33.43L237.7,207.2,223.87,219l-1,35.06L217,251.17c-7.73-3.32-10,10.64-2.63,10.69l2.91,0c-.18,1.43.25,3,1.38,3.5a2.38,2.38,0,0,0-.06,4.1,2.87,2.87,0,0,0-.58,4.62c-1.53,2.58-1.76,8.17,3.57,9.57,4.36,1.15,7.09-3.55,8-6.28l47.28,14.65c6.71,1.92,11.46.84,17-4l12.34-10.79c-1.56,7.06,1,13.42,6.38,15.54A67.56,67.56,0,0,0,312,302H188.93V224.12c0-7.24-2.09-14.49-4.59-21.18Zm50.85,29.53a16,16,0,0,0,.72,15.87l-2,2c-8.88-1.1-12.37-14.34-12.37-14.34a21.09,21.09,0,0,0-.26,3.52c-5.17-1.91-8.44-6.51-8.18-12.81a20.4,20.4,0,0,0,6.5,2.27l.61-3.88c-6.19-1.07-9.82-5-11.19-9.54-.31,0-.56-.1-.85-.13,1.1.08,2.2.18,3.32.18a36.52,36.52,0,0,0,10.43-1.53A17.09,17.09,0,0,0,294,220.88C293.24,223.94,293.6,227.75,295.56,232.47Zm13.14,35a13.42,13.42,0,0,0-2.07,4.08l-4.94,4.54c1-7.24-3.88-15.79-8.32-19.29l5.26-5.15,1,1.07C297.91,257.35,301.35,266.41,308.7,267.48Zm-23.9-2.27,4.08-4c4.13,3.62,9.59,11.71,7.88,19.42l-4.43,4.08a15.35,15.35,0,0,1-2.83,2.12C292.28,280,288.73,269.39,284.8,265.21ZM276,268.6h.13a8.51,8.51,0,0,0,4.49-.61c3.11,4.44,5.53,14.54,1.81,20.85a20.44,20.44,0,0,1-6.13-.9l-1.52-.46C277.94,282.61,277.51,274,276,268.6Zm-10.28-1.28,5.74.72c.92,4.77.31,13-2.73,17.71l-6.68-1.94C265,279.83,266.39,271.64,265.75,267.32Zm-12-1.45,7,.82c.69,3.82-.61,12-3.24,15.84l-7.09-2C253.25,276.74,254.27,270.13,253.79,265.87ZM225.61,264c-3.24,1-4.67-1.3-4.54-3.29,6.35-2.33,9.18-.82,11,.35,1.71,1.07,3.14,4.14,5.43,6.05a49.91,49.91,0,0,1-2.11,8.91c-6.51-1.66-6.84-7.4-4.42-10.9C229.66,263.55,228.24,263.14,225.61,264Zm-4.54,12.68a15.21,15.21,0,0,0,4.38,1,2.55,2.55,0,0,1-3,2.28A2.33,2.33,0,0,1,221.07,276.69Zm-6.4-18.63a1.84,1.84,0,0,1,.89-3.42c2,.05,4.56,2.27,7.14,3.37C222.7,258,215.94,258.93,214.67,258.06Zm6.6,13.53c1.41,1.35,5.61.84,5.61.84l.16.84C225.2,275.72,220.1,274.62,221.27,271.59Zm5.66-2.79c-3,1.2-6.09-.43-5.15-2.37,1.41,1.28,5.31.64,5.31.64Zm4.44-35-5.76,21,2-33.89,8.93-7.63,4.54,10-11.48,32.92,3-22.15C232.88,232.42,231.63,232.24,231.37,233.77Zm.41,25.46s6.43-.3,8.24.39c1.32.56.43,2.8-1.3,2.55S231.78,259.23,231.78,259.23Zm10.07,5.11,7,.87c.54,3.83-.46,10.31-3,13.93l-6.76-2C240.91,272.91,241.34,268.91,241.85,264.34Zm112.81,93.22c0,16.23-7.5,28.55-20,35.39l4.46-9.09h-4.33l-5.74,11.64A56.63,56.63,0,0,1,309,399c-22.75,0-28.76.92-37.18,9.31-8.44-8.39-14.46-9.31-37.18-9.31a56.27,56.27,0,0,1-20.05-3.45h.15l5.74-11.69h-4.31l-5,10.24c-1.2-.56-2.38-1.18-3.5-1.84l4.13-8.4h-4.28l-3.06,6.26c-9.74-7.17-15.48-18.4-15.48-32.56v-51h165.7v51Zm4.61-154.62c-2.57,6.69-4.64,13.94-4.64,21.18V302h-9.05c-4.11-4-7.58-17.25-7.58-17.25-2.24,4.78.33,14.45,2.73,17.25H329.08c-2.88-3.9-5.38-17.73-5.38-17.73-3.5,4-1.28,14.72.89,17.73h-7.75a39.32,39.32,0,0,1,1.09-11.56c-4.05-.74-8.36-2.88-8.34-7.37,2,1.91,2.88,1.89,5.72,1.84l3.28-2.61c-10.91.36-11.42-11.63-2.75-17.25-8.65.28-15.1-4.87-12-14.06-6.15-3.19-8.32-13.6-3.78-18.17-3.28-3.57-3.82-10.59-1.73-15.36-4.36,0-9.26-1.73-12-4.72a6.19,6.19,0,0,1-.69.26,30.27,30.27,0,0,0,13.19-10h60.39Zm-33-37.46c-9,1.56-16.7,12.56-23,22.48l-.71,1.15h-6.76l0,1.18c-.69,7.65-7.95,18-24,18-7.4,0-13-2.27-16.81-5.36a19.92,19.92,0,0,1-6.42-9.24,14.87,14.87,0,0,1-.72-3.44l0-1.18h-6.71l-.71-1.15c-6.35-9.9-14.08-20.89-23-22.48l24.46-14.21,30,16.33,30-16.33Zm-28-21.23-23.95,12.61v-51l32.54-11.08ZM271.8,100.34,236.22,86.28c3-7.15,17-13.25,35.58-13.25s32.51,6.1,35.52,13.25Z"/><path class="cls-3" d="M350.86,253.24l.07-3.91c-12-.28-14.71-14.39-14.71-14.39C332.72,245.33,341.85,253.09,350.86,253.24Z"/><path class="cls-3" d="M335.76,277.15l-1.2-3.7c-10.2,2.6-15.48-13.58-15.48-13.58C315.81,271.64,327.19,280,335.76,277.15Z"/><path class="cls-3" d="M342.85,262.14c-12.19,1.94-17.19-12.24-17.19-12.24-1.35,7.73,3.65,15.56,11.73,16.38-1.84,10.08,7.52,15.26,15.63,11.66l-1.17-3.52C344.81,276.79,338.21,269.83,342.85,262.14Z"/><path class="cls-3" d="M335.55,221.65l.1-3.91c-16.09-3.31-14.74-14.39-14.74-14.39C317.45,213.79,326.57,221.49,335.55,221.65Z"/><path class="cls-3" d="M233.59,383.86l-5.76,11.69h4.33l5.74-11.69Z"/><path class="cls-3" d="M242.29,383.86l-5.74,11.69h4.36l5.69-11.69Z"/><path class="cls-3" d="M277.12,383.86l-5.73,11.69h4.31l5.76-11.69Z"/><path class="cls-3" d="M285.84,383.86l-5.78,11.69h4.36l5.71-11.69Z"/><path class="cls-3" d="M268.43,383.86l-5.77,11.69H267l5.74-11.69Z"/><path class="cls-3" d="M319.31,395.55h4.33l5.74-11.69H325Z"/><path class="cls-3" d="M251,383.86l-5.74,11.69h4.34l5.73-11.69Z"/><path class="cls-3" d="M259.68,383.86l-5.74,11.69h4.36L264,383.86Z"/><path class="cls-3" d="M240,321a1.64,1.64,0,0,0-1.48,1.76,1.66,1.66,0,0,0,1.48,1.76,1.78,1.78,0,0,0,0-3.52Z"/><path class="cls-3" d="M271.8,57.26c17.85,0,32.16,5.92,40,12.28,0,0,2.37-14.19,10.35-26.64l-14.38,1.6-7.53-16L285.82,36l-14-13.94L257.77,36l-14.51-7.53-7.53,16-14.38-1.6c8,12.45,10.35,26.64,10.35,26.64C239.61,63.18,253.94,57.26,271.8,57.26Zm-33.59-6.38,6.86-14.54,12.7,6.76,14-13.86,14,13.86,12.7-6.76,6.79,14.54,8.44-1.3a64.1,64.1,0,0,0-5.3,12.58c-9.24-5.38-23-9.54-36.65-9.54s-27.45,4.16-36.68,9.54a64.75,64.75,0,0,0-5.33-12.58Z"/><path class="cls-3" d="M286.48,28.61a3.85,3.85,0,0,0,4.13-3.47c.21-2.1-2.85-7.66-2.85-7.66s-4.57,4.92-4.72,7A3.84,3.84,0,0,0,286.48,28.61Z"/><path class="cls-3" d="M310.05,37.16a3.78,3.78,0,0,0,5.12-1.61c1-1.84.36-8.14.36-8.14s-6.07,2.73-7.06,4.59A3.87,3.87,0,0,0,310.05,37.16Z"/><path class="cls-3" d="M257.08,28.61a3.84,3.84,0,0,0,3.49-4.11c-.2-2.1-4.71-7-4.71-7s-3,5.59-2.86,7.66A3.8,3.8,0,0,0,257.08,28.61Z"/><path class="cls-3" d="M233.54,37.16A3.85,3.85,0,0,0,235.12,32c-1-1.86-7.06-4.59-7.06-4.59s-.64,6.3.38,8.14A3.75,3.75,0,0,0,233.54,37.16Z"/><path class="cls-3" d="M516.24,166.79c5-1.79,8.9-6.59,10.84-11-12.78-1.83-46.72-16.1-74.62-4.49,10.45-9.92,19.84-11.2,20.73-25.49,4.34,3.11,11.66,4.87,15.79-2.55-2.88-8.5-10.15-1.61-11.17-4-1.43-3.27,9.15,1,11.42-10-8.23-2.83-10.68,3.9-12.16,2.35s5.23-4.32.38-13.22c-8.57,5-4.11,10.66-5.92,11.3-2.19.87-.45-6.05-9.94-5.72-.95,10.19,8.9,10.52,7.29,12.13-2,2-4.51-5.85-11.68-1.89.13,8.21,6.78,12.73,13.65,10.79-1.13,15.62-15.46,12.71-26.12,30.32,22.6,11.58,32.82,31.79,46.72,45.78,4.59-3.27,12.45-17.76,12.45-17.76,15.05,11.66,25.63,0,25.63,0C524.35,178,524.15,174,516.24,166.79Zm-21.93,2.83c1.55,3.44,4.64,15.46-2.73,24.62-8.39-16.76-19.92-31.13-29.25-37.33-2-1.33,1.12-3.65,6.88-4.42,17.37-3.29,37.75,4.06,47.44,6.64-4.51,3.37-8.19,4.9-12.8,5.46,7,5.92,12.19,10.92,15.81,16.49C512.85,182.79,509,178.47,494.31,169.62Z"/><path class="cls-3" d="M349.23,430.26V411.17c-14.74,6.76-33.49,12.25-57.62,14.42l-1.09,6.81c2,.28,4.64.53,8.11.77A229.87,229.87,0,0,1,271.82,435,230.18,230.18,0,0,1,245,433.17c3.44-.24,6-.49,8.09-.77l-1.1-6.81c-24.13-2.17-42.9-7.66-57.61-14.42v19.09l-20,8.21c14.82,7.71,31.86,14,51.55,19.06l-2.35,8a177,177,0,0,0,96.4,0l-2.32-8c19.67-5.07,36.75-11.35,51.57-19.06Zm-164.17,8.65,13.49-5.44V417.93c8.67,3.34,20,6.81,36.37,10.21l-7.65,24.93A223,223,0,0,1,185.06,438.91Zm86.74,28.73a181.14,181.14,0,0,1-42.8-5.41l8.09-26.16c5.35,1.25,18.77,2.89,34.71,2.89s29.3-1.66,34.68-2.89l8.11,26.16A181.59,181.59,0,0,1,271.8,467.64Zm44.55-14.57-7.65-24.93c16.32-3.37,27.7-6.87,36.37-10.21v15.54l13.47,5.44A222.28,222.28,0,0,1,316.35,453.07Z"/><path class="cls-3" d="M39.68,183.3s7.86,14.49,12.42,17.76c13.93-14,24.18-34.17,46.75-45.78-10.69-17.61-25-14.65-26.09-30.32,6.86,1.94,13.49-2.6,13.64-10.79-7.19-4-9.74,3.9-11.68,1.89-1.6-1.66,8.22-1.94,7.3-12.13-9.49-.3-7.76,6.59-10,5.72-1.79-.64,2.67-6.3-5.92-11.3-4.82,8.93,1.78,11.73.41,13.22s-4-5.16-12.17-2.35c2.22,11,12.86,6.78,11.43,10-1,2.35-8.27-4.54-11.12,4,4.08,7.45,11.42,5.69,15.73,2.57.92,14.32,10.28,15.52,20.76,25.47-27.92-11.61-61.87,2.66-74.7,4.52,2,4.41,5.84,9.21,10.87,11-7.91,7.29-8.11,11.32-13.29,16.61C14.05,183.35,24.61,195,39.68,183.3Zm-15.81-2.2c3.65-5.56,8.77-10.59,15.86-16.48-4.64-.59-8.29-2.12-12.83-5.49,9.72-2.58,30.12-9.95,47.52-6.64,5.71.77,8.92,3.09,6.83,4.42-9.33,6.2-20.89,20.57-29.28,37.33-7.34-9.16-4.23-21.15-2.72-24.6C34.58,178.47,30.76,182.79,23.87,181.1Z"/><path class="cls-3" d="M259.58,172.65v8.4c2.88-3.5,8.49-2.81,8.49-2.81v12.12s-.2,6-2.3,8.53h12.09c-2.11-2.56-2.29-8.53-2.29-8.53V178.27s5.58-.69,8.46,2.8v-8.39H259.58Z"/></g></g></svg>