<svg width="163" height="51" viewBox="0 0 163 51" fill="none" xmlns="http://www.w3.org/2000/svg">
<path d="M62.0703 17.3955C62.0703 17.2178 62.043 17.0583 61.9883 16.917C61.9382 16.7712 61.8424 16.639 61.7012 16.5205C61.5599 16.3975 61.3617 16.2767 61.1064 16.1582C60.8512 16.0397 60.5208 15.9167 60.1152 15.7891C59.6641 15.6432 59.2357 15.4792 58.8301 15.2969C58.429 15.1146 58.0736 14.9027 57.7637 14.6611C57.4583 14.415 57.2168 14.1302 57.0391 13.8066C56.8659 13.4831 56.7793 13.1071 56.7793 12.6787C56.7793 12.264 56.8704 11.888 57.0527 11.5508C57.235 11.209 57.4902 10.9173 57.8184 10.6758C58.1465 10.4297 58.5339 10.2406 58.9805 10.1084C59.4316 9.97624 59.9261 9.91016 60.4639 9.91016C61.1976 9.91016 61.8379 10.0423 62.3848 10.3066C62.9316 10.571 63.3555 10.9333 63.6562 11.3936C63.9616 11.8538 64.1143 12.3802 64.1143 12.9727H62.0771C62.0771 12.681 62.0156 12.4258 61.8926 12.207C61.7741 11.9837 61.5918 11.8083 61.3457 11.6807C61.1042 11.5531 60.7988 11.4893 60.4297 11.4893C60.0742 11.4893 59.778 11.5439 59.541 11.6533C59.304 11.7581 59.1263 11.9017 59.0078 12.084C58.8893 12.2617 58.8301 12.4622 58.8301 12.6855C58.8301 12.8542 58.8711 13.0068 58.9531 13.1436C59.0397 13.2803 59.1673 13.4079 59.3359 13.5264C59.5046 13.6449 59.7119 13.7565 59.958 13.8613C60.2041 13.9661 60.4889 14.0687 60.8125 14.1689C61.3548 14.333 61.8311 14.5176 62.2412 14.7227C62.6559 14.9277 63.0023 15.1579 63.2803 15.4131C63.5583 15.6683 63.7679 15.9577 63.9092 16.2812C64.0505 16.6048 64.1211 16.9717 64.1211 17.3818C64.1211 17.8148 64.0368 18.2021 63.8682 18.5439C63.6995 18.8857 63.4557 19.1751 63.1367 19.4121C62.8177 19.6491 62.4372 19.8291 61.9951 19.9521C61.5531 20.0752 61.0586 20.1367 60.5117 20.1367C60.0195 20.1367 59.5342 20.0729 59.0557 19.9453C58.5771 19.8132 58.1419 19.6149 57.75 19.3506C57.3626 19.0863 57.0527 18.749 56.8203 18.3389C56.5879 17.9287 56.4717 17.4434 56.4717 16.8828H58.5293C58.5293 17.1927 58.5771 17.4548 58.6729 17.6689C58.7686 17.8831 58.903 18.0563 59.0762 18.1885C59.2539 18.3206 59.4635 18.4163 59.7051 18.4756C59.9512 18.5348 60.2201 18.5645 60.5117 18.5645C60.8672 18.5645 61.1589 18.5143 61.3867 18.4141C61.6191 18.3138 61.79 18.1748 61.8994 17.9971C62.0133 17.8193 62.0703 17.6188 62.0703 17.3955ZM69.3848 18.332V15.0371C69.3848 14.8001 69.346 14.5973 69.2686 14.4287C69.1911 14.2555 69.0703 14.1211 68.9062 14.0254C68.7467 13.9297 68.5394 13.8818 68.2842 13.8818C68.0654 13.8818 67.8763 13.9206 67.7168 13.998C67.5573 14.071 67.4342 14.1781 67.3477 14.3193C67.2611 14.4561 67.2178 14.6178 67.2178 14.8047H65.249C65.249 14.4902 65.3219 14.1917 65.4678 13.9092C65.6136 13.6266 65.8255 13.3783 66.1035 13.1641C66.3815 12.9453 66.7119 12.7744 67.0947 12.6514C67.4821 12.5283 67.915 12.4668 68.3936 12.4668C68.9678 12.4668 69.4782 12.5625 69.9248 12.7539C70.3714 12.9453 70.7223 13.2324 70.9775 13.6152C71.2373 13.998 71.3672 14.4766 71.3672 15.0508V18.2158C71.3672 18.6214 71.3923 18.9541 71.4424 19.2139C71.4925 19.4691 71.5654 19.6924 71.6611 19.8838V20H69.6719C69.5762 19.7995 69.5033 19.5488 69.4531 19.248C69.4076 18.9427 69.3848 18.6374 69.3848 18.332ZM69.6445 15.4951L69.6582 16.6094H68.5576C68.2979 16.6094 68.0723 16.639 67.8809 16.6982C67.6895 16.7575 67.5322 16.8418 67.4092 16.9512C67.2861 17.056 67.195 17.179 67.1357 17.3203C67.0811 17.4616 67.0537 17.6165 67.0537 17.7852C67.0537 17.9538 67.0924 18.1064 67.1699 18.2432C67.2474 18.3753 67.359 18.4801 67.5049 18.5576C67.6507 18.6305 67.8216 18.667 68.0176 18.667C68.3138 18.667 68.5713 18.6077 68.79 18.4893C69.0088 18.3708 69.1774 18.2249 69.2959 18.0518C69.4189 17.8786 69.4827 17.7145 69.4873 17.5596L70.0068 18.3936C69.9339 18.5804 69.8337 18.7741 69.7061 18.9746C69.583 19.1751 69.4258 19.3643 69.2344 19.542C69.043 19.7152 68.8128 19.8587 68.5439 19.9727C68.2751 20.082 67.9561 20.1367 67.5869 20.1367C67.1175 20.1367 66.6914 20.0433 66.3086 19.8564C65.9303 19.665 65.6296 19.403 65.4062 19.0703C65.1875 18.7331 65.0781 18.3503 65.0781 17.9219C65.0781 17.5345 65.151 17.1904 65.2969 16.8896C65.4427 16.5889 65.6569 16.3359 65.9395 16.1309C66.2266 15.9212 66.5843 15.764 67.0127 15.6592C67.4411 15.5498 67.9378 15.4951 68.5029 15.4951H69.6445ZM74.8057 9.5V20H72.8369V9.5H74.8057ZM74.5254 16.042H73.9854C73.9899 15.527 74.0583 15.0531 74.1904 14.6201C74.3226 14.1826 74.5117 13.8044 74.7578 13.4854C75.0039 13.1618 75.2979 12.9111 75.6396 12.7334C75.986 12.5557 76.3688 12.4668 76.7881 12.4668C77.1527 12.4668 77.4831 12.5192 77.7793 12.624C78.0801 12.7243 78.3376 12.8883 78.5518 13.1162C78.7705 13.3395 78.9391 13.6335 79.0576 13.998C79.1761 14.3626 79.2354 14.8047 79.2354 15.3242V20H77.2529V15.3105C77.2529 14.9824 77.2051 14.7249 77.1094 14.5381C77.0182 14.3467 76.8838 14.2122 76.7061 14.1348C76.5329 14.0527 76.3187 14.0117 76.0635 14.0117C75.7809 14.0117 75.5394 14.0641 75.3389 14.1689C75.1429 14.2738 74.9857 14.4196 74.8672 14.6064C74.7487 14.7887 74.6621 15.0029 74.6074 15.249C74.5527 15.4951 74.5254 15.7594 74.5254 16.042ZM82.8105 12.6035V20H80.835V12.6035H82.8105ZM80.7119 10.6758C80.7119 10.3887 80.8122 10.1517 81.0127 9.96484C81.2132 9.77799 81.4821 9.68457 81.8193 9.68457C82.152 9.68457 82.4186 9.77799 82.6191 9.96484C82.8242 10.1517 82.9268 10.3887 82.9268 10.6758C82.9268 10.9629 82.8242 11.1999 82.6191 11.3867C82.4186 11.5736 82.152 11.667 81.8193 11.667C81.4821 11.667 81.2132 11.5736 81.0127 11.3867C80.8122 11.1999 80.7119 10.9629 80.7119 10.6758ZM86.3584 9.5V20H84.3896V9.5H86.3584ZM86.0781 16.042H85.5381C85.5426 15.527 85.611 15.0531 85.7432 14.6201C85.8753 14.1826 86.0645 13.8044 86.3105 13.4854C86.5566 13.1618 86.8506 12.9111 87.1924 12.7334C87.5387 12.5557 87.9215 12.4668 88.3408 12.4668C88.7054 12.4668 89.0358 12.5192 89.332 12.624C89.6328 12.7243 89.8903 12.8883 90.1045 13.1162C90.3232 13.3395 90.4919 13.6335 90.6104 13.998C90.7288 14.3626 90.7881 14.8047 90.7881 15.3242V20H88.8057V15.3105C88.8057 14.9824 88.7578 14.7249 88.6621 14.5381C88.571 14.3467 88.4365 14.2122 88.2588 14.1348C88.0856 14.0527 87.8714 14.0117 87.6162 14.0117C87.3337 14.0117 87.0921 14.0641 86.8916 14.1689C86.6956 14.2738 86.5384 14.4196 86.4199 14.6064C86.3014 14.7887 86.2148 15.0029 86.1602 15.249C86.1055 15.4951 86.0781 15.7594 86.0781 16.042ZM98.0752 10.0469V20H96.0312V10.0469H98.0752ZM101.801 14.1826V20H99.832V12.6035H101.678L101.801 14.1826ZM101.514 16.042H100.98C100.98 15.4951 101.051 15.0029 101.192 14.5654C101.334 14.1234 101.532 13.7474 101.787 13.4375C102.042 13.123 102.345 12.8838 102.696 12.7197C103.052 12.5511 103.448 12.4668 103.886 12.4668C104.232 12.4668 104.549 12.5169 104.836 12.6172C105.123 12.7174 105.369 12.877 105.574 13.0957C105.784 13.3145 105.943 13.6038 106.053 13.9639C106.167 14.3239 106.224 14.7637 106.224 15.2832V20H104.241V15.2764C104.241 14.9482 104.196 14.693 104.104 14.5107C104.013 14.3285 103.879 14.2008 103.701 14.1279C103.528 14.0505 103.314 14.0117 103.059 14.0117C102.794 14.0117 102.564 14.0641 102.368 14.1689C102.177 14.2738 102.017 14.4196 101.89 14.6064C101.767 14.7887 101.673 15.0029 101.609 15.249C101.546 15.4951 101.514 15.7594 101.514 16.042ZM110.236 18.5645L111.877 12.6035H113.935L111.439 20H110.195L110.236 18.5645ZM109.108 12.6035L110.756 18.5713L110.79 20H109.539L107.044 12.6035H109.108ZM118.125 20.1367C117.551 20.1367 117.036 20.0456 116.58 19.8633C116.124 19.6764 115.737 19.4189 115.418 19.0908C115.104 18.7627 114.862 18.3822 114.693 17.9492C114.525 17.5117 114.44 17.0469 114.44 16.5547V16.2812C114.44 15.7207 114.52 15.208 114.68 14.7432C114.839 14.2783 115.067 13.875 115.363 13.5332C115.664 13.1914 116.029 12.9294 116.457 12.7471C116.885 12.5602 117.368 12.4668 117.906 12.4668C118.43 12.4668 118.895 12.5534 119.301 12.7266C119.706 12.8997 120.046 13.1458 120.319 13.4648C120.597 13.7839 120.807 14.1667 120.948 14.6133C121.09 15.0553 121.16 15.5475 121.16 16.0898V16.9102H115.281V15.5977H119.226V15.4473C119.226 15.1738 119.175 14.93 119.075 14.7158C118.979 14.4971 118.834 14.3239 118.638 14.1963C118.442 14.0687 118.191 14.0049 117.886 14.0049C117.626 14.0049 117.403 14.0618 117.216 14.1758C117.029 14.2897 116.876 14.4492 116.758 14.6543C116.644 14.8594 116.557 15.1009 116.498 15.3789C116.443 15.6523 116.416 15.9531 116.416 16.2812V16.5547C116.416 16.8509 116.457 17.1243 116.539 17.375C116.626 17.6257 116.746 17.8421 116.901 18.0244C117.061 18.2067 117.252 18.348 117.476 18.4482C117.703 18.5485 117.961 18.5986 118.248 18.5986C118.604 18.5986 118.934 18.5303 119.239 18.3936C119.549 18.2523 119.816 18.0404 120.039 17.7578L120.996 18.7969C120.841 19.0202 120.629 19.2344 120.36 19.4395C120.096 19.6445 119.777 19.8132 119.403 19.9453C119.03 20.0729 118.604 20.1367 118.125 20.1367ZM126.28 17.9561C126.28 17.8148 126.239 17.6872 126.157 17.5732C126.075 17.4593 125.923 17.3545 125.699 17.2588C125.48 17.1585 125.164 17.0674 124.749 16.9854C124.375 16.9033 124.027 16.8008 123.703 16.6777C123.384 16.5501 123.106 16.3975 122.869 16.2197C122.637 16.042 122.454 15.8324 122.322 15.5908C122.19 15.3447 122.124 15.0645 122.124 14.75C122.124 14.4401 122.19 14.1484 122.322 13.875C122.459 13.6016 122.653 13.36 122.903 13.1504C123.159 12.9362 123.468 12.7699 123.833 12.6514C124.202 12.5283 124.617 12.4668 125.077 12.4668C125.72 12.4668 126.271 12.5693 126.731 12.7744C127.196 12.9795 127.552 13.262 127.798 13.6221C128.049 13.9775 128.174 14.3831 128.174 14.8389H126.205C126.205 14.6475 126.164 14.4766 126.082 14.3262C126.005 14.1712 125.882 14.0505 125.713 13.9639C125.549 13.8727 125.335 13.8271 125.07 13.8271C124.852 13.8271 124.662 13.8659 124.503 13.9434C124.343 14.0163 124.22 14.1165 124.134 14.2441C124.052 14.3672 124.011 14.5039 124.011 14.6543C124.011 14.7682 124.034 14.8708 124.079 14.9619C124.129 15.0485 124.209 15.1283 124.318 15.2012C124.428 15.2741 124.569 15.3424 124.742 15.4062C124.92 15.4655 125.139 15.5202 125.398 15.5703C125.932 15.6797 126.408 15.8232 126.827 16.001C127.246 16.1742 127.579 16.4111 127.825 16.7119C128.071 17.0081 128.194 17.3978 128.194 17.8809C128.194 18.209 128.121 18.5098 127.976 18.7832C127.83 19.0566 127.62 19.2959 127.347 19.501C127.073 19.7015 126.745 19.8587 126.362 19.9727C125.984 20.082 125.558 20.1367 125.084 20.1367C124.396 20.1367 123.812 20.0137 123.334 19.7676C122.86 19.5215 122.5 19.2093 122.254 18.8311C122.012 18.4482 121.892 18.0563 121.892 17.6553H123.758C123.767 17.9242 123.835 18.1406 123.963 18.3047C124.095 18.4688 124.261 18.5872 124.462 18.6602C124.667 18.7331 124.888 18.7695 125.125 18.7695C125.38 18.7695 125.592 18.7354 125.761 18.667C125.929 18.5941 126.057 18.4984 126.144 18.3799C126.235 18.2568 126.28 18.1156 126.28 17.9561ZM133.096 12.6035V13.998H128.789V12.6035H133.096ZM129.855 10.7783H131.824V17.7715C131.824 17.9857 131.852 18.1497 131.906 18.2637C131.965 18.3776 132.052 18.4574 132.166 18.5029C132.28 18.5439 132.424 18.5645 132.597 18.5645C132.72 18.5645 132.829 18.5599 132.925 18.5508C133.025 18.5371 133.109 18.5234 133.178 18.5098L133.185 19.959C133.016 20.0137 132.834 20.057 132.638 20.0889C132.442 20.1208 132.225 20.1367 131.988 20.1367C131.555 20.1367 131.177 20.0661 130.854 19.9248C130.535 19.779 130.288 19.5465 130.115 19.2275C129.942 18.9085 129.855 18.4893 129.855 17.9697V10.7783Z" fill="#333333"/>
<path d="M62.1406 31.2871H63.2656C63.207 31.8262 63.0527 32.3086 62.8027 32.7344C62.5527 33.1602 62.1992 33.498 61.7422 33.748C61.2852 33.9941 60.7148 34.1172 60.0312 34.1172C59.5312 34.1172 59.0762 34.0234 58.666 33.8359C58.2598 33.6484 57.9102 33.3828 57.6172 33.0391C57.3242 32.6914 57.0977 32.2754 56.9375 31.791C56.7812 31.3027 56.7031 30.7598 56.7031 30.1621V29.3125C56.7031 28.7148 56.7812 28.1738 56.9375 27.6895C57.0977 27.2012 57.3262 26.7832 57.623 26.4355C57.9238 26.0879 58.2852 25.8203 58.707 25.6328C59.1289 25.4453 59.6035 25.3516 60.1309 25.3516C60.7754 25.3516 61.3203 25.4727 61.7656 25.7148C62.2109 25.957 62.5566 26.293 62.8027 26.7227C63.0527 27.1484 63.207 27.6426 63.2656 28.2051H62.1406C62.0859 27.8066 61.9844 27.4648 61.8359 27.1797C61.6875 26.8906 61.4766 26.668 61.2031 26.5117C60.9297 26.3555 60.5723 26.2773 60.1309 26.2773C59.752 26.2773 59.418 26.3496 59.1289 26.4941C58.8438 26.6387 58.6035 26.8438 58.4082 27.1094C58.2168 27.375 58.0723 27.6934 57.9746 28.0645C57.877 28.4355 57.8281 28.8477 57.8281 29.3008V30.1621C57.8281 30.5801 57.8711 30.9727 57.957 31.3398C58.0469 31.707 58.1816 32.0293 58.3613 32.3066C58.541 32.584 58.7695 32.8027 59.0469 32.9629C59.3242 33.1191 59.6523 33.1973 60.0312 33.1973C60.5117 33.1973 60.8945 33.1211 61.1797 32.9688C61.4648 32.8164 61.6797 32.5977 61.8242 32.3125C61.9727 32.0273 62.0781 31.6855 62.1406 31.2871ZM65.8203 27.6602V34H64.7363V27.6602H65.8203ZM69.9805 27.6602L66.9746 31.293H65.457L65.293 30.3438H66.5352L68.6621 27.6602H69.9805ZM68.8145 34L66.4824 31.1289L67.1797 30.3438L70.1914 34H68.8145ZM72.2188 28.8789V36.4375H71.1289V27.6602H72.125L72.2188 28.8789ZM76.4902 30.7773V30.9004C76.4902 31.3613 76.4355 31.7891 76.3262 32.1836C76.2168 32.5742 76.0566 32.9141 75.8457 33.2031C75.6387 33.4922 75.3828 33.7168 75.0781 33.877C74.7734 34.0371 74.4238 34.1172 74.0293 34.1172C73.627 34.1172 73.2715 34.0508 72.9629 33.918C72.6543 33.7852 72.3926 33.5918 72.1777 33.3379C71.9629 33.084 71.791 32.7793 71.6621 32.4238C71.5371 32.0684 71.4512 31.668 71.4043 31.2227V30.5664C71.4512 30.0977 71.5391 29.6777 71.668 29.3066C71.7969 28.9355 71.9668 28.6191 72.1777 28.3574C72.3926 28.0918 72.6523 27.8906 72.957 27.7539C73.2617 27.6133 73.6133 27.543 74.0117 27.543C74.4102 27.543 74.7637 27.6211 75.0723 27.7773C75.3809 27.9297 75.6406 28.1484 75.8516 28.4336C76.0625 28.7188 76.2207 29.0605 76.3262 29.459C76.4355 29.8535 76.4902 30.293 76.4902 30.7773ZM75.4004 30.9004V30.7773C75.4004 30.4609 75.3672 30.1641 75.3008 29.8867C75.2344 29.6055 75.1309 29.3594 74.9902 29.1484C74.8535 28.9336 74.6777 28.7656 74.4629 28.6445C74.248 28.5195 73.9922 28.457 73.6953 28.457C73.4219 28.457 73.1836 28.5039 72.9805 28.5977C72.7812 28.6914 72.6113 28.8184 72.4707 28.9785C72.3301 29.1348 72.2148 29.3145 72.125 29.5176C72.0391 29.7168 71.9746 29.9238 71.9316 30.1387V31.6562C72.0098 31.9297 72.1191 32.1875 72.2598 32.4297C72.4004 32.668 72.5879 32.8613 72.8223 33.0098C73.0566 33.1543 73.3516 33.2266 73.707 33.2266C74 33.2266 74.252 33.166 74.4629 33.0449C74.6777 32.9199 74.8535 32.75 74.9902 32.5352C75.1309 32.3203 75.2344 32.0742 75.3008 31.7969C75.3672 31.5156 75.4004 31.2168 75.4004 30.9004ZM79.0449 32.2832L81.9688 27.6602H83.0586V34H81.9688V29.377L79.0449 34H77.9668V27.6602H79.0449V32.2832ZM89.0996 30.4082V31.2871H85.748V30.4082H89.0996ZM85.9766 27.6602V34H84.8926V27.6602H85.9766ZM89.9785 27.6602V34H88.8887V27.6602H89.9785ZM94.3555 34.1172C93.9141 34.1172 93.5137 34.043 93.1543 33.8945C92.7988 33.7422 92.4922 33.5293 92.2344 33.2559C91.9805 32.9824 91.7852 32.6582 91.6484 32.2832C91.5117 31.9082 91.4434 31.498 91.4434 31.0527V30.8066C91.4434 30.291 91.5195 29.832 91.6719 29.4297C91.8242 29.0234 92.0312 28.6797 92.293 28.3984C92.5547 28.1172 92.8516 27.9043 93.1836 27.7598C93.5156 27.6152 93.8594 27.543 94.2148 27.543C94.668 27.543 95.0586 27.6211 95.3867 27.7773C95.7188 27.9336 95.9902 28.1523 96.2012 28.4336C96.4121 28.7109 96.5684 29.0391 96.6699 29.418C96.7715 29.793 96.8223 30.2031 96.8223 30.6484V31.1348H92.0879V30.25H95.7383V30.168C95.7227 29.8867 95.6641 29.6133 95.5625 29.3477C95.4648 29.082 95.3086 28.8633 95.0938 28.6914C94.8789 28.5195 94.5859 28.4336 94.2148 28.4336C93.9688 28.4336 93.7422 28.4863 93.5352 28.5918C93.3281 28.6934 93.1504 28.8457 93.002 29.0488C92.8535 29.252 92.7383 29.5 92.6562 29.793C92.5742 30.0859 92.5332 30.4238 92.5332 30.8066V31.0527C92.5332 31.3535 92.5742 31.6367 92.6562 31.9023C92.7422 32.1641 92.8652 32.3945 93.0254 32.5938C93.1895 32.793 93.3867 32.9492 93.6172 33.0625C93.8516 33.1758 94.1172 33.2324 94.4141 33.2324C94.7969 33.2324 95.1211 33.1543 95.3867 32.998C95.6523 32.8418 95.8848 32.6328 96.084 32.3711L96.7402 32.8926C96.6035 33.0996 96.4297 33.2969 96.2188 33.4844C96.0078 33.6719 95.748 33.8242 95.4395 33.9414C95.1348 34.0586 94.7734 34.1172 94.3555 34.1172ZM99.1719 28.8789V36.4375H98.082V27.6602H99.0781L99.1719 28.8789ZM103.443 30.7773V30.9004C103.443 31.3613 103.389 31.7891 103.279 32.1836C103.17 32.5742 103.01 32.9141 102.799 33.2031C102.592 33.4922 102.336 33.7168 102.031 33.877C101.727 34.0371 101.377 34.1172 100.982 34.1172C100.58 34.1172 100.225 34.0508 99.916 33.918C99.6074 33.7852 99.3457 33.5918 99.1309 33.3379C98.916 33.084 98.7441 32.7793 98.6152 32.4238C98.4902 32.0684 98.4043 31.668 98.3574 31.2227V30.5664C98.4043 30.0977 98.4922 29.6777 98.6211 29.3066C98.75 28.9355 98.9199 28.6191 99.1309 28.3574C99.3457 28.0918 99.6055 27.8906 99.9102 27.7539C100.215 27.6133 100.566 27.543 100.965 27.543C101.363 27.543 101.717 27.6211 102.025 27.7773C102.334 27.9297 102.594 28.1484 102.805 28.4336C103.016 28.7188 103.174 29.0605 103.279 29.459C103.389 29.8535 103.443 30.293 103.443 30.7773ZM102.354 30.9004V30.7773C102.354 30.4609 102.32 30.1641 102.254 29.8867C102.188 29.6055 102.084 29.3594 101.943 29.1484C101.807 28.9336 101.631 28.7656 101.416 28.6445C101.201 28.5195 100.945 28.457 100.648 28.457C100.375 28.457 100.137 28.5039 99.9336 28.5977C99.7344 28.6914 99.5645 28.8184 99.4238 28.9785C99.2832 29.1348 99.168 29.3145 99.0781 29.5176C98.9922 29.7168 98.9277 29.9238 98.8848 30.1387V31.6562C98.9629 31.9297 99.0723 32.1875 99.2129 32.4297C99.3535 32.668 99.541 32.8613 99.7754 33.0098C100.01 33.1543 100.305 33.2266 100.66 33.2266C100.953 33.2266 101.205 33.166 101.416 33.0449C101.631 32.9199 101.807 32.75 101.943 32.5352C102.084 32.3203 102.188 32.0742 102.254 31.7969C102.32 31.5156 102.354 31.2168 102.354 30.9004ZM111.541 32.916V29.6523C111.541 29.4023 111.49 29.1855 111.389 29.002C111.291 28.8145 111.143 28.6699 110.943 28.5684C110.744 28.4668 110.498 28.416 110.205 28.416C109.932 28.416 109.691 28.4629 109.484 28.5566C109.281 28.6504 109.121 28.7734 109.004 28.9258C108.891 29.0781 108.834 29.2422 108.834 29.418H107.75C107.75 29.1914 107.809 28.9668 107.926 28.7441C108.043 28.5215 108.211 28.3203 108.43 28.1406C108.652 27.957 108.918 27.8125 109.227 27.707C109.539 27.5977 109.887 27.543 110.27 27.543C110.73 27.543 111.137 27.6211 111.488 27.7773C111.844 27.9336 112.121 28.1699 112.32 28.4863C112.523 28.7988 112.625 29.1914 112.625 29.6641V32.6172C112.625 32.8281 112.643 33.0527 112.678 33.291C112.717 33.5293 112.773 33.7344 112.848 33.9062V34H111.717C111.662 33.875 111.619 33.709 111.588 33.502C111.557 33.291 111.541 33.0957 111.541 32.916ZM111.729 30.1562L111.74 30.918H110.645C110.336 30.918 110.061 30.9434 109.818 30.9941C109.576 31.041 109.373 31.1133 109.209 31.2109C109.045 31.3086 108.92 31.4316 108.834 31.5801C108.748 31.7246 108.705 31.8945 108.705 32.0898C108.705 32.2891 108.75 32.4707 108.84 32.6348C108.93 32.7988 109.064 32.9297 109.244 33.0273C109.428 33.1211 109.652 33.168 109.918 33.168C110.25 33.168 110.543 33.0977 110.797 32.957C111.051 32.8164 111.252 32.6445 111.4 32.4414C111.553 32.2383 111.635 32.041 111.646 31.8496L112.109 32.3711C112.082 32.5352 112.008 32.7168 111.887 32.916C111.766 33.1152 111.604 33.3066 111.4 33.4902C111.201 33.6699 110.963 33.8203 110.686 33.9414C110.412 34.0586 110.104 34.1172 109.76 34.1172C109.33 34.1172 108.953 34.0332 108.629 33.8652C108.309 33.6973 108.059 33.4727 107.879 33.1914C107.703 32.9062 107.615 32.5879 107.615 32.2363C107.615 31.8965 107.682 31.5977 107.814 31.3398C107.947 31.0781 108.139 30.8613 108.389 30.6895C108.639 30.5137 108.939 30.3809 109.291 30.291C109.643 30.2012 110.035 30.1562 110.469 30.1562H111.729ZM115.508 27.6602V34H114.424V27.6602H115.508ZM119.668 27.6602L116.662 31.293H115.145L114.98 30.3438H116.223L118.35 27.6602H119.668ZM118.502 34L116.17 31.1289L116.867 30.3438L119.879 34H118.502ZM120.916 34V27.6602H122V33.1094H124.918V27.6602H126.008V34H120.916ZM126.758 33.1094L126.652 35.8809H125.686V34H124.859V33.1094H126.758ZM129.107 32.2832L132.031 27.6602H133.121V34H132.031V29.377L129.107 34H128.029V27.6602H129.107V32.2832ZM136.033 32.2832L138.957 27.6602H140.047V34H138.957V29.377L136.033 34H134.955V27.6602H136.033V32.2832ZM138.365 25.3633H139.244C139.244 25.668 139.174 25.9395 139.033 26.1777C138.893 26.4121 138.691 26.5957 138.43 26.7285C138.168 26.8613 137.857 26.9277 137.498 26.9277C136.955 26.9277 136.525 26.7832 136.209 26.4941C135.896 26.2012 135.74 25.8242 135.74 25.3633H136.619C136.619 25.5938 136.686 25.7969 136.818 25.9727C136.951 26.1484 137.178 26.2363 137.498 26.2363C137.811 26.2363 138.033 26.1484 138.166 25.9727C138.299 25.7969 138.365 25.5938 138.365 25.3633ZM61.0508 37.6602V38.5566H57.8457V37.6602H61.0508ZM58.0039 37.6602V44H56.9199V37.6602H58.0039ZM62.0117 37.6602V44H60.9219V37.6602H62.0117ZM63.4648 40.9004V40.7656C63.4648 40.3086 63.5312 39.8848 63.6641 39.4941C63.7969 39.0996 63.9883 38.7578 64.2383 38.4688C64.4883 38.1758 64.791 37.9492 65.1465 37.7891C65.502 37.625 65.9004 37.543 66.3418 37.543C66.7871 37.543 67.1875 37.625 67.543 37.7891C67.9023 37.9492 68.207 38.1758 68.457 38.4688C68.7109 38.7578 68.9043 39.0996 69.0371 39.4941C69.1699 39.8848 69.2363 40.3086 69.2363 40.7656V40.9004C69.2363 41.3574 69.1699 41.7812 69.0371 42.1719C68.9043 42.5625 68.7109 42.9043 68.457 43.1973C68.207 43.4863 67.9043 43.7129 67.5488 43.877C67.1973 44.0371 66.7988 44.1172 66.3535 44.1172C65.9082 44.1172 65.5078 44.0371 65.1523 43.877C64.7969 43.7129 64.4922 43.4863 64.2383 43.1973C63.9883 42.9043 63.7969 42.5625 63.6641 42.1719C63.5312 41.7812 63.4648 41.3574 63.4648 40.9004ZM64.5488 40.7656V40.9004C64.5488 41.2168 64.5859 41.5156 64.6602 41.7969C64.7344 42.0742 64.8457 42.3203 64.9941 42.5352C65.1465 42.75 65.3359 42.9199 65.5625 43.0449C65.7891 43.166 66.0527 43.2266 66.3535 43.2266C66.6504 43.2266 66.9102 43.166 67.1328 43.0449C67.3594 42.9199 67.5469 42.75 67.6953 42.5352C67.8438 42.3203 67.9551 42.0742 68.0293 41.7969C68.1074 41.5156 68.1465 41.2168 68.1465 40.9004V40.7656C68.1465 40.4531 68.1074 40.1582 68.0293 39.8809C67.9551 39.5996 67.8418 39.3516 67.6895 39.1367C67.541 38.918 67.3535 38.7461 67.127 38.6211C66.9043 38.4961 66.6426 38.4336 66.3418 38.4336C66.0449 38.4336 65.7832 38.4961 65.5566 38.6211C65.334 38.7461 65.1465 38.918 64.9941 39.1367C64.8457 39.3516 64.7344 39.5996 64.6602 39.8809C64.5859 40.1582 64.5488 40.4531 64.5488 40.7656ZM77.873 40.4082V41.2871H74.5215V40.4082H77.873ZM74.75 37.6602V44H73.666V37.6602H74.75ZM78.752 37.6602V44H77.6621V37.6602H78.752ZM80.2109 40.9004V40.7656C80.2109 40.3086 80.2773 39.8848 80.4102 39.4941C80.543 39.0996 80.7344 38.7578 80.9844 38.4688C81.2344 38.1758 81.5371 37.9492 81.8926 37.7891C82.248 37.625 82.6465 37.543 83.0879 37.543C83.5332 37.543 83.9336 37.625 84.2891 37.7891C84.6484 37.9492 84.9531 38.1758 85.2031 38.4688C85.457 38.7578 85.6504 39.0996 85.7832 39.4941C85.916 39.8848 85.9824 40.3086 85.9824 40.7656V40.9004C85.9824 41.3574 85.916 41.7812 85.7832 42.1719C85.6504 42.5625 85.457 42.9043 85.2031 43.1973C84.9531 43.4863 84.6504 43.7129 84.2949 43.877C83.9434 44.0371 83.5449 44.1172 83.0996 44.1172C82.6543 44.1172 82.2539 44.0371 81.8984 43.877C81.543 43.7129 81.2383 43.4863 80.9844 43.1973C80.7344 42.9043 80.543 42.5625 80.4102 42.1719C80.2773 41.7812 80.2109 41.3574 80.2109 40.9004ZM81.2949 40.7656V40.9004C81.2949 41.2168 81.332 41.5156 81.4062 41.7969C81.4805 42.0742 81.5918 42.3203 81.7402 42.5352C81.8926 42.75 82.082 42.9199 82.3086 43.0449C82.5352 43.166 82.7988 43.2266 83.0996 43.2266C83.3965 43.2266 83.6562 43.166 83.8789 43.0449C84.1055 42.9199 84.293 42.75 84.4414 42.5352C84.5898 42.3203 84.7012 42.0742 84.7754 41.7969C84.8535 41.5156 84.8926 41.2168 84.8926 40.9004V40.7656C84.8926 40.4531 84.8535 40.1582 84.7754 39.8809C84.7012 39.5996 84.5879 39.3516 84.4355 39.1367C84.2871 38.918 84.0996 38.7461 83.873 38.6211C83.6504 38.4961 83.3887 38.4336 83.0879 38.4336C82.791 38.4336 82.5293 38.4961 82.3027 38.6211C82.0801 38.7461 81.8926 38.918 81.7402 39.1367C81.5918 39.3516 81.4805 39.5996 81.4062 39.8809C81.332 40.1582 81.2949 40.4531 81.2949 40.7656ZM88.4258 38.8789V46.4375H87.3359V37.6602H88.332L88.4258 38.8789ZM92.6973 40.7773V40.9004C92.6973 41.3613 92.6426 41.7891 92.5332 42.1836C92.4238 42.5742 92.2637 42.9141 92.0527 43.2031C91.8457 43.4922 91.5898 43.7168 91.2852 43.877C90.9805 44.0371 90.6309 44.1172 90.2363 44.1172C89.834 44.1172 89.4785 44.0508 89.1699 43.918C88.8613 43.7852 88.5996 43.5918 88.3848 43.3379C88.1699 43.084 87.998 42.7793 87.8691 42.4238C87.7441 42.0684 87.6582 41.668 87.6113 41.2227V40.5664C87.6582 40.0977 87.7461 39.6777 87.875 39.3066C88.0039 38.9355 88.1738 38.6191 88.3848 38.3574C88.5996 38.0918 88.8594 37.8906 89.1641 37.7539C89.4688 37.6133 89.8203 37.543 90.2188 37.543C90.6172 37.543 90.9707 37.6211 91.2793 37.7773C91.5879 37.9297 91.8477 38.1484 92.0586 38.4336C92.2695 38.7188 92.4277 39.0605 92.5332 39.459C92.6426 39.8535 92.6973 40.293 92.6973 40.7773ZM91.6074 40.9004V40.7773C91.6074 40.4609 91.5742 40.1641 91.5078 39.8867C91.4414 39.6055 91.3379 39.3594 91.1973 39.1484C91.0605 38.9336 90.8848 38.7656 90.6699 38.6445C90.4551 38.5195 90.1992 38.457 89.9023 38.457C89.6289 38.457 89.3906 38.5039 89.1875 38.5977C88.9883 38.6914 88.8184 38.8184 88.6777 38.9785C88.5371 39.1348 88.4219 39.3145 88.332 39.5176C88.2461 39.7168 88.1816 39.9238 88.1387 40.1387V41.6562C88.2168 41.9297 88.3262 42.1875 88.4668 42.4297C88.6074 42.668 88.7949 42.8613 89.0293 43.0098C89.2637 43.1543 89.5586 43.2266 89.9141 43.2266C90.207 43.2266 90.459 43.166 90.6699 43.0449C90.8848 42.9199 91.0605 42.75 91.1973 42.5352C91.3379 42.3203 91.4414 42.0742 91.5078 41.7969C91.5742 41.5156 91.6074 41.2168 91.6074 40.9004ZM97.7246 42.5586L99.8809 37.6602H100.924L98.0996 44H97.3496L94.5371 37.6602H95.5801L97.7246 42.5586ZM95.2637 37.6602V44H94.1797V37.6602H95.2637ZM100.15 44V37.6602H101.24V44H100.15ZM106.725 42.916V39.6523C106.725 39.4023 106.674 39.1855 106.572 39.002C106.475 38.8145 106.326 38.6699 106.127 38.5684C105.928 38.4668 105.682 38.416 105.389 38.416C105.115 38.416 104.875 38.4629 104.668 38.5566C104.465 38.6504 104.305 38.7734 104.188 38.9258C104.074 39.0781 104.018 39.2422 104.018 39.418H102.934C102.934 39.1914 102.992 38.9668 103.109 38.7441C103.227 38.5215 103.395 38.3203 103.613 38.1406C103.836 37.957 104.102 37.8125 104.41 37.707C104.723 37.5977 105.07 37.543 105.453 37.543C105.914 37.543 106.32 37.6211 106.672 37.7773C107.027 37.9336 107.305 38.1699 107.504 38.4863C107.707 38.7988 107.809 39.1914 107.809 39.6641V42.6172C107.809 42.8281 107.826 43.0527 107.861 43.291C107.9 43.5293 107.957 43.7344 108.031 43.9062V44H106.9C106.846 43.875 106.803 43.709 106.771 43.502C106.74 43.291 106.725 43.0957 106.725 42.916ZM106.912 40.1562L106.924 40.918H105.828C105.52 40.918 105.244 40.9434 105.002 40.9941C104.76 41.041 104.557 41.1133 104.393 41.2109C104.229 41.3086 104.104 41.4316 104.018 41.5801C103.932 41.7246 103.889 41.8945 103.889 42.0898C103.889 42.2891 103.934 42.4707 104.023 42.6348C104.113 42.7988 104.248 42.9297 104.428 43.0273C104.611 43.1211 104.836 43.168 105.102 43.168C105.434 43.168 105.727 43.0977 105.98 42.957C106.234 42.8164 106.436 42.6445 106.584 42.4414C106.736 42.2383 106.818 42.041 106.83 41.8496L107.293 42.3711C107.266 42.5352 107.191 42.7168 107.07 42.916C106.949 43.1152 106.787 43.3066 106.584 43.4902C106.385 43.6699 106.146 43.8203 105.869 43.9414C105.596 44.0586 105.287 44.1172 104.943 44.1172C104.514 44.1172 104.137 44.0332 103.812 43.8652C103.492 43.6973 103.242 43.4727 103.062 43.1914C102.887 42.9062 102.799 42.5879 102.799 42.2363C102.799 41.8965 102.865 41.5977 102.998 41.3398C103.131 41.0781 103.322 40.8613 103.572 40.6895C103.822 40.5137 104.123 40.3809 104.475 40.291C104.826 40.2012 105.219 40.1562 105.652 40.1562H106.912ZM113.158 42.5586L115.314 37.6602H116.357L113.533 44H112.783L109.971 37.6602H111.014L113.158 42.5586ZM110.697 37.6602V44H109.613V37.6602H110.697ZM115.584 44V37.6602H116.674V44H115.584ZM122.568 42.2832L125.492 37.6602H126.582V44H125.492V39.377L122.568 44H121.49V37.6602H122.568V42.2832ZM130.859 43.2266C131.117 43.2266 131.355 43.1738 131.574 43.0684C131.793 42.9629 131.973 42.8184 132.113 42.6348C132.254 42.4473 132.334 42.2344 132.354 41.9961H133.385C133.365 42.3711 133.238 42.7207 133.004 43.0449C132.773 43.3652 132.471 43.625 132.096 43.8242C131.721 44.0195 131.309 44.1172 130.859 44.1172C130.383 44.1172 129.967 44.0332 129.611 43.8652C129.26 43.6973 128.967 43.4668 128.732 43.1738C128.502 42.8809 128.328 42.5449 128.211 42.166C128.098 41.7832 128.041 41.3789 128.041 40.9531V40.707C128.041 40.2812 128.098 39.8789 128.211 39.5C128.328 39.1172 128.502 38.7793 128.732 38.4863C128.967 38.1934 129.26 37.9629 129.611 37.7949C129.967 37.627 130.383 37.543 130.859 37.543C131.355 37.543 131.789 37.6445 132.16 37.8477C132.531 38.0469 132.822 38.3203 133.033 38.668C133.248 39.0117 133.365 39.4023 133.385 39.8398H132.354C132.334 39.5781 132.26 39.3418 132.131 39.1309C132.006 38.9199 131.834 38.752 131.615 38.627C131.4 38.498 131.148 38.4336 130.859 38.4336C130.527 38.4336 130.248 38.5 130.021 38.6328C129.799 38.7617 129.621 38.9375 129.488 39.1602C129.359 39.3789 129.266 39.623 129.207 39.8926C129.152 40.1582 129.125 40.4297 129.125 40.707V40.9531C129.125 41.2305 129.152 41.5039 129.207 41.7734C129.262 42.043 129.354 42.2871 129.482 42.5059C129.615 42.7246 129.793 42.9004 130.016 43.0332C130.242 43.1621 130.523 43.2266 130.859 43.2266ZM138.84 37.6602V38.5566H135.775V37.6602H138.84ZM139.795 37.6602V44H138.711V37.6602H139.795ZM135.512 37.6602H136.602L136.438 40.7188C136.41 41.1914 136.365 41.6094 136.303 41.9727C136.244 42.332 136.162 42.6406 136.057 42.8984C135.955 43.1562 135.826 43.3672 135.67 43.5312C135.518 43.6914 135.334 43.8105 135.119 43.8887C134.904 43.9629 134.656 44 134.375 44H134.035V43.0449L134.27 43.0273C134.438 43.0156 134.58 42.9766 134.697 42.9102C134.818 42.8438 134.92 42.7461 135.002 42.6172C135.084 42.4844 135.15 42.3145 135.201 42.1074C135.256 41.9004 135.297 41.6543 135.324 41.3691C135.355 41.084 135.379 40.752 135.395 40.373L135.512 37.6602ZM145.279 42.916V39.6523C145.279 39.4023 145.229 39.1855 145.127 39.002C145.029 38.8145 144.881 38.6699 144.682 38.5684C144.482 38.4668 144.236 38.416 143.943 38.416C143.67 38.416 143.43 38.4629 143.223 38.5566C143.02 38.6504 142.859 38.7734 142.742 38.9258C142.629 39.0781 142.572 39.2422 142.572 39.418H141.488C141.488 39.1914 141.547 38.9668 141.664 38.7441C141.781 38.5215 141.949 38.3203 142.168 38.1406C142.391 37.957 142.656 37.8125 142.965 37.707C143.277 37.5977 143.625 37.543 144.008 37.543C144.469 37.543 144.875 37.6211 145.227 37.7773C145.582 37.9336 145.859 38.1699 146.059 38.4863C146.262 38.7988 146.363 39.1914 146.363 39.6641V42.6172C146.363 42.8281 146.381 43.0527 146.416 43.291C146.455 43.5293 146.512 43.7344 146.586 43.9062V44H145.455C145.4 43.875 145.357 43.709 145.326 43.502C145.295 43.291 145.279 43.0957 145.279 42.916ZM145.467 40.1562L145.479 40.918H144.383C144.074 40.918 143.799 40.9434 143.557 40.9941C143.314 41.041 143.111 41.1133 142.947 41.2109C142.783 41.3086 142.658 41.4316 142.572 41.5801C142.486 41.7246 142.443 41.8945 142.443 42.0898C142.443 42.2891 142.488 42.4707 142.578 42.6348C142.668 42.7988 142.803 42.9297 142.982 43.0273C143.166 43.1211 143.391 43.168 143.656 43.168C143.988 43.168 144.281 43.0977 144.535 42.957C144.789 42.8164 144.99 42.6445 145.139 42.4414C145.291 42.2383 145.373 42.041 145.385 41.8496L145.848 42.3711C145.82 42.5352 145.746 42.7168 145.625 42.916C145.504 43.1152 145.342 43.3066 145.139 43.4902C144.939 43.6699 144.701 43.8203 144.424 43.9414C144.15 44.0586 143.842 44.1172 143.498 44.1172C143.068 44.1172 142.691 44.0332 142.367 43.8652C142.047 43.6973 141.797 43.4727 141.617 43.1914C141.441 42.9062 141.354 42.5879 141.354 42.2363C141.354 41.8965 141.42 41.5977 141.553 41.3398C141.686 41.0781 141.877 40.8613 142.127 40.6895C142.377 40.5137 142.678 40.3809 143.029 40.291C143.381 40.2012 143.773 40.1562 144.207 40.1562H145.467ZM151.713 42.5586L153.869 37.6602H154.912L152.088 44H151.338L148.525 37.6602H149.568L151.713 42.5586ZM149.252 37.6602V44H148.168V37.6602H149.252ZM154.139 44V37.6602H155.229V44H154.139ZM160.713 42.916V39.6523C160.713 39.4023 160.662 39.1855 160.561 39.002C160.463 38.8145 160.314 38.6699 160.115 38.5684C159.916 38.4668 159.67 38.416 159.377 38.416C159.104 38.416 158.863 38.4629 158.656 38.5566C158.453 38.6504 158.293 38.7734 158.176 38.9258C158.062 39.0781 158.006 39.2422 158.006 39.418H156.922C156.922 39.1914 156.98 38.9668 157.098 38.7441C157.215 38.5215 157.383 38.3203 157.602 38.1406C157.824 37.957 158.09 37.8125 158.398 37.707C158.711 37.5977 159.059 37.543 159.441 37.543C159.902 37.543 160.309 37.6211 160.66 37.7773C161.016 37.9336 161.293 38.1699 161.492 38.4863C161.695 38.7988 161.797 39.1914 161.797 39.6641V42.6172C161.797 42.8281 161.814 43.0527 161.85 43.291C161.889 43.5293 161.945 43.7344 162.02 43.9062V44H160.889C160.834 43.875 160.791 43.709 160.76 43.502C160.729 43.291 160.713 43.0957 160.713 42.916ZM160.9 40.1562L160.912 40.918H159.816C159.508 40.918 159.232 40.9434 158.99 40.9941C158.748 41.041 158.545 41.1133 158.381 41.2109C158.217 41.3086 158.092 41.4316 158.006 41.5801C157.92 41.7246 157.877 41.8945 157.877 42.0898C157.877 42.2891 157.922 42.4707 158.012 42.6348C158.102 42.7988 158.236 42.9297 158.416 43.0273C158.6 43.1211 158.824 43.168 159.09 43.168C159.422 43.168 159.715 43.0977 159.969 42.957C160.223 42.8164 160.424 42.6445 160.572 42.4414C160.725 42.2383 160.807 42.041 160.818 41.8496L161.281 42.3711C161.254 42.5352 161.18 42.7168 161.059 42.916C160.938 43.1152 160.775 43.3066 160.572 43.4902C160.373 43.6699 160.135 43.8203 159.857 43.9414C159.584 44.0586 159.275 44.1172 158.932 44.1172C158.502 44.1172 158.125 44.0332 157.801 43.8652C157.48 43.6973 157.23 43.4727 157.051 43.1914C156.875 42.9062 156.787 42.5879 156.787 42.2363C156.787 41.8965 156.854 41.5977 156.986 41.3398C157.119 41.0781 157.311 40.8613 157.561 40.6895C157.811 40.5137 158.111 40.3809 158.463 40.291C158.814 40.2012 159.207 40.1562 159.641 40.1562H160.9Z" fill="#333333"/>
<path d="M19.1581 5.33582L16.7491 8.06902L13.2941 8.36568C10.9077 8.57065 9.71447 8.67311 8.84283 9.2158C8.07614 9.69321 7.48026 10.401 7.1406 11.2379C6.75443 12.1893 6.85689 13.3825 7.06186 15.7689L7.31936 18.7674L5.22607 21.1424C3.64229 22.9393 2.8504 23.8377 2.59517 24.8323C2.37067 25.7071 2.42888 26.6305 2.76145 27.4702C3.13955 28.4248 4.03798 29.2167 5.83485 30.8005L8.55891 33.2015L8.86465 36.7618C9.06962 39.1482 9.17208 40.3414 9.71477 41.213C10.1922 41.9797 10.9 42.5756 11.7369 42.9153C12.6883 43.3014 13.8815 43.199 16.2679 42.994L19.3671 42.7279L21.6414 44.7325C23.4383 46.3163 24.3367 47.1081 25.3313 47.3634C26.2061 47.5879 27.1295 47.5297 27.9692 47.1971C28.9238 46.819 29.7157 45.9206 31.2995 44.1237L33.6077 41.5049L37.2607 41.1912C39.6472 40.9863 40.8404 40.8838 41.712 40.3411C42.4787 39.8637 43.0746 39.1559 43.4142 38.319C43.8004 37.3676 43.698 36.1744 43.493 33.788L43.2192 30.6002L45.2315 28.3171C46.8153 26.5203 47.6072 25.6218 47.8624 24.6273C48.0869 23.7525 48.0287 22.829 47.6961 21.9894C47.318 21.0347 46.4196 20.2429 44.6227 18.6591L41.9949 16.3428L41.6902 12.7951C41.4852 10.4087 41.3828 9.2155 40.8401 8.34385C40.3627 7.57717 39.6548 6.98129 38.818 6.64163C37.8666 6.25546 36.6734 6.35791 34.2869 6.56288L31.1998 6.82798L28.8162 4.72704C27.0193 3.14327 26.1209 2.35138 25.1263 2.09615C24.2515 1.87165 23.3281 1.92985 22.4884 2.26243C21.5338 2.64052 20.7418 3.53897 19.1581 5.33582Z" fill="url(#paint0_linear_3_1949)"/>
<path d="M20.1781 23.5702C19.9466 23.3575 19.5866 23.3726 19.3738 23.6041L18.1384 24.948C17.9257 25.1794 17.9409 25.5396 18.1723 25.7523L23.5721 30.7159L31.2101 22.4066C31.4229 22.1752 31.4077 21.8151 31.1763 21.6024L29.8323 20.3669C29.6008 20.1542 29.2408 20.1694 29.0281 20.4008L23.3958 26.528L20.1781 23.5702Z" fill="white"/>
<defs>
<linearGradient id="paint0_linear_3_1949" x1="2.46094" y1="24.7297" x2="49.4608" y2="24.7297" gradientUnits="userSpaceOnUse">
<stop stop-color="#60BF60"/>
<stop offset="1" stop-color="#60BFAE"/>
</linearGradient>
</defs>
</svg>
