<svg width="1049" height="1049" viewBox="0 0 1049 1049" fill="none" xmlns="http://www.w3.org/2000/svg">
<g filter="url(#filter0_dd_5455_39065)">
<path d="M387.583 76.3721L333.409 137.835L255.714 144.507C202.048 149.116 175.216 151.42 155.615 163.625C138.374 174.36 124.973 190.278 117.335 209.097C108.651 230.492 110.956 257.325 115.564 310.99L121.355 378.42L74.2813 431.828C38.6657 472.235 20.8578 492.439 15.1183 514.804C10.0697 534.477 11.3787 555.243 18.8576 574.126C27.3601 595.593 47.5639 613.401 87.9717 649.017L149.23 703.011L156.106 783.074C160.714 836.74 163.019 863.573 175.223 883.173C185.958 900.415 201.876 913.815 220.696 921.453C242.09 930.137 268.923 927.833 322.589 923.224L392.282 917.239L443.427 962.318C483.835 997.934 504.039 1015.74 526.404 1021.48C546.077 1026.53 566.843 1025.22 585.726 1017.74C607.193 1009.24 625.001 989.036 660.617 948.628L712.523 889.737L794.672 882.682C848.338 878.074 875.171 875.769 894.772 863.565C912.013 852.83 925.413 836.912 933.052 818.092C941.735 796.698 939.431 769.865 934.822 716.2L928.666 644.513L973.918 593.172C1009.53 552.765 1027.34 532.561 1033.08 510.196C1038.13 490.523 1036.82 469.757 1029.34 450.874C1020.84 429.406 1000.64 411.599 960.228 375.983L901.132 323.896L894.281 244.116C889.672 190.45 887.368 163.617 875.163 144.016C864.428 126.775 848.51 113.375 829.691 105.737C808.296 97.0527 781.463 99.3571 727.798 103.966L658.375 109.928L604.772 62.6817C564.364 27.0661 544.16 9.25823 521.795 3.51872C502.123 -1.5299 481.356 -0.220938 462.473 7.25801C441.006 15.7604 423.198 35.9645 387.583 76.3721Z" fill="#40BE7E"/>
</g>
<path d="M413.656 489.573C408.452 484.789 400.354 485.13 395.57 490.334L367.789 520.557C363.005 525.762 363.345 533.859 368.55 538.643L489.98 650.264L661.743 463.407C666.527 458.202 666.186 450.105 660.982 445.321L630.758 417.539C625.554 412.755 617.457 413.096 612.673 418.3L486.016 556.088L413.656 489.573Z" fill="white"/>
<defs>
<filter id="filter0_dd_5455_39065" x="0.0996094" y="0.5" width="1048" height="1048" filterUnits="userSpaceOnUse" color-interpolation-filters="sRGB">
<feFlood flood-opacity="0" result="BackgroundImageFix"/>
<feColorMatrix in="SourceAlpha" type="matrix" values="0 0 0 0 0 0 0 0 0 0 0 0 0 0 0 0 0 0 127 0" result="hardAlpha"/>
<feOffset dy="0.5"/>
<feGaussianBlur stdDeviation="0.25"/>
<feColorMatrix type="matrix" values="0 0 0 0 0 0 0 0 0 0 0 0 0 0 0 0 0 0 0.12 0"/>
<feBlend mode="normal" in2="BackgroundImageFix" result="effect1_dropShadow_5455_39065"/>
<feColorMatrix in="SourceAlpha" type="matrix" values="0 0 0 0 0 0 0 0 0 0 0 0 0 0 0 0 0 0 127 0" result="hardAlpha"/>
<feOffset dy="12"/>
<feGaussianBlur stdDeviation="6"/>
<feColorMatrix type="matrix" values="0 0 0 0 0.0525347 0 0 0 0 0.141667 0 0 0 0 0.098508 0 0 0 0.12 0"/>
<feBlend mode="normal" in2="effect1_dropShadow_5455_39065" result="effect2_dropShadow_5455_39065"/>
<feBlend mode="normal" in="SourceGraphic" in2="effect2_dropShadow_5455_39065" result="shape"/>
</filter>
</defs>
</svg>
