<svg width="11" height="10" viewBox="0 0 11 10" fill="none" xmlns="http://www.w3.org/2000/svg">
<mask id="mask0_138_233" style="mask-type:alpha" maskUnits="userSpaceOnUse" x="0" y="0" width="11" height="10">
<path d="M4.26581 3.95318H0.74003L3.59245 6.02558L3.68225 6.09083L3.64795 6.19639L2.55842 9.54961L5.41084 7.47721L5.50064 7.41197L5.59044 7.47721L8.44285 9.54961L7.35333 6.19639L7.31903 6.09083L7.40883 6.02558L10.2612 3.95318H6.73546H6.62446L6.59016 3.84762L5.50064 0.4944L4.41111 3.84762L4.37681 3.95318H4.26581Z" stroke="#333333" stroke-width="0.305555"/>
</mask>
<g mask="url(#mask0_138_233)">
<path d="M6.59016 3.84762L5.65341 0.964601V7.52297L8.44285 9.54961L7.35333 6.19639L7.31903 6.09083L7.40883 6.02558L10.2612 3.95318H6.73546H6.62446L6.59016 3.84762Z" fill="#333333" stroke="#333333" stroke-width="0.305555"/>
</g>
<mask id="mask1_138_233" style="mask-type:alpha" maskUnits="userSpaceOnUse" x="0" y="0" width="11" height="10">
<path d="M6.73517 3.95318H10.2609L7.40853 6.02558L7.31873 6.09083L7.35303 6.19639L8.44256 9.54961L5.59014 7.47721L5.50034 7.41197L5.41054 7.47721L2.55812 9.54961L3.64765 6.19639L3.68195 6.09083L3.59215 6.02558L0.739733 3.95318H4.26551H4.37651L4.41081 3.84762L5.50034 0.4944L6.58987 3.84762L6.62417 3.95318H6.73517Z" fill="#333333" stroke="#333333" stroke-width="0.305555"/>
</mask>
<g mask="url(#mask1_138_233)">
<path d="M4.41081 3.84762L5.34756 0.964601V7.52297L2.55812 9.54961L3.64765 6.19639L3.68195 6.09083L3.59215 6.02558L0.739733 3.95318H4.26551H4.37651L4.41081 3.84762Z" fill="#333333" stroke="#333333" stroke-width="0.305555"/>
</g>
</svg>
