<svg width="34" height="32" viewBox="0 0 34 32" fill="none" xmlns="http://www.w3.org/2000/svg">
<path fill-rule="evenodd" clip-rule="evenodd" d="M31.9803 7.95755C32.1965 7.23197 31.9803 6.69775 30.945 6.69775H27.5264C26.6565 6.69775 26.2554 7.15888 26.0379 7.66785C26.0379 7.66785 24.2993 11.915 21.8367 14.6738C21.0397 15.4738 20.6777 15.7277 20.2427 15.7277C20.0252 15.7277 19.6983 15.4738 19.6983 14.7469V7.95755C19.6983 7.08579 19.4587 6.69775 18.7346 6.69775H13.3587C12.8157 6.69775 12.4888 7.10174 12.4888 7.48579C12.4888 8.31104 13.7208 8.5024 13.8471 10.8253V15.8725C13.8471 16.9795 13.6478 17.1801 13.2129 17.1801C12.0538 17.1801 9.23436 12.913 7.56091 8.03064C7.23663 7.08048 6.90845 6.69775 6.03461 6.69775H2.61347C1.63675 6.69775 1.44141 7.15888 1.44141 7.66785C1.44141 8.57417 2.60045 13.0765 6.83943 19.0313C9.66542 23.0978 13.6439 25.3024 17.2682 25.3024C19.4418 25.3024 19.71 24.8134 19.71 23.9695V20.8958C19.71 19.9164 19.9158 19.721 20.6047 19.721C21.1126 19.721 21.9813 19.9762 24.0102 21.9363C26.3283 24.2605 26.7099 25.3024 28.0148 25.3024H31.4333C32.4101 25.3024 32.8997 24.8134 32.6184 23.8459C32.3085 22.8838 31.2015 21.4871 29.7338 19.83C28.9368 18.8865 27.7413 17.8698 27.378 17.3609C26.8714 16.7084 27.0159 16.4174 27.378 15.8366C27.378 15.8366 31.5453 9.9549 31.979 7.95755H31.9803Z" fill="#67BBB1"/>
</svg>
